<svg width="1630" height="1636" viewBox="0 0 1630 1636" fill="none" xmlns="http://www.w3.org/2000/svg">
<path d="M739.857 1593.56C739.808 1593.56 739.808 1593.56 739.76 1593.56L580.511 1562.27C580.364 1562.22 580.218 1562.12 580.169 1561.98C580.12 1561.83 580.12 1561.68 580.218 1561.54L588.285 1548.09L444.732 1505.02H444.683C444.683 1505.02 444.732 1505.02 444.683 1505.02C444.683 1505.02 444.634 1505.02 444.634 1504.97L266.903 1373.93C266.903 1373.93 266.952 1373.93 266.903 1373.93L121.785 1179.18C121.687 1179.04 121.638 1178.84 121.736 1178.65C121.834 1178.5 121.981 1178.4 122.176 1178.4L158.211 1179.62L52.0128 989.767C51.9639 989.669 51.9639 989.572 51.9639 989.523C51.9639 989.474 51.9639 989.474 51.9639 989.425L163.687 609.272L36.7089 745.785C36.5622 745.932 36.3178 745.98 36.1222 745.883C35.9266 745.785 35.8288 745.54 35.8777 745.345L77.829 554.559C77.829 554.51 77.8778 554.462 77.8778 554.413L261.134 258.211C261.134 258.162 261.182 258.162 261.182 258.113C261.182 258.113 261.231 258.113 261.231 258.065L448.399 126.441C448.448 126.441 448.448 126.392 448.496 126.392L662.898 48.9926H662.947C662.996 48.9926 662.996 48.9926 663.044 48.9926L915.045 42.4408H915.094H915.143L1105.88 85.9078H1105.93C1105.93 85.9078 1105.98 85.9078 1105.98 85.9567L1237.36 160.863C1237.41 160.863 1237.41 160.912 1237.45 160.912L1386.44 286.179C1386.48 286.228 1386.48 286.228 1386.53 286.277L1510.68 465.523C1510.68 465.572 1510.72 465.572 1510.72 465.621C1510.72 465.621 1510.72 465.621 1510.72 465.67L1552.63 572.846C1552.72 573.041 1552.63 573.335 1552.43 573.433C1552.24 573.579 1551.99 573.53 1551.8 573.335L1510.43 528.205L1509.99 612.352L1574.78 641.933C1574.92 641.982 1575.02 642.129 1575.07 642.325L1593.55 778.886C1593.55 778.935 1593.55 778.984 1593.55 779.033V779.082L1544.36 986.491L1572.18 1001.55C1572.38 1001.65 1572.48 1001.94 1572.38 1002.19L1493.56 1200.5C1493.56 1200.55 1493.51 1200.55 1493.51 1200.6L1354.51 1382C1354.46 1382.05 1354.46 1382.05 1354.41 1382.1L1189.1 1501.35C1189.05 1501.4 1189.05 1501.4 1189 1501.4L1008.04 1573.22C1007.8 1573.32 1007.55 1573.22 1007.41 1572.98L990.783 1542.08L922.869 1556.01L911.623 1591.22C911.574 1591.41 911.378 1591.56 911.183 1591.56L739.857 1593.56C739.906 1593.56 739.857 1593.56 739.857 1593.56ZM921.646 1556.26L744.991 1592.54L910.694 1590.63L921.646 1556.26ZM589.752 1547.5L739.271 1592.39L719.762 1463.94L632.29 1476.61L589.752 1547.5ZM932.207 1433.48L741.666 1592.24L921.988 1555.23L950.201 1466.93L932.207 1433.48ZM720.74 1463.85L740.2 1592.19L930.692 1433.48L720.74 1463.85ZM581.391 1561.44L730.127 1590.68L589.214 1548.38L581.391 1561.44ZM991.663 1541.93L1007.94 1572.2L1183.33 1502.57L991.663 1541.93ZM950.836 1468.1L923.064 1554.99L990.147 1541.2L950.836 1468.1ZM447.03 1504.67L588.774 1547.21L631.068 1476.8L568.141 1485.9L447.03 1504.67ZM951.276 1466.83L991.174 1541.05L1186.56 1500.96L959.686 1440.52L951.276 1466.83ZM412.119 1427.96L445.123 1503.99L566.136 1485.21L412.119 1427.96ZM270.228 1375.15L443.705 1503.06L410.897 1427.47L270.228 1375.15ZM959.979 1439.55L1187.73 1500.17L1138.54 1408.2L963.206 1429.42L959.979 1439.55ZM1212.96 1399.26L1189.44 1499.83L1352.21 1382.44L1212.96 1399.26ZM1139.57 1408.11L1188.51 1499.59L1211.93 1399.35L1139.57 1408.11ZM528.39 1281.23L568.483 1484.87L631.752 1475.73L703.284 1356.62L528.39 1281.23ZM411.581 1426.69L567.407 1484.63L527.265 1280.74L307.045 1185.83L411.581 1426.69ZM703.676 1357.79L632.974 1475.53L719.615 1463.02L703.676 1357.79ZM933.332 1433.48L950.641 1465.66L958.757 1440.28L933.332 1433.48ZM704.556 1357.11L720.593 1462.87L930.252 1432.51L704.556 1357.11ZM934.945 1432.9L959.05 1439.3L962.131 1429.62L934.945 1432.9ZM1029.85 1217.71L933.185 1432.11L962.473 1428.54L1029.85 1217.71ZM705.289 1356.33L931.229 1431.82L844.638 1294.23L705.289 1356.33ZM845.567 1293.79L932.305 1431.67L1031.95 1210.72L845.567 1293.79ZM1033.03 1210.97L963.549 1428.4L1138.05 1407.28L1033.03 1210.97ZM267.685 1373.2L410.31 1426.25L306.263 1186.52L267.685 1373.2ZM1034.1 1210.92L1139.08 1407.18L1212.18 1398.33L1231.29 1316.48L1034.1 1210.92ZM1232.17 1317.02L1213.2 1398.23L1352.45 1381.36L1232.17 1317.02ZM1232.42 1315.99L1353.48 1380.82L1344.97 1203.78L1258.23 1205.59L1232.42 1315.99ZM1346 1203.78L1354.41 1379.26L1419.93 1202.26L1346 1203.78ZM1421 1202.21L1355.63 1378.77L1492.05 1200.75L1421 1202.21ZM159.776 1180.5L266.316 1371.04L241.234 1183.19L159.776 1180.5ZM242.163 1183.24L267.196 1370.6L305.481 1185.34L242.163 1183.24ZM123.007 1179.28L263.04 1367.23L158.602 1180.45L123.007 1179.28ZM528.194 1280.1L703.627 1355.74L748.463 1141.93L505.703 1165.79L528.194 1280.1ZM749.294 1142.61L704.653 1355.55L844.149 1293.35L749.294 1142.61ZM1034.79 1210.18L1231.54 1315.55L1257.26 1205.64L1034.79 1210.18ZM750.125 1142.07L845.029 1292.96L1031.41 1209.89L750.125 1142.07ZM308.023 1185.2L527.07 1279.61L504.676 1165.84L308.023 1185.2ZM1329.77 895.401L1034.1 1209.2L1257.5 1204.61L1329.77 895.401ZM749.734 1141L1032.15 1209.06L903.115 818.784L749.734 1141ZM903.995 818.099L1032.93 1208.13L1137.47 859.757L903.995 818.099ZM1138.39 859.953L1034.01 1207.93L1329.67 894.13L1138.39 859.953ZM1330.3 897.308L1258.48 1204.61L1344.97 1202.8L1330.3 897.308ZM1331.23 895.939L1345.95 1202.8L1420.32 1201.28L1450.24 1120.51L1331.23 895.939ZM1450.83 1121.68L1421.35 1201.28L1492.19 1199.82L1450.83 1121.68ZM1451.27 1120.41L1492.63 1198.5L1506.81 970.503L1451.27 1120.41ZM1507.94 968.009L1493.86 1194.63L1543.09 987.029L1507.94 968.009ZM1544.02 987.469L1495.08 1193.85L1571.26 1002.19L1544.02 987.469ZM242.065 1182.26L304.601 1184.37L235.171 1130.93L242.065 1182.26ZM450.648 891.343L306.899 1184.27L504.48 1164.86L450.648 891.343ZM235.024 1129.51L305.578 1183.88L297.12 928.845L211.066 950.359L235.024 1129.51ZM298.049 928.552L306.507 1182.9L449.963 890.561L298.049 928.552ZM159.189 1179.48L241.038 1182.22L234.046 1130.05L54.0175 991.381L159.189 1179.48ZM451.626 891.099L505.507 1164.76L747.876 1140.95L451.626 891.099ZM451.968 890.17L748.854 1140.56L902.382 818.099L451.968 890.17ZM53.5285 989.767L233.899 1128.68L210.088 950.603L53.5285 989.767ZM1331.72 894.717L1450.68 1119.24L1506.91 967.423L1331.72 894.717ZM164.567 609.712L53.1863 988.838L209.99 949.576L164.567 609.712ZM1508.13 966.983L1543.34 986.003L1591.3 783.776L1508.13 966.983ZM1331.87 893.739L1507.01 966.445L1507.84 816.73L1331.87 893.739ZM1508.82 816.339L1507.99 964.929L1591.99 779.962L1508.82 816.339ZM165.399 608.734L210.919 949.381L297.071 927.818L290.568 732.29L165.399 608.734ZM291.595 733.268L298.049 927.574L449.914 889.583L291.595 733.268ZM1138.64 858.975L1329.62 893.054L1193.74 675.279L1138.64 858.975ZM1458.65 590.057L1331.58 892.81L1507.84 815.655L1508.96 612.988L1458.65 590.057ZM1248.55 494.126L1330.79 892.125L1457.77 589.666L1248.55 494.126ZM1194.13 674.057L1329.62 891.196L1247.82 495.3L1194.13 674.057ZM765.185 607.316L452.408 889.094L902.431 817.073L765.185 607.316ZM291.546 731.85L450.452 888.752L473.677 579.544L286.07 568.005L291.546 731.85ZM474.655 579.495L451.43 888.654L764.647 606.485L728.074 550.599L474.655 579.495ZM904.289 817.122L1137.66 858.78L1193.06 674.204L1142.45 593.088L904.289 817.122ZM1026.92 407.925L904.24 815.85L1141.91 592.257L1026.92 407.925ZM842.975 537.3L903.36 815.508L1025.94 407.974L842.975 537.3ZM1509.94 613.477L1508.82 815.264L1592.43 778.691L1574.04 642.765L1509.94 613.477ZM765.918 606.632L902.186 814.97L842.095 538.033L765.918 606.632ZM78.6602 555.195L37.1978 743.829L164.274 607.17L176.987 561.258L78.6602 555.195ZM165.35 607.316L290.519 730.872L285.092 567.908L190.921 562.089L165.35 607.316ZM1143.19 592.404L1193.45 672.932L1246.89 494.859L1143.19 592.404ZM1458.99 589.177L1508.92 611.961L1509.36 527.179L1492.63 508.941L1458.99 589.177ZM729.198 550.501L765.38 605.849L840.922 537.789L729.198 550.501ZM178.013 561.307L166.279 603.698L189.846 562.04L178.013 561.307ZM1027.99 407.73L1142.7 591.572L1246.99 493.49L1027.99 407.73ZM1249.68 493.588L1458.11 588.737L1491.95 508.11L1458.55 471.684L1249.68 493.588ZM286.07 566.979L472.846 578.469L280.642 404.747L286.07 566.979ZM614.492 376.926L475.193 578.42L727.487 549.67L614.492 376.926ZM281.278 404.014L473.628 577.931L463.018 389.052L281.278 404.014ZM463.996 388.955L474.606 577.589L613.515 376.633L463.996 388.955ZM1510.38 526.787L1550.72 570.743L1510.72 468.359L1510.38 526.787ZM191.459 561.16L285.043 566.93L279.665 405.383L191.459 561.16ZM178.307 560.329L190.384 561.062L278.54 405.383L206.274 459.46L178.307 560.329ZM79.638 554.266L177.28 560.28L204.954 460.438L79.638 554.266ZM260.156 261.634L80.0781 552.701L205.443 458.873L260.156 261.634ZM616.302 377.953L728.612 549.621L841.117 536.811L616.302 377.953ZM788.654 389.541L842.633 536.322L1025.35 407.143L788.654 389.541ZM616.253 376.682L841.411 535.784L787.578 389.443L616.253 376.682ZM1493.12 507.914L1509.45 525.712L1509.75 468.261L1493.12 507.914ZM1459.78 471.586L1492.34 507.132L1509.45 466.403L1459.78 471.586ZM1345.41 348.323L1248.85 492.708L1457.77 470.852L1345.41 348.323ZM1027.65 406.556L1247.28 492.513L1210.27 223.399L1027.65 406.556ZM1211.3 223.545L1248.21 491.975L1344.78 347.59L1288.74 286.521L1211.3 223.545ZM1345.95 347.443L1458.95 470.706L1509.01 465.474L1352.21 338.104L1345.95 347.443ZM1352.8 337.273L1507.89 463.274L1386.09 287.45L1352.8 337.273ZM261.378 260.949L206.714 457.944L279.616 403.378L261.378 260.949ZM788.312 388.514L1025.94 406.214L887.371 130.891L741.813 262.074L788.312 388.514ZM888.349 130.646L1026.62 405.383L1089.99 148.639L888.349 130.646ZM1090.97 148.688L1027.65 405.139L1209.93 222.323L1157.85 154.653L1090.97 148.688ZM453.826 225.599L281.376 402.987L462.969 388.026L453.826 225.599ZM262.063 258.896L280.398 402.156L380.387 238.018L262.063 258.896ZM381.707 237.773L282.794 400.151L452.848 225.208L381.707 237.773ZM615.666 375.655L787.187 388.417L740.982 262.709L615.666 375.655ZM454.804 225.697L463.947 387.977L613.368 375.655L454.804 225.697ZM454.999 224.523L614.15 375.068L650.528 130.695L512.695 176.167L454.999 224.523ZM651.554 130.353L615.177 374.824L740.64 261.732L687.932 118.325L651.554 130.353ZM1293.93 290.677L1345.31 346.71L1351.52 337.469L1293.93 290.677ZM1289.38 285.739L1352.01 336.638L1385.31 286.814L1242.39 234.546L1289.38 285.739ZM1240.97 232.982L1383.65 285.152L1237.41 162.036L1217.6 207.508L1240.97 232.982ZM1213.2 223.839L1284.2 281.534L1240.44 233.813L1213.2 223.839ZM688.861 118.031L741.422 261.047L886.589 130.255L774.23 89.8682L688.861 118.031ZM447.079 128.592L264.556 256.989L395.153 213.913L447.079 128.592ZM394.322 215.184L268.125 256.842L381.12 236.893L394.322 215.184ZM395.74 214.695L382.391 236.649L453.777 224.083L452.163 196.115L395.74 214.695ZM1211.3 222.078L1239.02 232.199L1217.21 208.437L1211.3 222.078ZM453.141 195.773L454.706 223.447L510.201 176.949L453.141 195.773ZM1159.17 154.8L1210.51 221.443L1216.48 207.703L1168.76 155.631L1159.17 154.8ZM448.301 128.446L396.522 213.424L452.115 195.089L448.301 128.446ZM1170.18 155.778L1216.92 206.726L1236.53 161.694L1170.18 155.778ZM449.23 127.175L453.092 194.795L512.255 175.287L660.698 50.8506L449.23 127.175ZM662.409 50.6061L514.699 174.406L650.674 129.57L662.409 50.6061ZM1169.2 154.702L1235.06 160.569L1108.32 88.3036L1169.2 154.702ZM1158.39 153.724L1167.78 154.555L1113.21 95.051L1158.39 153.724ZM1091.21 147.759L1157.02 153.626L1106.08 87.4235L1091.21 147.759ZM890.941 129.864L1090.23 147.612L1105.2 86.9346L890.941 129.864ZM775.697 89.3793L887.176 129.424L914.361 43.6142L775.697 89.3793ZM915.437 43.4676L888.203 129.424L1103.48 86.299L915.437 43.4676ZM663.289 51.3885L651.701 129.228L687.54 117.396L663.289 51.3885ZM663.925 50.2639L688.518 117.151L772.714 89.3793L663.925 50.2639ZM665.734 49.8238L774.23 88.8414L911.818 43.4676L665.734 49.8238Z" fill="#A8A8A8" fill-opacity="0.7"/>
<path d="M620.115 376.046C620.115 372.965 617.621 370.472 614.541 370.472C611.46 370.472 608.967 372.965 608.967 376.046C608.967 379.126 611.46 381.62 614.541 381.62C617.572 381.668 620.115 379.175 620.115 376.046Z" fill="#A8A8A8" fill-opacity="0.7"/>
<path d="M1515.86 465.816C1515.86 462.736 1513.37 460.242 1510.29 460.242C1507.21 460.242 1504.71 462.736 1504.71 465.816C1504.71 468.897 1507.21 471.39 1510.29 471.39C1513.32 471.39 1515.86 468.897 1515.86 465.816Z" fill="#A8A8A8" fill-opacity="0.7"/>
<path d="M1557.71 573.041C1557.71 569.961 1555.22 567.467 1552.14 567.467C1549.06 567.467 1546.56 569.961 1546.56 573.041C1546.56 576.122 1549.06 578.615 1552.14 578.615C1555.22 578.615 1557.71 576.122 1557.71 573.041Z" fill="#A8A8A8" fill-opacity="0.7"/>
<path d="M1111.46 86.2998C1111.46 83.2194 1108.96 80.7258 1105.88 80.7258C1102.8 80.7258 1100.31 83.2194 1100.31 86.2998C1100.31 89.3801 1102.8 91.8737 1105.88 91.8737C1108.96 91.9226 1111.46 89.429 1111.46 86.2998Z" fill="#A8A8A8" fill-opacity="0.7"/>
<path d="M920.72 42.8808C920.72 39.8005 918.227 37.3069 915.146 37.3069C912.066 37.3069 909.572 39.8005 909.572 42.8808C909.572 45.9612 912.066 48.4548 915.146 48.4548C918.227 48.4548 920.72 45.9612 920.72 42.8808Z" fill="#A8A8A8" fill-opacity="0.7"/>
<path d="M267.097 258.456C267.097 255.376 264.604 252.882 261.523 252.882C258.443 252.882 255.949 255.376 255.949 258.456C255.949 261.536 258.443 264.03 261.523 264.03C264.604 264.079 267.097 261.536 267.097 258.456Z" fill="#A8A8A8" fill-opacity="0.7"/>
<path d="M170.335 607.365C170.335 604.285 167.842 601.791 164.761 601.791C161.681 601.791 159.188 604.285 159.188 607.365C159.188 610.445 161.681 612.939 164.761 612.939C167.842 612.988 170.335 610.445 170.335 607.365Z" fill="#A8A8A8" fill-opacity="0.7"/>
<path d="M285.73 403.623C285.73 400.543 283.236 398.049 280.156 398.049C277.076 398.049 274.582 400.543 274.582 403.623C274.582 406.703 277.076 409.197 280.156 409.197C283.236 409.197 285.73 406.703 285.73 403.623Z" fill="#A8A8A8" fill-opacity="0.7"/>
<path d="M311.691 1184.86C311.691 1181.78 309.197 1179.28 306.117 1179.28C303.037 1179.28 300.543 1181.78 300.543 1184.86C300.543 1187.94 303.037 1190.43 306.117 1190.43C309.197 1190.48 311.691 1187.94 311.691 1184.86Z" fill="#A8A8A8" fill-opacity="0.7"/>
<path d="M709.542 1356.38C709.542 1353.3 707.049 1350.8 703.968 1350.8C700.888 1350.8 698.395 1353.3 698.395 1356.38C698.395 1359.46 700.888 1361.95 703.968 1361.95C707.049 1361.95 709.542 1359.46 709.542 1356.38Z" fill="#A8A8A8" fill-opacity="0.7"/>
<path d="M754.622 1141.34C754.622 1138.26 752.129 1135.77 749.049 1135.77C745.968 1135.77 743.475 1138.26 743.475 1141.34C743.475 1144.42 745.968 1146.91 749.049 1146.91C752.129 1146.91 754.622 1144.42 754.622 1141.34Z" fill="#A8A8A8" fill-opacity="0.7"/>
<path d="M311.691 1184.86C311.691 1181.78 309.197 1179.28 306.117 1179.28C303.037 1179.28 300.543 1181.78 300.543 1184.86C300.543 1187.94 303.037 1190.43 306.117 1190.43C309.197 1190.48 311.691 1187.94 311.691 1184.86Z" fill="#A8A8A8" fill-opacity="0.7"/>
<path d="M456.468 889.827C456.468 886.747 453.975 884.253 450.894 884.253C447.814 884.253 445.32 886.747 445.32 889.827C445.32 892.907 447.814 895.401 450.894 895.401C453.926 895.401 456.468 892.907 456.468 889.827Z" fill="#A8A8A8" fill-opacity="0.7"/>
<path d="M573.667 1485.41C573.667 1482.33 571.174 1479.83 568.093 1479.83C565.013 1479.83 562.52 1482.33 562.52 1485.41C562.52 1488.49 565.013 1490.98 568.093 1490.98C571.174 1490.98 573.667 1488.49 573.667 1485.41Z" fill="#A8A8A8" fill-opacity="0.7"/>
<path d="M937.929 1432.7C937.929 1429.62 935.436 1427.13 932.355 1427.13C929.275 1427.13 926.781 1429.62 926.781 1432.7C926.781 1435.78 929.275 1438.27 932.355 1438.27C935.436 1438.27 937.929 1435.78 937.929 1432.7Z" fill="#A8A8A8" fill-opacity="0.7"/>
<path d="M745.478 1593.07C745.478 1589.99 742.984 1587.5 739.904 1587.5C736.824 1587.5 734.33 1589.99 734.33 1593.07C734.33 1596.15 736.824 1598.65 739.904 1598.65C742.935 1598.7 745.478 1596.15 745.478 1593.07Z" fill="#A8A8A8" fill-opacity="0.7"/>
<path d="M709.542 1356.38C709.542 1353.3 707.049 1350.8 703.968 1350.8C700.888 1350.8 698.395 1353.3 698.395 1356.38C698.395 1359.46 700.888 1361.95 703.968 1361.95C707.049 1361.95 709.542 1359.46 709.542 1356.38Z" fill="#A8A8A8" fill-opacity="0.7"/>
<path d="M586.181 1561.78C586.181 1558.7 583.687 1556.21 580.607 1556.21C577.527 1556.21 575.033 1558.7 575.033 1561.78C575.033 1564.86 577.527 1567.35 580.607 1567.35C583.687 1567.35 586.181 1564.86 586.181 1561.78Z" fill="#A8A8A8" fill-opacity="0.7"/>
<path d="M745.478 1593.07C745.478 1589.99 742.984 1587.5 739.904 1587.5C736.824 1587.5 734.33 1589.99 734.33 1593.07C734.33 1596.15 736.824 1598.65 739.904 1598.65C742.935 1598.7 745.478 1596.15 745.478 1593.07Z" fill="#A8A8A8" fill-opacity="0.7"/>
<path d="M450.404 1504.53C450.404 1501.45 447.91 1498.95 444.83 1498.95C441.749 1498.95 439.256 1501.45 439.256 1504.53C439.256 1507.61 441.749 1510.1 444.83 1510.1C447.91 1510.1 450.404 1507.61 450.404 1504.53Z" fill="#A8A8A8" fill-opacity="0.7"/>
<path d="M573.667 1485.41C573.667 1482.33 571.174 1479.83 568.093 1479.83C565.013 1479.83 562.52 1482.33 562.52 1485.41C562.52 1488.49 565.013 1490.98 568.093 1490.98C571.174 1490.98 573.667 1488.49 573.667 1485.41Z" fill="#A8A8A8" fill-opacity="0.7"/>
<path d="M272.722 1373.49C272.722 1370.41 270.229 1367.92 267.148 1367.92C264.068 1367.92 261.574 1370.41 261.574 1373.49C261.574 1376.57 264.068 1379.06 267.148 1379.06C270.18 1379.06 272.722 1376.57 272.722 1373.49Z" fill="#A8A8A8" fill-opacity="0.7"/>
<path d="M450.404 1504.53C450.404 1501.45 447.91 1498.95 444.83 1498.95C441.749 1498.95 439.256 1501.45 439.256 1504.53C439.256 1507.61 441.749 1510.1 444.83 1510.1C447.91 1510.1 450.404 1507.61 450.404 1504.53Z" fill="#A8A8A8" fill-opacity="0.7"/>
<path d="M311.691 1184.86C311.691 1181.78 309.197 1179.28 306.117 1179.28C303.037 1179.28 300.543 1181.78 300.543 1184.86C300.543 1187.94 303.037 1190.43 306.117 1190.43C309.197 1190.48 311.691 1187.94 311.691 1184.86Z" fill="#A8A8A8" fill-opacity="0.7"/>
<path d="M272.722 1373.49C272.722 1370.41 270.229 1367.92 267.148 1367.92C264.068 1367.92 261.574 1370.41 261.574 1373.49C261.574 1376.57 264.068 1379.06 267.148 1379.06C270.18 1379.06 272.722 1376.57 272.722 1373.49Z" fill="#A8A8A8" fill-opacity="0.7"/>
<path d="M127.601 1178.74C127.601 1175.66 125.107 1173.17 122.027 1173.17C118.947 1173.17 116.453 1175.66 116.453 1178.74C116.453 1181.82 118.947 1184.32 122.027 1184.32C125.107 1184.32 127.601 1181.82 127.601 1178.74Z" fill="#A8A8A8" fill-opacity="0.7"/>
<path d="M311.691 1184.86C311.691 1181.78 309.197 1179.28 306.117 1179.28C303.037 1179.28 300.543 1181.78 300.543 1184.86C300.543 1187.94 303.037 1190.43 306.117 1190.43C309.197 1190.48 311.691 1187.94 311.691 1184.86Z" fill="#A8A8A8" fill-opacity="0.7"/>
<path d="M58.0268 989.523C58.0268 986.443 55.5332 983.949 52.4528 983.949C49.3725 983.949 46.8789 986.443 46.8789 989.523C46.8789 992.604 49.3725 995.097 52.4528 995.097C55.5332 995.097 58.0268 992.604 58.0268 989.523Z" fill="#A8A8A8" fill-opacity="0.7"/>
<path d="M272.722 1373.49C272.722 1370.41 270.229 1367.92 267.148 1367.92C264.068 1367.92 261.574 1370.41 261.574 1373.49C261.574 1376.57 264.068 1379.06 267.148 1379.06C270.18 1379.06 272.722 1376.57 272.722 1373.49Z" fill="#A8A8A8" fill-opacity="0.7"/>
<path d="M170.335 607.365C170.335 604.285 167.842 601.791 164.761 601.791C161.681 601.791 159.188 604.285 159.188 607.365C159.188 610.445 161.681 612.939 164.761 612.939C167.842 612.988 170.335 610.445 170.335 607.365Z" fill="#A8A8A8" fill-opacity="0.7"/>
<path d="M456.468 889.827C456.468 886.747 453.975 884.253 450.894 884.253C447.814 884.253 445.32 886.747 445.32 889.827C445.32 892.907 447.814 895.401 450.894 895.401C453.926 895.401 456.468 892.907 456.468 889.827Z" fill="#A8A8A8" fill-opacity="0.7"/>
<path d="M58.0268 989.523C58.0268 986.443 55.5332 983.949 52.4528 983.949C49.3725 983.949 46.8789 986.443 46.8789 989.523C46.8789 992.604 49.3725 995.097 52.4528 995.097C55.5332 995.097 58.0268 992.604 58.0268 989.523Z" fill="#A8A8A8" fill-opacity="0.7"/>
<path d="M170.335 607.365C170.335 604.285 167.842 601.791 164.761 601.791C161.681 601.791 159.188 604.285 159.188 607.365C159.188 610.445 161.681 612.939 164.761 612.939C167.842 612.988 170.335 610.445 170.335 607.365Z" fill="#A8A8A8" fill-opacity="0.7"/>
<path d="M41.9409 745.442C41.9409 742.362 39.4473 739.868 36.3669 739.868C33.2866 739.868 30.793 742.362 30.793 745.442C30.793 748.523 33.2866 751.016 36.3669 751.016C39.4473 751.016 41.9409 748.523 41.9409 745.442Z" fill="#A8A8A8" fill-opacity="0.7"/>
<path d="M83.892 554.657C83.892 551.576 81.3984 549.083 78.3181 549.083C75.2377 549.083 72.7441 551.576 72.7441 554.657C72.7441 557.737 75.2377 560.231 78.3181 560.231C81.3984 560.231 83.892 557.737 83.892 554.657Z" fill="#A8A8A8" fill-opacity="0.7"/>
<path d="M479.789 579.055C479.789 575.975 477.295 573.481 474.215 573.481C471.134 573.481 468.641 575.975 468.641 579.055C468.641 582.135 471.134 584.629 474.215 584.629C477.295 584.629 479.789 582.135 479.789 579.055Z" fill="#A8A8A8" fill-opacity="0.7"/>
<path d="M456.468 889.827C456.468 886.747 453.975 884.253 450.894 884.253C447.814 884.253 445.32 886.747 445.32 889.827C445.32 892.907 447.814 895.401 450.894 895.401C453.926 895.401 456.468 892.907 456.468 889.827Z" fill="#A8A8A8" fill-opacity="0.7"/>
<path d="M754.622 1141.34C754.622 1138.26 752.129 1135.77 749.049 1135.77C745.968 1135.77 743.475 1138.26 743.475 1141.34C743.475 1144.42 745.968 1146.91 749.049 1146.91C752.129 1146.91 754.622 1144.42 754.622 1141.34Z" fill="#A8A8A8" fill-opacity="0.7"/>
<path d="M937.929 1432.7C937.929 1429.62 935.436 1427.13 932.355 1427.13C929.275 1427.13 926.781 1429.62 926.781 1432.7C926.781 1435.78 929.275 1438.27 932.355 1438.27C935.436 1438.27 937.929 1435.78 937.929 1432.7Z" fill="#A8A8A8" fill-opacity="0.7"/>
<path d="M709.542 1356.38C709.542 1353.3 707.049 1350.8 703.968 1350.8C700.888 1350.8 698.395 1353.3 698.395 1356.38C698.395 1359.46 700.888 1361.95 703.968 1361.95C707.049 1361.95 709.542 1359.46 709.542 1356.38Z" fill="#A8A8A8" fill-opacity="0.7"/>
<path d="M1038.51 1209.74C1038.51 1206.66 1036.01 1204.17 1032.93 1204.17C1029.85 1204.17 1027.36 1206.66 1027.36 1209.74C1027.36 1212.82 1029.85 1215.32 1032.93 1215.32C1036.01 1215.32 1038.51 1212.82 1038.51 1209.74Z" fill="#A8A8A8" fill-opacity="0.7"/>
<path d="M754.622 1141.34C754.622 1138.26 752.129 1135.77 749.049 1135.77C745.968 1135.77 743.475 1138.26 743.475 1141.34C743.475 1144.42 745.968 1146.91 749.049 1146.91C752.129 1146.91 754.622 1144.42 754.622 1141.34Z" fill="#A8A8A8" fill-opacity="0.7"/>
<path d="M908.835 817.464C908.835 814.383 906.342 811.89 903.261 811.89C900.181 811.89 897.688 814.383 897.688 817.464C897.688 820.544 900.181 823.038 903.261 823.038C906.342 823.038 908.835 820.544 908.835 817.464Z" fill="#A8A8A8" fill-opacity="0.7"/>
<path d="M456.468 889.827C456.468 886.747 453.975 884.253 450.894 884.253C447.814 884.253 445.32 886.747 445.32 889.827C445.32 892.907 447.814 895.401 450.894 895.401C453.926 895.401 456.468 892.907 456.468 889.827Z" fill="#A8A8A8" fill-opacity="0.7"/>
<path d="M848.013 537.104C848.013 534.024 845.52 531.53 842.439 531.53C839.359 531.53 836.865 534.024 836.865 537.104C836.865 540.185 839.359 542.678 842.439 542.678C845.52 542.678 848.013 540.185 848.013 537.104Z" fill="#A8A8A8" fill-opacity="0.7"/>
<path d="M479.789 579.055C479.789 575.975 477.295 573.481 474.215 573.481C471.134 573.481 468.641 575.975 468.641 579.055C468.641 582.135 471.134 584.629 474.215 584.629C477.295 584.629 479.789 582.135 479.789 579.055Z" fill="#A8A8A8" fill-opacity="0.7"/>
<path d="M285.73 403.623C285.73 400.543 283.236 398.049 280.156 398.049C277.076 398.049 274.582 400.543 274.582 403.623C274.582 406.703 277.076 409.197 280.156 409.197C283.236 409.197 285.73 406.703 285.73 403.623Z" fill="#A8A8A8" fill-opacity="0.7"/>
<path d="M83.892 554.657C83.892 551.576 81.3984 549.083 78.3181 549.083C75.2377 549.083 72.7441 551.576 72.7441 554.657C72.7441 557.737 75.2377 560.231 78.3181 560.231C81.3984 560.231 83.892 557.737 83.892 554.657Z" fill="#A8A8A8" fill-opacity="0.7"/>
<path d="M267.097 258.456C267.097 255.376 264.604 252.882 261.523 252.882C258.443 252.882 255.949 255.376 255.949 258.456C255.949 261.536 258.443 264.03 261.523 264.03C264.604 264.079 267.097 261.536 267.097 258.456Z" fill="#A8A8A8" fill-opacity="0.7"/>
<path d="M285.73 403.623C285.73 400.543 283.236 398.049 280.156 398.049C277.076 398.049 274.582 400.543 274.582 403.623C274.582 406.703 277.076 409.197 280.156 409.197C283.236 409.197 285.73 406.703 285.73 403.623Z" fill="#A8A8A8" fill-opacity="0.7"/>
<path d="M620.115 376.046C620.115 372.965 617.621 370.472 614.541 370.472C611.46 370.472 608.967 372.965 608.967 376.046C608.967 379.126 611.46 381.62 614.541 381.62C617.572 381.668 620.115 379.175 620.115 376.046Z" fill="#A8A8A8" fill-opacity="0.7"/>
<path d="M479.789 579.055C479.789 575.975 477.295 573.481 474.215 573.481C471.134 573.481 468.641 575.975 468.641 579.055C468.641 582.135 471.134 584.629 474.215 584.629C477.295 584.629 479.789 582.135 479.789 579.055Z" fill="#A8A8A8" fill-opacity="0.7"/>
<path d="M459.839 224.474C459.839 221.393 457.346 218.9 454.265 218.9C451.185 218.9 448.691 221.393 448.691 224.474C448.691 227.554 451.185 230.048 454.265 230.048C457.346 230.048 459.839 227.554 459.839 224.474Z" fill="#A8A8A8" fill-opacity="0.7"/>
<path d="M285.73 403.623C285.73 400.543 283.236 398.049 280.156 398.049C277.076 398.049 274.582 400.543 274.582 403.623C274.582 406.703 277.076 409.197 280.156 409.197C283.236 409.197 285.73 406.703 285.73 403.623Z" fill="#A8A8A8" fill-opacity="0.7"/>
<path d="M454.267 126.832C454.267 123.752 451.773 121.258 448.693 121.258C445.613 121.258 443.119 123.752 443.119 126.832C443.119 129.912 445.613 132.406 448.693 132.406C451.773 132.406 454.267 129.912 454.267 126.832Z" fill="#A8A8A8" fill-opacity="0.7"/>
<path d="M267.097 258.456C267.097 255.376 264.604 252.882 261.523 252.882C258.443 252.882 255.949 255.376 255.949 258.456C255.949 261.536 258.443 264.03 261.523 264.03C264.604 264.079 267.097 261.536 267.097 258.456Z" fill="#A8A8A8" fill-opacity="0.7"/>
<path d="M459.839 224.474C459.839 221.393 457.346 218.9 454.265 218.9C451.185 218.9 448.691 221.393 448.691 224.474C448.691 227.554 451.185 230.048 454.265 230.048C457.346 230.048 459.839 227.554 459.839 224.474Z" fill="#A8A8A8" fill-opacity="0.7"/>
<path d="M454.267 126.832C454.267 123.752 451.773 121.258 448.693 121.258C445.613 121.258 443.119 123.752 443.119 126.832C443.119 129.912 445.613 132.406 448.693 132.406C451.773 132.406 454.267 129.912 454.267 126.832Z" fill="#A8A8A8" fill-opacity="0.7"/>
<path d="M668.665 49.4331C668.665 46.3527 666.172 43.8591 663.092 43.8591C660.011 43.8591 657.518 46.3527 657.518 49.4331C657.518 52.5134 660.011 55.007 663.092 55.007C666.172 55.007 668.665 52.5134 668.665 49.4331Z" fill="#A8A8A8" fill-opacity="0.7"/>
<path d="M459.839 224.474C459.839 221.393 457.346 218.9 454.265 218.9C451.185 218.9 448.691 221.393 448.691 224.474C448.691 227.554 451.185 230.048 454.265 230.048C457.346 230.048 459.839 227.554 459.839 224.474Z" fill="#A8A8A8" fill-opacity="0.7"/>
<path d="M620.115 376.046C620.115 372.965 617.621 370.472 614.541 370.472C611.46 370.472 608.967 372.965 608.967 376.046C608.967 379.126 611.46 381.62 614.541 381.62C617.572 381.668 620.115 379.175 620.115 376.046Z" fill="#A8A8A8" fill-opacity="0.7"/>
<path d="M908.835 817.464C908.835 814.383 906.342 811.89 903.261 811.89C900.181 811.89 897.688 814.383 897.688 817.464C897.688 820.544 900.181 823.038 903.261 823.038C906.342 823.038 908.835 820.544 908.835 817.464Z" fill="#A8A8A8" fill-opacity="0.7"/>
<path d="M1038.51 1209.74C1038.51 1206.66 1036.01 1204.17 1032.93 1204.17C1029.85 1204.17 1027.36 1206.66 1027.36 1209.74C1027.36 1212.82 1029.85 1215.32 1032.93 1215.32C1036.01 1215.32 1038.51 1212.82 1038.51 1209.74Z" fill="#A8A8A8" fill-opacity="0.7"/>
<path d="M916.609 1591.12C916.609 1588.04 914.115 1585.54 911.035 1585.54C907.955 1585.54 905.461 1588.04 905.461 1591.12C905.461 1594.2 907.955 1596.69 911.035 1596.69C914.115 1596.69 916.609 1594.2 916.609 1591.12Z" fill="#A8A8A8" fill-opacity="0.7"/>
<path d="M745.478 1593.07C745.478 1589.99 742.984 1587.5 739.904 1587.5C736.824 1587.5 734.33 1589.99 734.33 1593.07C734.33 1596.15 736.824 1598.65 739.904 1598.65C742.935 1598.7 745.478 1596.15 745.478 1593.07Z" fill="#A8A8A8" fill-opacity="0.7"/>
<path d="M1188.71 1506.53C1191.78 1506.53 1194.28 1504.04 1194.28 1500.96C1194.28 1497.88 1191.78 1495.38 1188.71 1495.38C1185.63 1495.38 1183.13 1497.88 1183.13 1500.96C1183.13 1504.04 1185.63 1506.53 1188.71 1506.53Z" fill="#A8A8A8" fill-opacity="0.7"/>
<path d="M1038.51 1209.74C1038.51 1206.66 1036.01 1204.17 1032.93 1204.17C1029.85 1204.17 1027.36 1206.66 1027.36 1209.74C1027.36 1212.82 1029.85 1215.32 1032.93 1215.32C1036.01 1215.32 1038.51 1212.82 1038.51 1209.74Z" fill="#A8A8A8" fill-opacity="0.7"/>
<path d="M937.929 1432.7C937.929 1429.62 935.436 1427.13 932.355 1427.13C929.275 1427.13 926.781 1429.62 926.781 1432.7C926.781 1435.78 929.275 1438.27 932.355 1438.27C935.436 1438.27 937.929 1435.78 937.929 1432.7Z" fill="#A8A8A8" fill-opacity="0.7"/>
<path d="M1013.28 1572.78C1013.28 1569.7 1010.78 1567.21 1007.7 1567.21C1004.62 1567.21 1002.13 1569.7 1002.13 1572.78C1002.13 1575.86 1004.62 1578.36 1007.7 1578.36C1010.78 1578.36 1013.28 1575.86 1013.28 1572.78Z" fill="#A8A8A8" fill-opacity="0.7"/>
<path d="M1188.71 1506.53C1191.78 1506.53 1194.28 1504.04 1194.28 1500.96C1194.28 1497.88 1191.78 1495.38 1188.71 1495.38C1185.63 1495.38 1183.13 1497.88 1183.13 1500.96C1183.13 1504.04 1185.63 1506.53 1188.71 1506.53Z" fill="#A8A8A8" fill-opacity="0.7"/>
<path d="M937.929 1432.7C937.929 1429.62 935.436 1427.13 932.355 1427.13C929.275 1427.13 926.781 1429.62 926.781 1432.7C926.781 1435.78 929.275 1438.27 932.355 1438.27C935.436 1438.27 937.929 1435.78 937.929 1432.7Z" fill="#A8A8A8" fill-opacity="0.7"/>
<path d="M1359.64 1381.7C1359.64 1378.62 1357.15 1376.13 1354.07 1376.13C1350.99 1376.13 1348.49 1378.62 1348.49 1381.7C1348.49 1384.78 1350.99 1387.28 1354.07 1387.28C1357.1 1387.28 1359.64 1384.78 1359.64 1381.7Z" fill="#A8A8A8" fill-opacity="0.7"/>
<path d="M1336.22 893.788C1336.22 890.708 1333.73 888.214 1330.65 888.214C1327.57 888.214 1325.07 890.708 1325.07 893.788C1325.07 896.869 1327.57 899.362 1330.65 899.362C1333.73 899.362 1336.22 896.869 1336.22 893.788Z" fill="#A8A8A8" fill-opacity="0.7"/>
<path d="M1188.71 1506.53C1191.78 1506.53 1194.28 1504.04 1194.28 1500.96C1194.28 1497.88 1191.78 1495.38 1188.71 1495.38C1185.63 1495.38 1183.13 1497.88 1183.13 1500.96C1183.13 1504.04 1185.63 1506.53 1188.71 1506.53Z" fill="#A8A8A8" fill-opacity="0.7"/>
<path d="M1359.64 1381.7C1359.64 1378.62 1357.15 1376.13 1354.07 1376.13C1350.99 1376.13 1348.49 1378.62 1348.49 1381.7C1348.49 1384.78 1350.99 1387.28 1354.07 1387.28C1357.1 1387.28 1359.64 1384.78 1359.64 1381.7Z" fill="#A8A8A8" fill-opacity="0.7"/>
<path d="M1038.51 1209.74C1038.51 1206.66 1036.01 1204.17 1032.93 1204.17C1029.85 1204.17 1027.36 1206.66 1027.36 1209.74C1027.36 1212.82 1029.85 1215.32 1032.93 1215.32C1036.01 1215.32 1038.51 1212.82 1038.51 1209.74Z" fill="#A8A8A8" fill-opacity="0.7"/>
<path d="M1498.6 1200.26C1498.6 1197.18 1496.1 1194.68 1493.02 1194.68C1489.94 1194.68 1487.45 1197.18 1487.45 1200.26C1487.45 1203.34 1489.94 1205.83 1493.02 1205.83C1496.1 1205.83 1498.6 1203.34 1498.6 1200.26Z" fill="#A8A8A8" fill-opacity="0.7"/>
<path d="M1359.64 1381.7C1359.64 1378.62 1357.15 1376.13 1354.07 1376.13C1350.99 1376.13 1348.49 1378.62 1348.49 1381.7C1348.49 1384.78 1350.99 1387.28 1354.07 1387.28C1357.1 1387.28 1359.64 1384.78 1359.64 1381.7Z" fill="#A8A8A8" fill-opacity="0.7"/>
<path d="M1513.07 967.178C1513.07 964.098 1510.58 961.604 1507.5 961.604C1504.42 961.604 1501.92 964.098 1501.92 967.178C1501.92 970.259 1504.42 972.752 1507.5 972.752C1510.58 972.801 1513.07 970.259 1513.07 967.178Z" fill="#A8A8A8" fill-opacity="0.7"/>
<path d="M1577.42 1001.94C1577.42 998.861 1574.92 996.368 1571.84 996.368C1568.76 996.368 1566.27 998.861 1566.27 1001.94C1566.27 1005.02 1568.76 1007.52 1571.84 1007.52C1574.92 1007.52 1577.42 1005.02 1577.42 1001.94Z" fill="#A8A8A8" fill-opacity="0.7"/>
<path d="M1498.6 1200.26C1498.6 1197.18 1496.1 1194.68 1493.02 1194.68C1489.94 1194.68 1487.45 1197.18 1487.45 1200.26C1487.45 1203.34 1489.94 1205.83 1493.02 1205.83C1496.1 1205.83 1498.6 1203.34 1498.6 1200.26Z" fill="#A8A8A8" fill-opacity="0.7"/>
<path d="M1598.59 778.984C1598.59 775.904 1596.09 773.41 1593.01 773.41C1589.93 773.41 1587.44 775.904 1587.44 778.984C1587.44 782.065 1589.93 784.558 1593.01 784.558C1596.05 784.558 1598.59 782.065 1598.59 778.984Z" fill="#A8A8A8" fill-opacity="0.7"/>
<path d="M1513.07 967.178C1513.07 964.098 1510.58 961.604 1507.5 961.604C1504.42 961.604 1501.92 964.098 1501.92 967.178C1501.92 970.259 1504.42 972.752 1507.5 972.752C1510.58 972.801 1513.07 970.259 1513.07 967.178Z" fill="#A8A8A8" fill-opacity="0.7"/>
<path d="M1498.6 1200.26C1498.6 1197.18 1496.1 1194.68 1493.02 1194.68C1489.94 1194.68 1487.45 1197.18 1487.45 1200.26C1487.45 1203.34 1489.94 1205.83 1493.02 1205.83C1496.1 1205.83 1498.6 1203.34 1498.6 1200.26Z" fill="#A8A8A8" fill-opacity="0.7"/>
<path d="M1336.22 893.788C1336.22 890.708 1333.73 888.214 1330.65 888.214C1327.57 888.214 1325.07 890.708 1325.07 893.788C1325.07 896.869 1327.57 899.362 1330.65 899.362C1333.73 899.362 1336.22 896.869 1336.22 893.788Z" fill="#A8A8A8" fill-opacity="0.7"/>
<path d="M1038.51 1209.74C1038.51 1206.66 1036.01 1204.17 1032.93 1204.17C1029.85 1204.17 1027.36 1206.66 1027.36 1209.74C1027.36 1212.82 1029.85 1215.32 1032.93 1215.32C1036.01 1215.32 1038.51 1212.82 1038.51 1209.74Z" fill="#A8A8A8" fill-opacity="0.7"/>
<path d="M1253.44 493.296C1253.44 490.215 1250.95 487.722 1247.87 487.722C1244.79 487.722 1242.3 490.215 1242.3 493.296C1242.3 496.376 1244.79 498.87 1247.87 498.87C1250.95 498.87 1253.44 496.376 1253.44 493.296Z" fill="#A8A8A8" fill-opacity="0.7"/>
<path d="M908.835 817.464C908.835 814.383 906.342 811.89 903.261 811.89C900.181 811.89 897.688 814.383 897.688 817.464C897.688 820.544 900.181 823.038 903.261 823.038C906.342 823.038 908.835 820.544 908.835 817.464Z" fill="#A8A8A8" fill-opacity="0.7"/>
<path d="M1336.22 893.788C1336.22 890.708 1333.73 888.214 1330.65 888.214C1327.57 888.214 1325.07 890.708 1325.07 893.788C1325.07 896.869 1327.57 899.362 1330.65 899.362C1333.73 899.362 1336.22 896.869 1336.22 893.788Z" fill="#A8A8A8" fill-opacity="0.7"/>
<path d="M1032.34 406.752C1032.34 403.671 1029.85 401.178 1026.77 401.178C1023.69 401.178 1021.19 403.671 1021.19 406.752C1021.19 409.832 1023.69 412.325 1026.77 412.325C1029.85 412.325 1032.34 409.832 1032.34 406.752Z" fill="#A8A8A8" fill-opacity="0.7"/>
<path d="M848.013 537.104C848.013 534.024 845.52 531.53 842.439 531.53C839.359 531.53 836.865 534.024 836.865 537.104C836.865 540.185 839.359 542.678 842.439 542.678C845.52 542.678 848.013 540.185 848.013 537.104Z" fill="#A8A8A8" fill-opacity="0.7"/>
<path d="M908.835 817.464C908.835 814.383 906.342 811.89 903.261 811.89C900.181 811.89 897.688 814.383 897.688 817.464C897.688 820.544 900.181 823.038 903.261 823.038C906.342 823.038 908.835 820.544 908.835 817.464Z" fill="#A8A8A8" fill-opacity="0.7"/>
<path d="M1032.34 406.752C1032.34 403.671 1029.85 401.178 1026.77 401.178C1023.69 401.178 1021.19 403.671 1021.19 406.752C1021.19 409.832 1023.69 412.325 1026.77 412.325C1029.85 412.325 1032.34 409.832 1032.34 406.752Z" fill="#A8A8A8" fill-opacity="0.7"/>
<path d="M620.115 376.046C620.115 372.965 617.621 370.472 614.541 370.472C611.46 370.472 608.967 372.965 608.967 376.046C608.967 379.126 611.46 381.62 614.541 381.62C617.572 381.668 620.115 379.175 620.115 376.046Z" fill="#A8A8A8" fill-opacity="0.7"/>
<path d="M848.013 537.104C848.013 534.024 845.52 531.53 842.439 531.53C839.359 531.53 836.865 534.024 836.865 537.104C836.865 540.185 839.359 542.678 842.439 542.678C845.52 542.678 848.013 540.185 848.013 537.104Z" fill="#A8A8A8" fill-opacity="0.7"/>
<path d="M668.665 49.4331C668.665 46.3527 666.172 43.8591 663.092 43.8591C660.011 43.8591 657.518 46.3527 657.518 49.4331C657.518 52.5134 660.011 55.007 663.092 55.007C666.172 55.007 668.665 52.5134 668.665 49.4331Z" fill="#A8A8A8" fill-opacity="0.7"/>
<path d="M620.115 376.046C620.115 372.965 617.621 370.472 614.541 370.472C611.46 370.472 608.967 372.965 608.967 376.046C608.967 379.126 611.46 381.62 614.541 381.62C617.572 381.668 620.115 379.175 620.115 376.046Z" fill="#A8A8A8" fill-opacity="0.7"/>
<path d="M893.093 130.06C893.093 126.979 890.6 124.486 887.519 124.486C884.439 124.486 881.945 126.979 881.945 130.06C881.945 133.14 884.439 135.634 887.519 135.634C890.6 135.634 893.093 133.14 893.093 130.06Z" fill="#A8A8A8" fill-opacity="0.7"/>
<path d="M920.72 42.8808C920.72 39.8005 918.227 37.3069 915.146 37.3069C912.066 37.3069 909.572 39.8005 909.572 42.8808C909.572 45.9612 912.066 48.4548 915.146 48.4548C918.227 48.4548 920.72 45.9612 920.72 42.8808Z" fill="#A8A8A8" fill-opacity="0.7"/>
<path d="M668.665 49.4331C668.665 46.3527 666.172 43.8591 663.092 43.8591C660.011 43.8591 657.518 46.3527 657.518 49.4331C657.518 52.5134 660.011 55.007 663.092 55.007C666.172 55.007 668.665 52.5134 668.665 49.4331Z" fill="#A8A8A8" fill-opacity="0.7"/>
<path d="M893.093 130.06C893.093 126.979 890.6 124.486 887.519 124.486C884.439 124.486 881.945 126.979 881.945 130.06C881.945 133.14 884.439 135.634 887.519 135.634C890.6 135.634 893.093 133.14 893.093 130.06Z" fill="#A8A8A8" fill-opacity="0.7"/>
<path d="M1032.34 406.752C1032.34 403.671 1029.85 401.178 1026.77 401.178C1023.69 401.178 1021.19 403.671 1021.19 406.752C1021.19 409.832 1023.69 412.325 1026.77 412.325C1029.85 412.325 1032.34 409.832 1032.34 406.752Z" fill="#A8A8A8" fill-opacity="0.7"/>
<path d="M1111.46 86.2998C1111.46 83.2194 1108.96 80.7258 1105.88 80.7258C1102.8 80.7258 1100.31 83.2194 1100.31 86.2998C1100.31 89.3801 1102.8 91.8737 1105.88 91.8737C1108.96 91.9226 1111.46 89.429 1111.46 86.2998Z" fill="#A8A8A8" fill-opacity="0.7"/>
<path d="M893.093 130.06C893.093 126.979 890.6 124.486 887.519 124.486C884.439 124.486 881.945 126.979 881.945 130.06C881.945 133.14 884.439 135.634 887.519 135.634C890.6 135.634 893.093 133.14 893.093 130.06Z" fill="#A8A8A8" fill-opacity="0.7"/>
<path d="M1242.84 161.254C1242.84 158.173 1240.34 155.68 1237.26 155.68C1234.18 155.68 1231.69 158.173 1231.69 161.254C1231.69 164.334 1234.18 166.828 1237.26 166.828C1240.34 166.828 1242.84 164.334 1242.84 161.254Z" fill="#A8A8A8" fill-opacity="0.7"/>
<path d="M1111.46 86.2998C1111.46 83.2194 1108.96 80.7258 1105.88 80.7258C1102.8 80.7258 1100.31 83.2194 1100.31 86.2998C1100.31 89.3801 1102.8 91.8737 1105.88 91.8737C1108.96 91.9226 1111.46 89.429 1111.46 86.2998Z" fill="#A8A8A8" fill-opacity="0.7"/>
<path d="M1216.19 222.372C1216.19 219.291 1213.69 216.798 1210.61 216.798C1207.53 216.798 1205.04 219.291 1205.04 222.372C1205.04 225.452 1207.53 227.945 1210.61 227.945C1213.69 227.945 1216.19 225.452 1216.19 222.372Z" fill="#A8A8A8" fill-opacity="0.7"/>
<path d="M1242.84 161.254C1242.84 158.173 1240.34 155.68 1237.26 155.68C1234.18 155.68 1231.69 158.173 1231.69 161.254C1231.69 164.334 1234.18 166.828 1237.26 166.828C1240.34 166.828 1242.84 164.334 1242.84 161.254Z" fill="#A8A8A8" fill-opacity="0.7"/>
<path d="M1391.67 286.57C1391.67 283.49 1389.17 280.996 1386.09 280.996C1383.01 280.996 1380.52 283.49 1380.52 286.57C1380.52 289.651 1383.01 292.144 1386.09 292.144C1389.17 292.144 1391.67 289.651 1391.67 286.57Z" fill="#A8A8A8" fill-opacity="0.7"/>
<path d="M1216.19 222.372C1216.19 219.291 1213.69 216.798 1210.61 216.798C1207.53 216.798 1205.04 219.291 1205.04 222.372C1205.04 225.452 1207.53 227.945 1210.61 227.945C1213.69 227.945 1216.19 225.452 1216.19 222.372Z" fill="#A8A8A8" fill-opacity="0.7"/>
<path d="M1032.34 406.752C1032.34 403.671 1029.85 401.178 1026.77 401.178C1023.69 401.178 1021.19 403.671 1021.19 406.752C1021.19 409.832 1023.69 412.325 1026.77 412.325C1029.85 412.325 1032.34 409.832 1032.34 406.752Z" fill="#A8A8A8" fill-opacity="0.7"/>
<path d="M1253.44 493.296C1253.44 490.215 1250.95 487.722 1247.87 487.722C1244.79 487.722 1242.3 490.215 1242.3 493.296C1242.3 496.376 1244.79 498.87 1247.87 498.87C1250.95 498.87 1253.44 496.376 1253.44 493.296Z" fill="#A8A8A8" fill-opacity="0.7"/>
<path d="M1336.22 893.788C1336.22 890.708 1333.73 888.214 1330.65 888.214C1327.57 888.214 1325.07 890.708 1325.07 893.788C1325.07 896.869 1327.57 899.362 1330.65 899.362C1333.73 899.362 1336.22 896.869 1336.22 893.788Z" fill="#A8A8A8" fill-opacity="0.7"/>
<path d="M1513.07 967.178C1513.07 964.098 1510.58 961.604 1507.5 961.604C1504.42 961.604 1501.92 964.098 1501.92 967.178C1501.92 970.259 1504.42 972.752 1507.5 972.752C1510.58 972.801 1513.07 970.259 1513.07 967.178Z" fill="#A8A8A8" fill-opacity="0.7"/>
<path d="M1515.86 465.816C1515.86 462.736 1513.37 460.242 1510.29 460.242C1507.21 460.242 1504.71 462.736 1504.71 465.816C1504.71 468.897 1507.21 471.39 1510.29 471.39C1513.32 471.39 1515.86 468.897 1515.86 465.816Z" fill="#A8A8A8" fill-opacity="0.7"/>
<path d="M1216.19 222.372C1216.19 219.291 1213.69 216.798 1210.61 216.798C1207.53 216.798 1205.04 219.291 1205.04 222.372C1205.04 225.452 1207.53 227.945 1210.61 227.945C1213.69 227.945 1216.19 225.452 1216.19 222.372Z" fill="#A8A8A8" fill-opacity="0.7"/>
<path d="M1391.67 286.57C1391.67 283.49 1389.17 280.996 1386.09 280.996C1383.01 280.996 1380.52 283.49 1380.52 286.57C1380.52 289.651 1383.01 292.144 1386.09 292.144C1389.17 292.144 1391.67 289.651 1391.67 286.57Z" fill="#A8A8A8" fill-opacity="0.7"/>
<path d="M1253.44 493.296C1253.44 490.215 1250.95 487.722 1247.87 487.722C1244.79 487.722 1242.3 490.215 1242.3 493.296C1242.3 496.376 1244.79 498.87 1247.87 498.87C1250.95 498.87 1253.44 496.376 1253.44 493.296Z" fill="#A8A8A8" fill-opacity="0.7"/>
<path d="M1515.86 465.816C1515.86 462.736 1513.37 460.242 1510.29 460.242C1507.21 460.242 1504.71 462.736 1504.71 465.816C1504.71 468.897 1507.21 471.39 1510.29 471.39C1513.32 471.39 1515.86 468.897 1515.86 465.816Z" fill="#A8A8A8" fill-opacity="0.7"/>
<path d="M1253.44 493.296C1253.44 490.215 1250.95 487.722 1247.87 487.722C1244.79 487.722 1242.3 490.215 1242.3 493.296C1242.3 496.376 1244.79 498.87 1247.87 498.87C1250.95 498.87 1253.44 496.376 1253.44 493.296Z" fill="#A8A8A8" fill-opacity="0.7"/>
<path d="M1580.1 642.423C1580.1 639.343 1577.61 636.849 1574.53 636.849C1571.45 636.849 1568.96 639.343 1568.96 642.423C1568.96 645.503 1571.45 647.997 1574.53 647.997C1577.61 647.997 1580.1 645.503 1580.1 642.423Z" fill="#A8A8A8" fill-opacity="0.7"/>
<path d="M1598.59 778.984C1598.59 775.904 1596.09 773.41 1593.01 773.41C1589.93 773.41 1587.44 775.904 1587.44 778.984C1587.44 782.065 1589.93 784.558 1593.01 784.558C1596.05 784.558 1598.59 782.065 1598.59 778.984Z" fill="#A8A8A8" fill-opacity="0.7"/>
<path d="M1336.22 893.788C1336.22 890.708 1333.73 888.214 1330.65 888.214C1327.57 888.214 1325.07 890.708 1325.07 893.788C1325.07 896.869 1327.57 899.362 1330.65 899.362C1333.73 899.362 1336.22 896.869 1336.22 893.788Z" fill="#A8A8A8" fill-opacity="0.7"/>
<path d="M1515.86 465.816C1515.86 462.736 1513.37 460.242 1510.29 460.242C1507.21 460.242 1504.71 462.736 1504.71 465.816C1504.71 468.897 1507.21 471.39 1510.29 471.39C1513.32 471.39 1515.86 468.897 1515.86 465.816Z" fill="#A8A8A8" fill-opacity="0.7"/>
<path d="M739.519 1625.1C739.47 1625.1 739.372 1625.1 739.323 1625.1L541.742 1581.68C541.693 1581.68 541.644 1581.63 541.546 1581.63C541.497 1581.63 541.448 1581.58 541.399 1581.53L234.637 1391.78C234.588 1391.73 234.539 1391.68 234.49 1391.63C234.441 1391.58 234.441 1391.53 234.392 1391.48L98.0749 1197.67C98.026 1197.62 97.9771 1197.52 97.9771 1197.47V1197.42L17.7905 975.392C17.7905 975.392 17.7905 975.392 17.7905 975.343C17.7905 975.245 17.7416 975.196 17.7416 975.099L10.9453 714.101C10.9453 714.052 10.9453 713.954 10.9453 713.905C10.9453 713.856 10.9453 713.857 10.9453 713.808L55.928 516.275C55.928 516.177 55.9769 516.079 56.0258 515.981L133.621 379.86C133.621 379.86 133.621 379.811 133.67 379.811C133.67 379.762 133.719 379.762 133.719 379.713L263.533 225.549C263.582 225.5 263.68 225.403 263.729 225.354L449.38 96.7619C449.429 96.713 449.478 96.713 449.478 96.713C449.527 96.713 449.527 96.664 449.576 96.664L560.615 53.2948C561.055 53.0993 561.544 53.2948 561.788 53.686C562.033 54.0771 561.984 54.615 561.641 54.9083L515.779 96.9574L601.441 97.4464L631.951 30.6568C632.098 30.3634 632.392 30.1189 632.734 30.0701L774.185 10.9524C774.234 10.9524 774.283 10.9035 774.332 10.9524C774.429 10.9524 774.478 10.9524 774.527 11.0013L988.977 61.9002L1004.38 33.3949C1004.62 32.9548 1005.11 32.7592 1005.6 32.9548L1211.01 114.608H1211.06C1211.1 114.657 1211.2 114.706 1211.25 114.706L1399.1 258.651C1399.15 258.7 1399.2 258.749 1399.25 258.797C1399.25 258.846 1399.3 258.846 1399.3 258.895L1522.85 430.123C1522.85 430.172 1522.9 430.172 1522.9 430.221C1522.9 430.27 1522.95 430.319 1522.95 430.367L1597.32 617.779C1597.52 618.219 1597.32 618.757 1596.88 619.002L1565.15 636.066L1579.47 705.789L1615.66 717.377C1616.05 717.524 1616.34 717.866 1616.34 718.306L1618.39 895.548C1618.39 895.596 1618.39 895.645 1618.39 895.694C1618.39 895.743 1618.39 895.743 1618.39 895.792L1585.98 1060.71C1585.93 1061.01 1585.68 1061.3 1585.39 1061.4C1585.1 1061.54 1584.75 1061.49 1584.51 1061.35L1571.11 1053.28L1526.67 1201.38C1526.67 1201.43 1526.67 1201.43 1526.62 1201.48C1526.57 1201.58 1526.52 1201.63 1526.47 1201.72L1390.79 1385.76C1390.74 1385.81 1390.69 1385.91 1390.64 1385.96C1390.64 1385.96 1390.64 1385.96 1390.6 1385.96L1188.86 1536.26C1188.56 1536.5 1188.17 1536.5 1187.83 1536.36C1187.49 1536.16 1187.29 1535.82 1187.29 1535.48L1188.51 1499L992.791 1608.43C992.547 1608.57 992.253 1608.57 992.009 1608.52L600.17 1493.38L740.154 1623.53C740.497 1623.83 740.546 1624.32 740.35 1624.71C740.252 1624.9 739.91 1625.1 739.519 1625.1ZM542.964 1579.92L736.243 1622.41L596.063 1492.01L549.173 1479L542.964 1579.92ZM601.246 1491.52L990.982 1606.03L950.644 1444.83L601.246 1491.52ZM952.6 1444.58L992.791 1605.3L1135.37 1420.18L952.6 1444.58ZM1138.15 1419.74L996.067 1604.27L1188.66 1496.6L1191.45 1412.65L1138.15 1419.74ZM445.566 1450.25L541.155 1577.96L547.267 1478.47L445.566 1450.25ZM241.482 1393.68L538.026 1577.18L442.437 1449.47L241.482 1393.68ZM1190.57 1497.78L1189.4 1533.42L1377.49 1393.29L1190.57 1497.78ZM1193.4 1412.36L1190.62 1495.48L1385.07 1386.74L1193.4 1412.36ZM550.102 1463.75L596.356 1489.96L723.237 1361.41L556.068 1366.99L550.102 1463.75ZM726.122 1361.27L599.241 1489.76L950.155 1442.87L928.055 1354.57L726.122 1361.27ZM549.32 1477.05L589.169 1488.1L550.005 1465.95L549.32 1477.05ZM443.66 1447.71L547.413 1476.51L548.147 1464.87L389.094 1374.81L443.66 1447.71ZM388.996 1372.51L548.244 1462.67L554.161 1366.99L388.996 1372.51ZM240.113 1391.24L440.579 1446.88L385.084 1372.71L240.113 1391.24ZM930.06 1354.52L952.111 1442.67L1137.08 1417.93L1192.62 1345.81L930.06 1354.52ZM1193.6 1347.72L1139.82 1417.54L1191.5 1410.65L1193.6 1347.72ZM1195.6 1345.91L1193.45 1410.36L1384.19 1384.88L1195.6 1345.91ZM214.59 1268.71L235.957 1389.82L382.591 1371.04L214.59 1268.71ZM102.329 1200.31L232.192 1384.93L188.627 1252.87L102.329 1200.31ZM1197.9 1344.4L1389.42 1383.95L1443.84 1237.61L1197.9 1344.4ZM1446.33 1236.59L1393.38 1378.92L1522.81 1203.34L1446.33 1236.59ZM191.17 1254.43L231.85 1377.69L212.39 1267.34L191.17 1254.43ZM566.042 1173.36L387.725 1370.6L554.21 1365.08L566.042 1173.36ZM370.905 1182.65L386.258 1369.33L564.869 1171.75L370.905 1182.65ZM202.22 1192.14L384.302 1369.14L368.949 1182.75L202.22 1192.14ZM214.15 1266.12L378.581 1366.25L201.437 1194.05L214.15 1266.12ZM568.096 1171.65L556.165 1364.98L725.242 1359.36L886.886 1195.61L568.096 1171.65ZM888.549 1196.74L728.078 1359.26L927.566 1352.61L888.549 1196.74ZM890.553 1196.59L929.571 1352.56L1190.72 1343.91L890.553 1196.59ZM892.118 1195.22L1193.55 1343.13L1173.55 1139.82L892.118 1195.22ZM1294.32 1116.01L1196.53 1342.83L1444.77 1235.07L1504.42 1074.65L1294.32 1116.01ZM1175.46 1139.43L1195.26 1340.88L1292.02 1116.5L1175.46 1139.43ZM190.241 1251.55L211.95 1264.75L199.188 1192.24L171.27 1193.85L190.241 1251.55ZM101.986 1197.81L187.649 1249.98L169.167 1194L101.986 1197.81ZM1505.59 1077.24L1447.31 1234.04L1524.71 1200.45L1505.59 1077.24ZM1497.67 1009.08L1506.96 1073.28L1526.08 1196.64L1569.45 1052.2L1497.67 1009.08ZM21.4087 979.841L99.4928 1196.05L168.532 1192.09L148.534 1131.51L21.4087 979.841ZM568.096 1169.7L886.74 1193.66L595.525 870.416L538.221 907.918L568.096 1169.7ZM1148.86 888.36L891.629 1193.31L1173.36 1137.87L1148.86 888.36ZM815.354 727.889L889.673 1192.53L1147.98 886.307L815.354 727.889ZM151.956 1135.52L170.585 1191.94L197.966 1190.38L151.956 1135.52ZM597.188 869.291L887.62 1191.65L813.398 727.84L597.188 869.291ZM356.139 1027.51L202.317 1190.14L368.754 1180.8L356.139 1027.51ZM150.294 1130.48L199.971 1189.79L354.917 1026L103.453 988.593L150.294 1130.48ZM358.095 1027.27L370.709 1180.7L564.282 1169.8L358.095 1027.27ZM358.681 1025.31L565.944 1168.57L536.363 909.042L358.681 1025.31ZM1150.67 887.187L1175.26 1137.48L1292.95 1114.3L1370.94 933.392L1150.67 887.187ZM21.0175 976.321L146.871 1126.48L101.302 988.251L21.0175 976.321ZM1372.8 934.076L1295.3 1113.86L1504.91 1072.59L1495.52 1007.76L1372.8 934.076ZM1571.75 1051.28L1584.36 1058.85L1612.67 914.959L1571.75 1051.28ZM1497.28 1006.54L1569.99 1050.2L1616.1 896.623L1484.28 916.621L1497.28 1006.54ZM102.769 986.491L354.379 1023.94L238.401 895.205L90.5941 949.576L102.769 986.491ZM240.406 894.472L356.188 1022.97L369.291 847.142L240.406 894.472ZM371.247 846.36L358.192 1021.84L521.108 791.256L371.247 846.36ZM523.064 791.892L360.686 1021.69L536.168 906.842L523.064 791.892ZM1375.14 933.245L1495.13 1005.27L1482.37 916.963L1375.14 933.245ZM22.5821 974.561L100.617 986.198L88.7361 950.26L22.5821 974.561ZM59.9374 862.886L20.2352 973.338L88.1005 948.402L59.9374 862.886ZM12.9989 720.555L19.4529 969.769L58.9106 859.904L12.9989 720.555ZM61.013 859.904L89.9584 947.718L236.984 893.641L102.524 744.415L61.013 859.904ZM1450.98 700.313L1373.73 931.485L1482.03 915.056L1450.98 700.313ZM1152.14 885.475L1370.65 931.289L1306.84 788.127L1152.14 885.475ZM1308.5 787.1L1372.21 929.969L1449.61 698.357L1308.5 787.1ZM1452.84 699.384L1484.03 914.763L1615.66 894.765L1452.84 699.384ZM525.069 792.185L538.026 905.718L594.254 868.949L525.069 792.185ZM103.747 742.802L238.988 892.907L369.389 844.942L387.627 599.933L103.747 742.802ZM1452.89 696.352L1615.75 891.832L1577.86 707.207L1486.87 678.115L1452.89 696.352ZM1579.96 707.891L1616.39 885.28L1614.43 718.941L1579.96 707.891ZM816.723 726.373L1148.91 884.546L1219.07 593.381L816.723 726.373ZM1220.69 594.946L1151.06 883.813L1306.01 786.318L1220.69 594.946ZM525.606 789.838L595.867 867.825L809.144 728.28L525.606 789.838ZM13.39 715.421L60.0352 856.872L100.911 743.144L13.39 715.421ZM389.485 601.057L371.394 844.209L522.184 788.762L389.485 601.057ZM391.147 600.031L524.14 788.127L810.171 726.031L391.147 600.031ZM1222.35 593.87L1307.67 785.291L1449.27 696.206L1222.35 593.87ZM12.9989 713.27L100.862 741.091L56.7592 521.066L12.9989 713.27ZM121.789 533.388L103.307 740.846L385.964 598.564L121.789 533.388ZM58.1283 517.693L101.791 735.712L119.882 532.948L58.1283 517.693ZM858.332 484.298L815.403 724.76L1217.22 591.963L858.332 484.298ZM391.098 597.977L810.904 724.222L580.808 479.604L391.098 597.977ZM582.47 478.577L813.496 724.173L856.425 483.76L665.835 426.554L582.47 478.577ZM1489.26 676.843L1577.42 705.007L1563.44 636.946L1489.26 676.843ZM1236.43 598.075L1450.2 694.494L1446.68 665.304L1236.43 598.075ZM1459.49 669.363L1452.89 694.152L1484.23 677.284L1459.49 669.363ZM1448.73 665.891L1451.76 690.876L1457.68 668.727L1448.73 665.891ZM1459.98 667.456L1486.62 675.963L1563 634.892L1521.93 434.817L1459.98 667.456ZM1448.44 663.789L1458.12 666.869L1520.51 432.519L1426.48 482.782L1448.44 663.789ZM1222.94 591.719L1446.43 663.153L1424.72 483.809L1222.94 591.719ZM1525.25 441.32L1564.81 633.963L1595.22 617.584L1525.25 441.32ZM199.873 408.561L388.36 596.51L476.859 370.472L199.873 408.561ZM121.935 531.432L385.524 596.51L197.673 409.196L128.047 462.784L121.935 531.432ZM478.717 371.108L390.707 595.924L579.439 478.186L478.717 371.108ZM858.674 482.391L1216.78 589.812L893.829 285.543L858.674 482.391ZM896.469 285.347L1219.42 589.616L1214.67 359.715L896.469 285.347ZM1331.29 386.998L1222.84 589.567L1424.48 481.706L1415.38 406.654L1331.29 386.998ZM1216.63 360.204L1221.32 588.198L1329.28 386.558L1216.63 360.204ZM59.0573 515.932L120.028 530.992L125.945 464.398L59.0573 515.932ZM133.083 384.651L60.8175 511.434L127.216 450.561L133.083 384.651ZM126.923 453.446L74.2634 501.753L126.189 461.758L126.923 453.446ZM668.035 425.185L856.767 481.804L891.825 285.543L668.035 425.185ZM1417.39 407.143L1426.29 480.729L1519.33 430.954L1417.39 407.143ZM481.602 371.303L581.15 477.11L663.342 425.82L481.602 371.303ZM129.074 451.441L128.292 460.095L195.863 408.072L182.662 402.302L129.074 451.441ZM135.283 381.718L129.318 448.556L180.657 401.471L135.283 381.718ZM1417.14 405.04L1519.77 429.047L1399.98 263.002L1417.14 405.04ZM482.384 369.494L665.542 424.451L888.011 285.64L482.384 369.494ZM264.511 327.298L200.117 406.556L475.734 368.663L327.487 269.554L264.511 327.298ZM184.227 400.884L197.232 406.556L206.914 380.104L184.227 400.884ZM1332.22 385.189L1415.09 404.551L1397.88 262.465L1332.22 385.189ZM209.994 377.268L200.704 402.742L254.634 336.393L209.994 377.268ZM136.017 379.909L182.271 400.053L208.331 376.144L261.431 230.977L136.017 379.909ZM1216.58 358.2L1330.26 384.749L1396.85 260.411L1214.77 269.163L1216.58 358.2ZM264.755 227.603L211.461 373.259L263.044 325.978L315.41 261.536L264.755 227.603ZM578.412 152.501L480.086 367.93L889.918 283.245L578.412 152.501ZM328.954 268.185L477.201 367.294L454.759 152.844L328.954 268.185ZM456.519 151.23L478.961 365.631L576.603 151.768L493.825 117.004L456.519 151.23ZM900.185 284.222L1214.62 357.711L1212.82 269.212L900.185 284.222ZM317.072 262.611L272.97 316.933L325.824 268.479L317.072 262.611ZM1128.03 160.227L897.496 282.365L1212.77 267.256L1211.2 191.03L1128.03 160.227ZM579.243 150.741L891.287 281.729L811.98 100.478L602.664 99.3043L579.243 150.741ZM969.762 101.602L895.1 281.436L1125.59 159.298L969.762 101.602ZM814.131 100.527L893.145 281.093L967.757 101.358L814.131 100.527ZM1213.16 191.763L1214.72 267.207L1393.68 258.602L1213.16 191.763ZM318.295 261.096L327.291 267.109L454.514 150.497L449.234 100.038L318.295 261.096ZM265.978 226.087L316.632 259.971L444.784 102.238L265.978 226.087ZM1213.11 189.661L1392.75 256.157L1211.59 117.395L1213.11 189.661ZM1130.33 159.004L1211.15 188.928L1209.69 117.004L1130.33 159.004ZM975.776 101.749L1127.89 158.075L1207.09 116.124L975.776 101.749ZM495.439 115.586L577.434 150.008L600.561 99.3532L513.676 98.8643L495.439 115.586ZM451.043 99.0599L456.274 148.785L491.869 116.173L451.043 99.0599ZM454.856 98.522L493.434 114.706L510.743 98.8154L454.856 98.522ZM970.789 99.4999L1199.27 113.679L989.955 64.0027L970.789 99.4999ZM990.933 62.2425L1197.76 111.332L1005.65 34.9595L990.933 62.2425ZM813.251 98.5709L964.628 99.4022L776.19 13.8372L813.251 98.5709ZM783.866 15.1084L968.784 99.1088L988 63.5626L783.866 15.1084ZM603.593 97.3975L811.149 98.522L773.696 12.9082L633.516 31.8792L603.593 97.3975ZM455.052 96.5663L512.894 96.8596L556.459 56.913L455.052 96.5663Z" fill="#3F3F3F" fill-opacity="0.65"/>
<path d="M449.912 109.376C456.447 109.376 461.745 104.079 461.745 97.544C461.745 91.0091 456.447 85.7115 449.912 85.7115C443.378 85.7115 438.08 91.0091 438.08 97.544C438.08 104.079 443.378 109.376 449.912 109.376Z" fill="#3F3F3F" fill-opacity="0.65"/>
<path d="M560.952 63.1221C565.92 63.1221 569.948 59.0942 569.948 54.1256C569.948 49.1569 565.92 45.129 560.952 45.129C555.983 45.129 551.955 49.1569 551.955 54.1256C551.955 59.0942 555.983 63.1221 560.952 63.1221Z" fill="#3F3F3F" fill-opacity="0.65"/>
<path d="M68.6863 516.372C68.6863 522.924 63.4057 528.204 56.8539 528.204C50.3021 528.204 45.0215 522.924 45.0215 516.372C45.0215 509.82 50.3021 504.54 56.8539 504.54C63.3568 504.54 68.6863 509.82 68.6863 516.372Z" fill="#3F3F3F" fill-opacity="0.65"/>
<path d="M23.6551 713.954C23.6551 720.506 18.3745 725.787 11.8227 725.787C5.27083 725.787 -0.00976562 720.506 -0.00976562 713.954C-0.00976562 707.403 5.27083 702.122 11.8227 702.122C18.3745 702.122 23.6551 707.403 23.6551 713.954Z" fill="#3F3F3F" fill-opacity="0.65"/>
<path d="M247.003 1390.9C247.003 1397.45 241.722 1402.73 235.17 1402.73C228.618 1402.73 223.338 1397.45 223.338 1390.9C223.338 1384.34 228.618 1379.06 235.17 1379.06C241.673 1379.06 247.003 1384.34 247.003 1390.9Z" fill="#3F3F3F" fill-opacity="0.65"/>
<path d="M608.38 1491.13C608.38 1497.68 603.099 1502.96 596.547 1502.96C589.995 1502.96 584.715 1497.68 584.715 1491.13C584.715 1484.58 589.995 1479.3 596.547 1479.3C603.05 1479.3 608.38 1484.63 608.38 1491.13Z" fill="#3F3F3F" fill-opacity="0.65"/>
<path d="M385.473 1383.46C392.008 1383.46 397.305 1378.17 397.305 1371.63C397.305 1365.1 392.008 1359.8 385.473 1359.8C378.938 1359.8 373.641 1365.1 373.641 1371.63C373.641 1378.17 378.938 1383.46 385.473 1383.46Z" fill="#3F3F3F" fill-opacity="0.65"/>
<path d="M1194.67 1356.57C1201.21 1356.57 1206.5 1351.27 1206.5 1344.74C1206.5 1338.2 1201.21 1332.91 1194.67 1332.91C1188.14 1332.91 1182.84 1338.2 1182.84 1344.74C1182.84 1351.27 1188.14 1356.57 1194.67 1356.57Z" fill="#3F3F3F" fill-opacity="0.65"/>
<path d="M1384.14 932.658C1384.14 939.21 1378.86 944.491 1372.3 944.491C1365.75 944.491 1360.47 939.21 1360.47 932.658C1360.47 926.106 1365.75 920.826 1372.3 920.826C1378.86 920.826 1384.14 926.155 1384.14 932.658Z" fill="#3F3F3F" fill-opacity="0.65"/>
<path d="M1161.43 885.964C1161.43 892.516 1156.15 897.797 1149.59 897.797C1143.04 897.797 1137.76 892.516 1137.76 885.964C1137.76 879.412 1143.04 874.132 1149.59 874.132C1156.1 874.132 1161.43 879.412 1161.43 885.964Z" fill="#3F3F3F" fill-opacity="0.65"/>
<path d="M1194.67 1356.57C1201.21 1356.57 1206.5 1351.27 1206.5 1344.74C1206.5 1338.2 1201.21 1332.91 1194.67 1332.91C1188.14 1332.91 1182.84 1338.2 1182.84 1344.74C1182.84 1351.27 1188.14 1356.57 1194.67 1356.57Z" fill="#3F3F3F" fill-opacity="0.65"/>
<path d="M900.915 1194.78C900.915 1201.33 895.634 1206.61 889.082 1206.61C882.531 1206.61 877.25 1201.33 877.25 1194.78C877.25 1188.23 882.531 1182.95 889.082 1182.95C895.634 1182.95 900.915 1188.28 900.915 1194.78Z" fill="#3F3F3F" fill-opacity="0.65"/>
<path d="M1517.81 1073.38C1517.81 1079.93 1512.53 1085.21 1505.98 1085.21C1499.43 1085.21 1494.15 1079.93 1494.15 1073.38C1494.15 1066.82 1499.43 1061.54 1505.98 1061.54C1512.48 1061.54 1517.81 1066.82 1517.81 1073.38Z" fill="#3F3F3F" fill-opacity="0.65"/>
<path d="M1463.2 696.058C1463.2 702.61 1457.92 707.891 1451.37 707.891C1444.82 707.891 1439.54 702.61 1439.54 696.058C1439.54 689.506 1444.82 684.226 1451.37 684.226C1457.92 684.226 1463.2 689.555 1463.2 696.058Z" fill="#3F3F3F" fill-opacity="0.65"/>
<path d="M1617.51 907.282C1624.05 907.282 1629.35 901.984 1629.35 895.449C1629.35 888.914 1624.05 883.617 1617.51 883.617C1610.98 883.617 1605.68 888.914 1605.68 895.449C1605.68 901.984 1610.98 907.282 1617.51 907.282Z" fill="#3F3F3F" fill-opacity="0.65"/>
<path d="M1384.14 932.658C1384.14 939.21 1378.86 944.491 1372.3 944.491C1365.75 944.491 1360.47 939.21 1360.47 932.658C1360.47 926.106 1365.75 920.826 1372.3 920.826C1378.86 920.826 1384.14 926.155 1384.14 932.658Z" fill="#3F3F3F" fill-opacity="0.65"/>
<path d="M1594.04 1060.42C1594.04 1065.36 1590.03 1069.37 1585.1 1069.37C1580.16 1069.37 1576.15 1065.36 1576.15 1060.42C1576.15 1055.48 1580.16 1051.47 1585.1 1051.47C1590.03 1051.42 1594.04 1055.43 1594.04 1060.42Z" fill="#3F3F3F" fill-opacity="0.65"/>
<path d="M1617.51 907.282C1624.05 907.282 1629.35 901.984 1629.35 895.449C1629.35 888.914 1624.05 883.617 1617.51 883.617C1610.98 883.617 1605.68 888.914 1605.68 895.449C1605.68 901.984 1610.98 907.282 1617.51 907.282Z" fill="#3F3F3F" fill-opacity="0.65"/>
<path d="M1525.78 1212.87C1532.32 1212.87 1537.62 1207.57 1537.62 1201.04C1537.62 1194.5 1532.32 1189.21 1525.78 1189.21C1519.25 1189.21 1513.95 1194.5 1513.95 1201.04C1513.95 1207.57 1519.25 1212.87 1525.78 1212.87Z" fill="#3F3F3F" fill-opacity="0.65"/>
<path d="M1517.81 1073.38C1517.81 1079.93 1512.53 1085.21 1505.98 1085.21C1499.43 1085.21 1494.15 1079.93 1494.15 1073.38C1494.15 1066.82 1499.43 1061.54 1505.98 1061.54C1512.48 1061.54 1517.81 1066.82 1517.81 1073.38Z" fill="#3F3F3F" fill-opacity="0.65"/>
<path d="M1401.89 1385.13C1401.89 1391.68 1396.61 1396.96 1390.05 1396.96C1383.5 1396.96 1378.22 1391.68 1378.22 1385.13C1378.22 1378.57 1383.5 1373.29 1390.05 1373.29C1396.61 1373.29 1401.89 1378.57 1401.89 1385.13Z" fill="#3F3F3F" fill-opacity="0.65"/>
<path d="M1525.79 1214.24C1533.08 1214.24 1538.99 1208.33 1538.99 1201.04C1538.99 1193.75 1533.08 1187.84 1525.79 1187.84C1518.5 1187.84 1512.58 1193.75 1512.58 1201.04C1512.58 1208.33 1518.5 1214.24 1525.79 1214.24Z" fill="#3F3F3F" fill-opacity="0.65"/>
<path d="M1194.67 1356.57C1201.21 1356.57 1206.5 1351.27 1206.5 1344.74C1206.5 1338.2 1201.21 1332.91 1194.67 1332.91C1188.14 1332.91 1182.84 1338.2 1182.84 1344.74C1182.84 1351.27 1188.14 1356.57 1194.67 1356.57Z" fill="#3F3F3F" fill-opacity="0.65"/>
<path d="M1401.89 1385.13C1401.89 1391.68 1396.61 1396.96 1390.05 1396.96C1383.5 1396.96 1378.22 1391.68 1378.22 1385.13C1378.22 1378.57 1383.5 1373.29 1390.05 1373.29C1396.61 1373.29 1401.89 1378.57 1401.89 1385.13Z" fill="#3F3F3F" fill-opacity="0.65"/>
<path d="M1202.49 1535.38C1202.49 1543.2 1196.14 1549.56 1188.32 1549.56C1180.49 1549.56 1174.14 1543.2 1174.14 1535.38C1174.14 1527.56 1180.49 1521.2 1188.32 1521.2C1196.14 1521.25 1202.49 1527.56 1202.49 1535.38Z" fill="#3F3F3F" fill-opacity="0.65"/>
<path d="M1194.67 1362.73C1204.61 1362.73 1212.67 1354.68 1212.67 1344.74C1212.67 1334.8 1204.61 1326.75 1194.67 1326.75C1184.74 1326.75 1176.68 1334.8 1176.68 1344.74C1176.68 1354.68 1184.74 1362.73 1194.67 1362.73Z" fill="#3F3F3F" fill-opacity="0.65"/>
<path d="M1004.18 1607.45C1004.18 1614 998.9 1619.28 992.348 1619.28C985.796 1619.28 980.516 1614 980.516 1607.45C980.516 1600.9 985.796 1595.62 992.348 1595.62C998.9 1595.62 1004.18 1600.95 1004.18 1607.45Z" fill="#3F3F3F" fill-opacity="0.65"/>
<path d="M1401.89 1385.13C1401.89 1391.68 1396.61 1396.96 1390.05 1396.96C1383.5 1396.96 1378.22 1391.68 1378.22 1385.13C1378.22 1378.57 1383.5 1373.29 1390.05 1373.29C1396.61 1373.29 1401.89 1378.57 1401.89 1385.13Z" fill="#3F3F3F" fill-opacity="0.65"/>
<path d="M608.38 1491.13C608.38 1497.68 603.099 1502.96 596.547 1502.96C589.995 1502.96 584.715 1497.68 584.715 1491.13C584.715 1484.58 589.995 1479.3 596.547 1479.3C603.05 1479.3 608.38 1484.63 608.38 1491.13Z" fill="#3F3F3F" fill-opacity="0.65"/>
<path d="M900.915 1194.78C900.915 1201.33 895.634 1206.61 889.082 1206.61C882.531 1206.61 877.25 1201.33 877.25 1194.78C877.25 1188.23 882.531 1182.95 889.082 1182.95C895.634 1182.95 900.915 1188.28 900.915 1194.78Z" fill="#3F3F3F" fill-opacity="0.65"/>
<path d="M1004.18 1607.45C1004.18 1614 998.9 1619.28 992.348 1619.28C985.796 1619.28 980.516 1614 980.516 1607.45C980.516 1600.9 985.796 1595.62 992.348 1595.62C998.9 1595.62 1004.18 1600.95 1004.18 1607.45Z" fill="#3F3F3F" fill-opacity="0.65"/>
<path d="M616.546 1491.13C616.546 1502.18 607.599 1511.13 596.549 1511.13C585.498 1511.13 576.551 1502.18 576.551 1491.13C576.551 1480.08 585.498 1471.13 596.549 1471.13C607.599 1471.13 616.546 1480.13 616.546 1491.13Z" fill="#3F3F3F" fill-opacity="0.65"/>
<path d="M751.348 1624.12C751.348 1630.67 746.068 1635.95 739.516 1635.95C732.964 1635.95 727.684 1630.67 727.684 1624.12C727.684 1617.57 732.964 1612.29 739.516 1612.29C746.068 1612.29 751.348 1617.57 751.348 1624.12Z" fill="#3F3F3F" fill-opacity="0.65"/>
<path d="M553.766 1580.7C553.766 1587.26 548.486 1592.54 541.934 1592.54C535.382 1592.54 530.102 1587.26 530.102 1580.7C530.102 1574.15 535.382 1568.87 541.934 1568.87C548.437 1568.87 553.766 1574.15 553.766 1580.7Z" fill="#3F3F3F" fill-opacity="0.65"/>
<path d="M579.044 1170.63C579.044 1177.18 573.763 1182.46 567.211 1182.46C560.659 1182.46 555.379 1177.18 555.379 1170.63C555.379 1164.07 560.659 1158.79 567.211 1158.79C573.714 1158.79 579.044 1164.07 579.044 1170.63Z" fill="#3F3F3F" fill-opacity="0.65"/>
<path d="M900.915 1194.78C900.915 1201.33 895.634 1206.61 889.082 1206.61C882.531 1206.61 877.25 1201.33 877.25 1194.78C877.25 1188.23 882.531 1182.95 889.082 1182.95C895.634 1182.95 900.915 1188.28 900.915 1194.78Z" fill="#3F3F3F" fill-opacity="0.65"/>
<path d="M1161.43 885.964C1161.43 892.516 1156.15 897.797 1149.59 897.797C1143.04 897.797 1137.76 892.516 1137.76 885.964C1137.76 879.412 1143.04 874.132 1149.59 874.132C1156.1 874.132 1161.43 879.412 1161.43 885.964Z" fill="#3F3F3F" fill-opacity="0.65"/>
<path d="M1463.2 696.058C1463.2 702.61 1457.92 707.891 1451.37 707.891C1444.82 707.891 1439.54 702.61 1439.54 696.058C1439.54 689.506 1444.82 684.226 1451.37 684.226C1457.92 684.226 1463.2 689.555 1463.2 696.058Z" fill="#3F3F3F" fill-opacity="0.65"/>
<path d="M1388.24 932.658C1388.24 941.459 1381.11 948.549 1372.35 948.549C1363.55 948.549 1356.46 941.41 1356.46 932.658C1356.46 923.857 1363.6 916.767 1372.35 916.767C1381.11 916.767 1388.24 923.857 1388.24 932.658Z" fill="#3F3F3F" fill-opacity="0.65"/>
<path d="M1232.27 591.913C1232.27 598.465 1226.99 603.746 1220.44 603.746C1213.89 603.746 1208.61 598.465 1208.61 591.913C1208.61 585.362 1213.89 580.081 1220.44 580.081C1226.94 580.081 1232.27 585.411 1232.27 591.913Z" fill="#3F3F3F" fill-opacity="0.65"/>
<path d="M1168.42 885.964C1168.42 896.379 1159.96 904.837 1149.54 904.837C1139.13 904.837 1130.67 896.379 1130.67 885.964C1130.67 875.55 1139.13 867.091 1149.54 867.091C1160.01 867.091 1168.42 875.55 1168.42 885.964Z" fill="#3F3F3F" fill-opacity="0.65"/>
<path d="M825.962 726.227C825.962 732.779 820.681 738.059 814.129 738.059C807.577 738.059 802.297 732.779 802.297 726.227C802.297 719.675 807.577 714.395 814.129 714.395C820.632 714.395 825.962 719.675 825.962 726.227Z" fill="#3F3F3F" fill-opacity="0.65"/>
<path d="M907.664 1194.78C907.664 1205.05 899.352 1213.36 889.084 1213.36C878.816 1213.36 870.504 1205.05 870.504 1194.78C870.504 1184.51 878.816 1176.2 889.084 1176.2C899.352 1176.2 907.664 1184.51 907.664 1194.78Z" fill="#3F3F3F" fill-opacity="0.65"/>
<path d="M523.746 801.083C530.281 801.083 535.579 795.786 535.579 789.251C535.579 782.716 530.281 777.418 523.746 777.418C517.212 777.418 511.914 782.716 511.914 789.251C511.914 795.786 517.212 801.083 523.746 801.083Z" fill="#3F3F3F" fill-opacity="0.65"/>
<path d="M579.044 1170.63C579.044 1177.18 573.763 1182.46 567.211 1182.46C560.659 1182.46 555.379 1177.18 555.379 1170.63C555.379 1164.07 560.659 1158.79 567.211 1158.79C573.714 1158.79 579.044 1164.07 579.044 1170.63Z" fill="#3F3F3F" fill-opacity="0.65"/>
<path d="M385.473 1383.46C392.008 1383.46 397.305 1378.17 397.305 1371.63C397.305 1365.1 392.008 1359.8 385.473 1359.8C378.938 1359.8 373.641 1365.1 373.641 1371.63C373.641 1378.17 378.938 1383.46 385.473 1383.46Z" fill="#3F3F3F" fill-opacity="0.65"/>
<path d="M556.406 1580.7C556.406 1588.72 549.903 1595.17 541.934 1595.17C533.915 1595.17 527.461 1588.67 527.461 1580.7C527.461 1572.68 533.964 1566.23 541.934 1566.23C549.903 1566.18 556.406 1572.68 556.406 1580.7Z" fill="#3F3F3F" fill-opacity="0.65"/>
<path d="M247.003 1390.9C247.003 1397.45 241.722 1402.73 235.17 1402.73C228.618 1402.73 223.338 1397.45 223.338 1390.9C223.338 1384.34 228.618 1379.06 235.17 1379.06C241.673 1379.06 247.003 1384.34 247.003 1390.9Z" fill="#3F3F3F" fill-opacity="0.65"/>
<path d="M385.473 1383.46C392.008 1383.46 397.305 1378.17 397.305 1371.63C397.305 1365.1 392.008 1359.8 385.473 1359.8C378.938 1359.8 373.641 1365.1 373.641 1371.63C373.641 1378.17 378.938 1383.46 385.473 1383.46Z" fill="#3F3F3F" fill-opacity="0.65"/>
<path d="M368.798 1025.31C368.798 1031.86 363.517 1037.15 356.965 1037.15C350.413 1037.15 345.133 1031.86 345.133 1025.31C345.133 1018.76 350.413 1013.48 356.965 1013.48C363.468 1013.48 368.798 1018.76 368.798 1025.31Z" fill="#3F3F3F" fill-opacity="0.65"/>
<path d="M579.044 1170.63C579.044 1177.18 573.763 1182.46 567.211 1182.46C560.659 1182.46 555.379 1177.18 555.379 1170.63C555.379 1164.07 560.659 1158.79 567.211 1158.79C573.714 1158.79 579.044 1164.07 579.044 1170.63Z" fill="#3F3F3F" fill-opacity="0.65"/>
<path d="M211.804 1191.26C211.804 1197.81 206.523 1203.09 199.971 1203.09C193.419 1203.09 188.139 1197.81 188.139 1191.26C188.139 1184.71 193.419 1179.43 199.971 1179.43C206.474 1179.43 211.804 1184.71 211.804 1191.26Z" fill="#3F3F3F" fill-opacity="0.65"/>
<path d="M385.473 1383.46C392.008 1383.46 397.305 1378.17 397.305 1371.63C397.305 1365.1 392.008 1359.8 385.473 1359.8C378.938 1359.8 373.641 1365.1 373.641 1371.63C373.641 1378.17 378.938 1383.46 385.473 1383.46Z" fill="#3F3F3F" fill-opacity="0.65"/>
<path d="M110.638 1197.03C110.638 1203.58 105.357 1208.86 98.8051 1208.86C92.2533 1208.86 86.9727 1203.58 86.9727 1197.03C86.9727 1190.48 92.2533 1185.2 98.8051 1185.2C105.357 1185.2 110.638 1190.48 110.638 1197.03Z" fill="#3F3F3F" fill-opacity="0.65"/>
<path d="M247.003 1390.9C247.003 1397.45 241.722 1402.73 235.17 1402.73C228.618 1402.73 223.338 1397.45 223.338 1390.9C223.338 1384.34 228.618 1379.06 235.17 1379.06C241.673 1379.06 247.003 1384.34 247.003 1390.9Z" fill="#3F3F3F" fill-opacity="0.65"/>
<path d="M211.804 1191.26C211.804 1197.81 206.523 1203.09 199.971 1203.09C193.419 1203.09 188.139 1197.81 188.139 1191.26C188.139 1184.71 193.419 1179.43 199.971 1179.43C206.474 1179.43 211.804 1184.71 211.804 1191.26Z" fill="#3F3F3F" fill-opacity="0.65"/>
<path d="M110.638 1197.03C110.638 1203.58 105.357 1208.86 98.8051 1208.86C92.2533 1208.86 86.9727 1203.58 86.9727 1197.03C86.9727 1190.48 92.2533 1185.2 98.8051 1185.2C105.357 1185.2 110.638 1190.48 110.638 1197.03Z" fill="#3F3F3F" fill-opacity="0.65"/>
<path d="M30.45 974.952C30.45 981.503 25.1694 986.784 18.6176 986.784C12.0657 986.784 6.78516 981.503 6.78516 974.952C6.78516 968.4 12.0657 963.119 18.6176 963.119C25.1694 963.119 30.45 968.449 30.45 974.952Z" fill="#3F3F3F" fill-opacity="0.65"/>
<path d="M215.417 1191.26C215.417 1199.82 208.474 1206.76 199.917 1206.76C191.361 1206.76 184.418 1199.82 184.418 1191.26C184.418 1182.7 191.361 1175.76 199.917 1175.76C208.523 1175.76 215.417 1182.7 215.417 1191.26Z" fill="#3F3F3F" fill-opacity="0.65"/>
<path d="M368.798 1025.31C368.798 1031.86 363.517 1037.15 356.965 1037.15C350.413 1037.15 345.133 1031.86 345.133 1025.31C345.133 1018.76 350.413 1013.48 356.965 1013.48C363.468 1013.48 368.798 1018.76 368.798 1025.31Z" fill="#3F3F3F" fill-opacity="0.65"/>
<path d="M825.962 726.227C825.962 732.779 820.681 738.059 814.129 738.059C807.577 738.059 802.297 732.779 802.297 726.227C802.297 719.675 807.577 714.395 814.129 714.395C820.632 714.395 825.962 719.675 825.962 726.227Z" fill="#3F3F3F" fill-opacity="0.65"/>
<path d="M1232.27 591.913C1232.27 598.465 1226.99 603.746 1220.44 603.746C1213.89 603.746 1208.61 598.465 1208.61 591.913C1208.61 585.362 1213.89 580.081 1220.44 580.081C1226.94 580.081 1232.27 585.411 1232.27 591.913Z" fill="#3F3F3F" fill-opacity="0.65"/>
<path d="M1622.69 718.159C1622.69 722.168 1619.47 725.395 1615.46 725.395C1611.45 725.395 1608.22 722.168 1608.22 718.159C1608.22 714.149 1611.45 710.922 1615.46 710.922C1619.47 710.922 1622.69 714.149 1622.69 718.159Z" fill="#3F3F3F" fill-opacity="0.65"/>
<path d="M1617.51 907.282C1624.05 907.282 1629.35 901.984 1629.35 895.449C1629.35 888.914 1624.05 883.617 1617.51 883.617C1610.98 883.617 1605.68 888.914 1605.68 895.449C1605.68 901.984 1610.98 907.282 1617.51 907.282Z" fill="#3F3F3F" fill-opacity="0.65"/>
<path d="M1533.9 430.611C1533.9 437.163 1528.62 442.444 1522.07 442.444C1515.52 442.444 1510.24 437.163 1510.24 430.611C1510.24 424.059 1515.52 418.779 1522.07 418.779C1528.62 418.779 1533.9 424.059 1533.9 430.611Z" fill="#3F3F3F" fill-opacity="0.65"/>
<path d="M1232.27 591.913C1232.27 598.465 1226.99 603.746 1220.44 603.746C1213.89 603.746 1208.61 598.465 1208.61 591.913C1208.61 585.362 1213.89 580.081 1220.44 580.081C1226.94 580.081 1232.27 585.411 1232.27 591.913Z" fill="#3F3F3F" fill-opacity="0.65"/>
<path d="M1463.2 696.058C1463.2 702.61 1457.92 707.891 1451.37 707.891C1444.82 707.891 1439.54 702.61 1439.54 696.058C1439.54 689.506 1444.82 684.226 1451.37 684.226C1457.92 684.226 1463.2 689.555 1463.2 696.058Z" fill="#3F3F3F" fill-opacity="0.65"/>
<path d="M1608.32 618.023C1608.32 624.575 1603.03 629.856 1596.48 629.856C1589.93 629.856 1584.65 624.575 1584.65 618.023C1584.65 611.471 1589.93 606.191 1596.48 606.191C1602.99 606.191 1608.32 611.52 1608.32 618.023Z" fill="#3F3F3F" fill-opacity="0.65"/>
<path d="M1533.9 430.611C1533.9 437.163 1528.62 442.444 1522.07 442.444C1515.52 442.444 1510.24 437.163 1510.24 430.611C1510.24 424.059 1515.52 418.779 1522.07 418.779C1528.62 418.779 1533.9 424.059 1533.9 430.611Z" fill="#3F3F3F" fill-opacity="0.65"/>
<path d="M1463.2 696.058C1463.2 702.61 1457.92 707.891 1451.37 707.891C1444.82 707.891 1439.54 702.61 1439.54 696.058C1439.54 689.506 1444.82 684.226 1451.37 684.226C1457.92 684.226 1463.2 689.555 1463.2 696.058Z" fill="#3F3F3F" fill-opacity="0.65"/>
<path d="M904.973 283.587C904.973 290.139 899.693 295.419 893.141 295.419C886.589 295.419 881.309 290.139 881.309 283.587C881.309 277.035 886.589 271.755 893.141 271.755C899.693 271.755 904.973 277.035 904.973 283.587Z" fill="#3F3F3F" fill-opacity="0.65"/>
<path d="M1533.9 430.611C1533.9 437.163 1528.62 442.444 1522.07 442.444C1515.52 442.444 1510.24 437.163 1510.24 430.611C1510.24 424.059 1515.52 418.779 1522.07 418.779C1528.62 418.779 1533.9 424.059 1533.9 430.611Z" fill="#3F3F3F" fill-opacity="0.65"/>
<path d="M1232.27 591.913C1232.27 598.465 1226.99 603.746 1220.44 603.746C1213.89 603.746 1208.61 598.465 1208.61 591.913C1208.61 585.362 1213.89 580.081 1220.44 580.081C1226.94 580.081 1232.27 585.411 1232.27 591.913Z" fill="#3F3F3F" fill-opacity="0.65"/>
<path d="M1222.44 115.341C1222.44 121.893 1217.16 127.174 1210.61 127.174C1204.06 127.174 1198.78 121.893 1198.78 115.341C1198.78 108.789 1204.06 103.509 1210.61 103.509C1217.16 103.509 1222.44 108.838 1222.44 115.341Z" fill="#3F3F3F" fill-opacity="0.65"/>
<path d="M1407.9 259.335C1407.9 264.518 1403.7 268.674 1398.56 268.674C1393.38 268.674 1389.22 264.469 1389.22 259.335C1389.22 254.201 1393.43 249.996 1398.56 249.996C1403.7 249.947 1407.9 254.152 1407.9 259.335Z" fill="#3F3F3F" fill-opacity="0.65"/>
<path d="M969.219 112.213C975.754 112.213 981.052 106.915 981.052 100.38C981.052 93.8454 975.754 88.5479 969.219 88.5479C962.684 88.5479 957.387 93.8454 957.387 100.38C957.387 106.915 962.684 112.213 969.219 112.213Z" fill="#3F3F3F" fill-opacity="0.65"/>
<path d="M1017.04 33.7367C1017.04 40.2886 1011.76 45.5691 1005.21 45.5691C998.656 45.5691 993.375 40.2886 993.375 33.7367C993.375 27.1849 998.656 21.9043 1005.21 21.9043C1011.76 21.9043 1017.04 27.1849 1017.04 33.7367Z" fill="#3F3F3F" fill-opacity="0.65"/>
<path d="M1128.22 166.387C1132.17 166.387 1135.36 163.191 1135.36 159.249C1135.36 155.306 1132.17 152.11 1128.22 152.11C1124.28 152.11 1121.09 155.306 1121.09 159.249C1121.09 163.191 1124.28 166.387 1128.22 166.387Z" fill="#3F3F3F" fill-opacity="0.65"/>
<path d="M1219.27 190.54C1219.27 194.354 1216.19 197.386 1212.42 197.386C1208.61 197.386 1205.58 194.305 1205.58 190.54C1205.58 186.727 1208.66 183.695 1212.42 183.695C1216.19 183.646 1219.27 186.727 1219.27 190.54Z" fill="#3F3F3F" fill-opacity="0.65"/>
<path d="M1214.57 365.484C1218.35 365.484 1221.42 362.42 1221.42 358.639C1221.42 354.859 1218.35 351.794 1214.57 351.794C1210.79 351.794 1207.73 354.859 1207.73 358.639C1207.73 362.42 1210.79 365.484 1214.57 365.484Z" fill="#3F3F3F" fill-opacity="0.65"/>
<path d="M1213.98 274.346C1217.76 274.346 1220.83 271.281 1220.83 267.501C1220.83 263.72 1217.76 260.655 1213.98 260.655C1210.2 260.655 1207.14 263.72 1207.14 267.501C1207.14 271.281 1210.2 274.346 1213.98 274.346Z" fill="#3F3F3F" fill-opacity="0.65"/>
<path d="M1329.97 392.865C1333.75 392.865 1336.81 389.801 1336.81 386.02C1336.81 382.24 1333.75 379.175 1329.97 379.175C1326.18 379.175 1323.12 382.24 1323.12 386.02C1323.12 389.801 1326.18 392.865 1329.97 392.865Z" fill="#3F3F3F" fill-opacity="0.65"/>
<path d="M1415.77 412.081C1419.55 412.081 1422.62 409.016 1422.62 405.235C1422.62 401.455 1419.55 398.39 1415.77 398.39C1411.99 398.39 1408.93 401.455 1408.93 405.235C1408.93 409.016 1411.99 412.081 1415.77 412.081Z" fill="#3F3F3F" fill-opacity="0.65"/>
<path d="M1432.99 482.195C1432.99 486.009 1429.9 489.04 1426.14 489.04C1422.38 489.04 1419.29 485.96 1419.29 482.195C1419.29 478.381 1422.38 475.35 1426.14 475.35C1429.9 475.35 1432.99 478.381 1432.99 482.195Z" fill="#3F3F3F" fill-opacity="0.65"/>
<path d="M1447.31 670.34C1451.09 670.34 1454.16 667.276 1454.16 663.495C1454.16 659.715 1451.09 656.65 1447.31 656.65C1443.53 656.65 1440.47 659.715 1440.47 663.495C1440.47 667.276 1443.53 670.34 1447.31 670.34Z" fill="#3F3F3F" fill-opacity="0.65"/>
<path d="M1494.1 677.331C1494.1 681.145 1491.02 684.177 1487.26 684.177C1483.44 684.177 1480.41 681.096 1480.41 677.331C1480.41 673.567 1483.49 670.486 1487.26 670.486C1491.02 670.486 1494.1 673.518 1494.1 677.331Z" fill="#3F3F3F" fill-opacity="0.65"/>
<path d="M1307.96 792.576C1311.74 792.576 1314.81 789.511 1314.81 785.731C1314.81 781.95 1311.74 778.886 1307.96 778.886C1304.18 778.886 1301.12 781.95 1301.12 785.731C1301.12 789.511 1304.18 792.576 1307.96 792.576Z" fill="#3F3F3F" fill-opacity="0.65"/>
<path d="M1483.15 922.928C1486.93 922.928 1490 919.863 1490 916.083C1490 912.302 1486.93 909.238 1483.15 909.238C1479.37 909.238 1476.31 912.302 1476.31 916.083C1476.31 919.863 1479.37 922.928 1483.15 922.928Z" fill="#3F3F3F" fill-opacity="0.65"/>
<path d="M1503.05 1007.37C1503.05 1011.18 1499.97 1014.21 1496.21 1014.21C1492.44 1014.21 1489.36 1011.13 1489.36 1007.37C1489.36 1003.6 1492.44 1000.52 1496.21 1000.52C1499.97 1000.52 1503.05 1003.55 1503.05 1007.37Z" fill="#3F3F3F" fill-opacity="0.65"/>
<path d="M1294.91 1120.95C1298.69 1120.95 1301.75 1117.88 1301.75 1114.1C1301.75 1110.32 1298.69 1107.26 1294.91 1107.26C1291.13 1107.26 1288.06 1110.32 1288.06 1114.1C1288.06 1117.88 1291.13 1120.95 1294.91 1120.95Z" fill="#3F3F3F" fill-opacity="0.65"/>
<path d="M1175.12 1147.06C1178.9 1147.06 1181.96 1143.99 1181.96 1140.21C1181.96 1136.43 1178.9 1133.37 1175.12 1133.37C1171.34 1133.37 1168.27 1136.43 1168.27 1140.21C1168.27 1143.99 1171.34 1147.06 1175.12 1147.06Z" fill="#3F3F3F" fill-opacity="0.65"/>
<path d="M951.814 1451.82C955.594 1451.82 958.659 1448.75 958.659 1444.97C958.659 1441.19 955.594 1438.13 951.814 1438.13C948.033 1438.13 944.969 1441.19 944.969 1444.97C944.969 1448.75 948.033 1451.82 951.814 1451.82Z" fill="#3F3F3F" fill-opacity="0.65"/>
<path d="M928.201 1360.53C931.981 1360.53 935.046 1357.47 935.046 1353.69C935.046 1349.91 931.981 1346.84 928.201 1346.84C924.42 1346.84 921.355 1349.91 921.355 1353.69C921.355 1357.47 924.42 1360.53 928.201 1360.53Z" fill="#3F3F3F" fill-opacity="0.65"/>
<path d="M725.29 1367.87C729.071 1367.87 732.136 1364.8 732.136 1361.02C732.136 1357.24 729.071 1354.18 725.29 1354.18C721.51 1354.18 718.445 1357.24 718.445 1361.02C718.445 1364.8 721.51 1367.87 725.29 1367.87Z" fill="#3F3F3F" fill-opacity="0.65"/>
<path d="M554.503 1478.37C554.503 1482.18 551.423 1485.21 547.658 1485.21C543.893 1485.21 540.812 1482.13 540.812 1478.37C540.812 1474.55 543.893 1471.52 547.658 1471.52C551.423 1471.52 554.503 1474.6 554.503 1478.37Z" fill="#3F3F3F" fill-opacity="0.65"/>
<path d="M443.312 1455.88C447.093 1455.88 450.157 1452.81 450.157 1449.03C450.157 1445.25 447.093 1442.19 443.312 1442.19C439.532 1442.19 436.467 1445.25 436.467 1449.03C436.467 1452.81 439.532 1455.88 443.312 1455.88Z" fill="#3F3F3F" fill-opacity="0.65"/>
<path d="M555.769 1373.59C559.55 1373.59 562.614 1370.52 562.614 1366.74C562.614 1362.96 559.55 1359.9 555.769 1359.9C551.989 1359.9 548.924 1362.96 548.924 1366.74C548.924 1370.52 551.989 1373.59 555.769 1373.59Z" fill="#3F3F3F" fill-opacity="0.65"/>
<path d="M215.955 1272.52C219.735 1272.52 222.8 1269.46 222.8 1265.68C222.8 1261.9 219.735 1258.83 215.955 1258.83C212.174 1258.83 209.109 1261.9 209.109 1265.68C209.109 1269.46 212.174 1272.52 215.955 1272.52Z" fill="#3F3F3F" fill-opacity="0.65"/>
<path d="M189.062 1259.52C192.843 1259.52 195.907 1256.45 195.907 1252.67C195.907 1248.89 192.843 1245.83 189.062 1245.83C185.282 1245.83 182.217 1248.89 182.217 1252.67C182.217 1256.45 185.282 1259.52 189.062 1259.52Z" fill="#3F3F3F" fill-opacity="0.65"/>
<path d="M169.505 1200.01C173.286 1200.01 176.351 1196.95 176.351 1193.17C176.351 1189.39 173.286 1186.32 169.505 1186.32C165.725 1186.32 162.66 1189.39 162.66 1193.17C162.66 1196.95 165.725 1200.01 169.505 1200.01Z" fill="#3F3F3F" fill-opacity="0.65"/>
<path d="M156.013 1132.88C156.013 1136.69 152.932 1139.72 149.167 1139.72C145.354 1139.72 142.322 1136.64 142.322 1132.88C142.322 1129.07 145.403 1126.03 149.167 1126.03C152.932 1125.99 156.013 1129.07 156.013 1132.88Z" fill="#3F3F3F" fill-opacity="0.65"/>
<path d="M101.888 994.655C105.669 994.655 108.733 991.591 108.733 987.81C108.733 984.03 105.669 980.965 101.888 980.965C98.1077 980.965 95.043 984.03 95.043 987.81C95.043 991.591 98.1077 994.655 101.888 994.655Z" fill="#3F3F3F" fill-opacity="0.65"/>
<path d="M89.6655 954.709C93.446 954.709 96.5107 951.644 96.5107 947.864C96.5107 944.083 93.446 941.019 89.6655 941.019C85.885 941.019 82.8203 944.083 82.8203 947.864C82.8203 951.644 85.885 954.709 89.6655 954.709Z" fill="#3F3F3F" fill-opacity="0.65"/>
<path d="M376.038 1181.77C376.038 1185.59 372.958 1188.62 369.193 1188.62C365.428 1188.62 362.348 1185.54 362.348 1181.77C362.348 1177.96 365.428 1174.93 369.193 1174.93C372.958 1174.93 376.038 1177.96 376.038 1181.77Z" fill="#3F3F3F" fill-opacity="0.65"/>
<path d="M238.792 900.926C242.573 900.926 245.638 897.861 245.638 894.08C245.638 890.3 242.573 887.235 238.792 887.235C235.012 887.235 231.947 890.3 231.947 894.08C231.947 897.861 235.012 900.926 238.792 900.926Z" fill="#3F3F3F" fill-opacity="0.65"/>
<path d="M68.0029 858.24C68.0029 862.054 64.9226 865.085 61.1577 865.085C57.344 865.085 54.3125 862.005 54.3125 858.24C54.3125 854.475 57.3928 851.395 61.1577 851.395C64.9226 851.395 68.0029 854.426 68.0029 858.24Z" fill="#3F3F3F" fill-opacity="0.65"/>
<path d="M122.175 540.134C125.956 540.134 129.02 537.07 129.02 533.289C129.02 529.509 125.956 526.444 122.175 526.444C118.395 526.444 115.33 529.509 115.33 533.289C115.33 537.07 118.395 540.134 122.175 540.134Z" fill="#3F3F3F" fill-opacity="0.65"/>
<path d="M265.683 332.138C269.464 332.138 272.528 329.073 272.528 325.293C272.528 321.512 269.464 318.448 265.683 318.448C261.903 318.448 258.838 321.512 258.838 325.293C258.838 329.073 261.903 332.138 265.683 332.138Z" fill="#3F3F3F" fill-opacity="0.65"/>
<path d="M134.843 450.804C134.843 454.618 131.762 457.65 127.998 457.65C124.184 457.65 121.152 454.569 121.152 450.804C121.152 447.04 124.233 443.959 127.998 443.959C131.762 443.91 134.843 446.991 134.843 450.804Z" fill="#3F3F3F" fill-opacity="0.65"/>
<path d="M326.8 275.91C330.581 275.91 333.645 272.845 333.645 269.064C333.645 265.284 330.581 262.219 326.8 262.219C323.02 262.219 319.955 265.284 319.955 269.064C319.955 272.845 323.02 275.91 326.8 275.91Z" fill="#3F3F3F" fill-opacity="0.65"/>
<path d="M216.302 377.463C216.302 381.277 213.221 384.309 209.457 384.309C205.643 384.309 202.611 381.228 202.611 377.463C202.611 373.698 205.692 370.618 209.457 370.618C213.27 370.569 216.302 373.65 216.302 377.463Z" fill="#3F3F3F" fill-opacity="0.65"/>
<path d="M584.669 151.23C584.669 155.044 581.589 158.075 577.824 158.075C574.059 158.075 570.979 154.995 570.979 151.23C570.979 147.416 574.059 144.385 577.824 144.385C581.589 144.385 584.669 147.465 584.669 151.23Z" fill="#3F3F3F" fill-opacity="0.65"/>
<path d="M609.116 97.9344C609.116 101.748 606.036 104.78 602.271 104.78C598.506 104.78 595.426 101.699 595.426 97.9344C595.426 94.1696 598.506 91.0892 602.271 91.0892C606.036 91.0892 609.116 94.1207 609.116 97.9344Z" fill="#3F3F3F" fill-opacity="0.65"/>
<path d="M493.873 124.337C497.653 124.337 500.718 121.273 500.718 117.492C500.718 113.712 497.653 110.647 493.873 110.647C490.092 110.647 487.027 113.712 487.027 117.492C487.027 121.273 490.092 124.337 493.873 124.337Z" fill="#3F3F3F" fill-opacity="0.65"/>
<path d="M456.371 158.563C460.151 158.563 463.216 155.499 463.216 151.718C463.216 147.938 460.151 144.873 456.371 144.873C452.59 144.873 449.525 147.938 449.525 151.718C449.525 155.499 452.59 158.563 456.371 158.563Z" fill="#3F3F3F" fill-opacity="0.65"/>
<path d="M515.044 103.949C518.825 103.949 521.89 100.884 521.89 97.1036C521.89 93.3231 518.825 90.2584 515.044 90.2584C511.264 90.2584 508.199 93.3231 508.199 97.1036C508.199 100.884 511.264 103.949 515.044 103.949Z" fill="#3F3F3F" fill-opacity="0.65"/>
<path d="M819.362 98.7665C819.362 102.58 816.282 105.612 812.517 105.612C808.752 105.612 805.672 102.531 805.672 98.7665C805.672 94.9527 808.752 91.9213 812.517 91.9213C816.282 91.9213 819.362 94.9527 819.362 98.7665Z" fill="#3F3F3F" fill-opacity="0.65"/>
<path d="M671.849 426.358C671.849 430.172 668.768 433.203 665.003 433.203C661.239 433.203 658.158 430.123 658.158 426.358C658.158 422.593 661.239 419.513 665.003 419.513C668.768 419.513 671.849 422.544 671.849 426.358Z" fill="#3F3F3F" fill-opacity="0.65"/>
<path d="M581.052 485.324C584.833 485.324 587.897 482.26 587.897 478.479C587.897 474.699 584.833 471.634 581.052 471.634C577.272 471.634 574.207 474.699 574.207 478.479C574.207 482.26 577.272 485.324 581.052 485.324Z" fill="#3F3F3F" fill-opacity="0.65"/>
<path d="M864.151 482.586C864.151 486.399 861.071 489.431 857.306 489.431C853.492 489.431 850.461 486.351 850.461 482.586C850.461 478.821 853.541 475.741 857.306 475.741C861.12 475.692 864.151 478.772 864.151 482.586Z" fill="#3F3F3F" fill-opacity="0.65"/>
<path d="M989.319 69.7228C993.099 69.7228 996.164 66.6581 996.164 62.8776C996.164 59.0971 993.099 56.0323 989.319 56.0323C985.538 56.0323 982.474 59.0971 982.474 62.8776C982.474 66.6581 985.538 69.7228 989.319 69.7228Z" fill="#3F3F3F" fill-opacity="0.65"/>
<path d="M1222.44 115.341C1222.44 121.893 1217.16 127.174 1210.61 127.174C1204.06 127.174 1198.78 121.893 1198.78 115.341C1198.78 108.789 1204.06 103.509 1210.61 103.509C1217.16 103.509 1222.44 108.838 1222.44 115.341Z" fill="#3F3F3F" fill-opacity="0.65"/>
<path d="M786.114 11.8323C786.114 18.3841 780.833 23.6647 774.282 23.6647C767.73 23.6647 762.449 18.3841 762.449 11.8323C762.449 5.28045 767.73 -0.00012207 774.282 -0.00012207C780.833 -0.00012207 786.114 5.32934 786.114 11.8323Z" fill="#3F3F3F" fill-opacity="0.65"/>
<path d="M969.219 112.213C975.754 112.213 981.052 106.915 981.052 100.38C981.052 93.8454 975.754 88.5479 969.219 88.5479C962.684 88.5479 957.387 93.8454 957.387 100.38C957.387 106.915 962.684 112.213 969.219 112.213Z" fill="#3F3F3F" fill-opacity="0.65"/>
<path d="M1228.56 115.341C1228.56 125.266 1220.54 133.285 1210.61 133.285C1200.69 133.285 1192.67 125.266 1192.67 115.341C1192.67 105.415 1200.69 97.3967 1210.61 97.3967C1220.54 97.4456 1228.56 105.464 1228.56 115.341Z" fill="#3F3F3F" fill-opacity="0.65"/>
<path d="M904.973 283.587C904.973 290.139 899.693 295.419 893.141 295.419C886.589 295.419 881.309 290.139 881.309 283.587C881.309 277.035 886.589 271.755 893.141 271.755C899.693 271.755 904.973 277.035 904.973 283.587Z" fill="#3F3F3F" fill-opacity="0.65"/>
<path d="M1248.58 622.22C1265.28 606.672 1266.21 580.529 1250.67 563.828C1235.12 547.128 1208.98 546.194 1192.27 561.742C1175.57 577.29 1174.64 603.433 1190.19 620.133C1205.74 636.834 1231.88 637.768 1248.58 622.22Z" fill="#3F3F3F" fill-opacity="0.65"/>
<path d="M478.371 381.131C484.906 381.131 490.204 375.834 490.204 369.299C490.204 362.764 484.906 357.466 478.371 357.466C471.837 357.466 466.539 362.764 466.539 369.299C466.539 375.834 471.837 381.131 478.371 381.131Z" fill="#3F3F3F" fill-opacity="0.65"/>
<path d="M825.962 726.227C825.962 732.779 820.681 738.059 814.129 738.059C807.577 738.059 802.297 732.779 802.297 726.227C802.297 719.675 807.577 714.395 814.129 714.395C820.632 714.395 825.962 719.675 825.962 726.227Z" fill="#3F3F3F" fill-opacity="0.65"/>
<path d="M904.973 283.587C904.973 290.139 899.693 295.419 893.141 295.419C886.589 295.419 881.309 290.139 881.309 283.587C881.309 277.035 886.589 271.755 893.141 271.755C899.693 271.755 904.973 277.035 904.973 283.587Z" fill="#3F3F3F" fill-opacity="0.65"/>
<path d="M400.581 598.27C400.581 604.821 395.3 610.102 388.748 610.102C382.197 610.102 376.916 604.821 376.916 598.27C376.916 591.718 382.197 586.437 388.748 586.437C395.251 586.437 400.581 591.767 400.581 598.27Z" fill="#3F3F3F" fill-opacity="0.65"/>
<path d="M523.746 801.083C530.281 801.083 535.579 795.786 535.579 789.251C535.579 782.716 530.281 777.418 523.746 777.418C517.212 777.418 511.914 782.716 511.914 789.251C511.914 795.786 517.212 801.083 523.746 801.083Z" fill="#3F3F3F" fill-opacity="0.65"/>
<path d="M845.91 726.227C845.91 743.78 831.682 758.008 814.129 758.008C796.576 758.008 782.348 743.78 782.348 726.227C782.348 708.674 796.576 694.445 814.129 694.445C831.682 694.445 845.91 708.674 845.91 726.227Z" fill="#3F3F3F" fill-opacity="0.65"/>
<path d="M400.581 598.27C400.581 604.821 395.3 610.102 388.748 610.102C382.197 610.102 376.916 604.821 376.916 598.27C376.916 591.718 382.197 586.437 388.748 586.437C395.251 586.437 400.581 591.767 400.581 598.27Z" fill="#3F3F3F" fill-opacity="0.65"/>
<path d="M368.798 1025.31C368.798 1031.86 363.517 1037.15 356.965 1037.15C350.413 1037.15 345.133 1031.86 345.133 1025.31C345.133 1018.76 350.413 1013.48 356.965 1013.48C363.468 1013.48 368.798 1018.76 368.798 1025.31Z" fill="#3F3F3F" fill-opacity="0.65"/>
<path d="M523.743 805.436C532.681 805.436 539.927 798.19 539.927 789.252C539.927 780.313 532.681 773.068 523.743 773.068C514.804 773.068 507.559 780.313 507.559 789.252C507.559 798.19 514.804 805.436 523.743 805.436Z" fill="#3F3F3F" fill-opacity="0.65"/>
<path d="M30.45 974.952C30.45 981.503 25.1694 986.784 18.6176 986.784C12.0657 986.784 6.78516 981.503 6.78516 974.952C6.78516 968.4 12.0657 963.119 18.6176 963.119C25.1694 963.119 30.45 968.449 30.45 974.952Z" fill="#3F3F3F" fill-opacity="0.65"/>
<path d="M391.939 1033.57C396.507 1014.28 384.575 994.943 365.288 990.374C346.001 985.805 326.661 997.737 322.093 1017.02C317.524 1036.31 329.456 1055.65 348.743 1060.22C368.031 1064.79 387.37 1052.86 391.939 1033.57Z" fill="#3F3F3F" fill-opacity="0.65"/>
<path d="M114.014 742.508C114.014 749.06 108.734 754.34 102.182 754.34C95.6302 754.34 90.3496 749.06 90.3496 742.508C90.3496 735.956 95.6302 730.675 102.182 730.675C108.685 730.675 114.014 736.005 114.014 742.508Z" fill="#3F3F3F" fill-opacity="0.65"/>
<path d="M23.6551 713.954C23.6551 720.506 18.3745 725.787 11.8227 725.787C5.27083 725.787 -0.00976562 720.506 -0.00976562 713.954C-0.00976562 707.403 5.27083 702.122 11.8227 702.122C18.3745 702.122 23.6551 707.403 23.6551 713.954Z" fill="#3F3F3F" fill-opacity="0.65"/>
<path d="M30.45 974.952C30.45 981.503 25.1694 986.784 18.6176 986.784C12.0657 986.784 6.78516 981.503 6.78516 974.952C6.78516 968.4 12.0657 963.119 18.6176 963.119C25.1694 963.119 30.45 968.449 30.45 974.952Z" fill="#3F3F3F" fill-opacity="0.65"/>
<path d="M114.014 742.508C114.014 749.06 108.734 754.34 102.182 754.34C95.6302 754.34 90.3496 749.06 90.3496 742.508C90.3496 735.956 95.6302 730.675 102.182 730.675C108.685 730.675 114.014 736.005 114.014 742.508Z" fill="#3F3F3F" fill-opacity="0.65"/>
<path d="M400.581 598.27C400.581 604.821 395.3 610.102 388.748 610.102C382.197 610.102 376.916 604.821 376.916 598.27C376.916 591.718 382.197 586.437 388.748 586.437C395.251 586.437 400.581 591.767 400.581 598.27Z" fill="#3F3F3F" fill-opacity="0.65"/>
<path d="M68.6863 516.372C68.6863 522.924 63.4057 528.204 56.8539 528.204C50.3021 528.204 45.0215 522.924 45.0215 516.372C45.0215 509.82 50.3021 504.54 56.8539 504.54C63.3568 504.54 68.6863 509.82 68.6863 516.372Z" fill="#3F3F3F" fill-opacity="0.65"/>
<path d="M114.014 742.508C114.014 749.06 108.734 754.34 102.182 754.34C95.6302 754.34 90.3496 749.06 90.3496 742.508C90.3496 735.956 95.6302 730.675 102.182 730.675C108.685 730.675 114.014 736.005 114.014 742.508Z" fill="#3F3F3F" fill-opacity="0.65"/>
<path d="M68.6863 516.372C68.6863 522.924 63.4057 528.204 56.8539 528.204C50.3021 528.204 45.0215 522.924 45.0215 516.372C45.0215 509.82 50.3021 504.54 56.8539 504.54C63.3568 504.54 68.6863 509.82 68.6863 516.372Z" fill="#3F3F3F" fill-opacity="0.65"/>
<path d="M197.77 419.708C204.305 419.708 209.602 414.411 209.602 407.876C209.602 401.341 204.305 396.043 197.77 396.043C191.235 396.043 185.938 401.341 185.938 407.876C185.938 414.411 191.235 419.708 197.77 419.708Z" fill="#3F3F3F" fill-opacity="0.65"/>
<path d="M134.45 389.688C139.635 389.688 143.838 385.485 143.838 380.3C143.838 375.115 139.635 370.912 134.45 370.912C129.266 370.912 125.062 375.115 125.062 380.3C125.062 385.485 129.266 389.688 134.45 389.688Z" fill="#3F3F3F" fill-opacity="0.65"/>
<path d="M415.588 598.271C415.588 613.086 403.56 625.114 388.745 625.114C373.93 625.114 361.902 613.086 361.902 598.271C361.902 583.456 373.93 571.428 388.745 571.428C403.56 571.428 415.588 583.456 415.588 598.271Z" fill="#3F3F3F" fill-opacity="0.65"/>
<path d="M478.371 381.131C484.906 381.131 490.204 375.834 490.204 369.299C490.204 362.764 484.906 357.466 478.371 357.466C471.837 357.466 466.539 362.764 466.539 369.299C466.539 375.834 471.837 381.131 478.371 381.131Z" fill="#3F3F3F" fill-opacity="0.65"/>
<path d="M904.973 283.587C904.973 290.139 899.693 295.419 893.141 295.419C886.589 295.419 881.309 290.139 881.309 283.587C881.309 277.035 886.589 271.755 893.141 271.755C899.693 271.755 904.973 277.035 904.973 283.587Z" fill="#3F3F3F" fill-opacity="0.65"/>
<path d="M969.221 116.564C978.159 116.564 985.405 109.318 985.405 100.38C985.405 91.4414 978.159 84.1956 969.221 84.1956C960.283 84.1956 953.037 91.4414 953.037 100.38C953.037 109.318 960.283 116.564 969.221 116.564Z" fill="#3F3F3F" fill-opacity="0.65"/>
<path d="M449.912 109.376C456.447 109.376 461.745 104.079 461.745 97.544C461.745 91.0091 456.447 85.7115 449.912 85.7115C443.378 85.7115 438.08 91.0091 438.08 97.544C438.08 104.079 443.378 109.376 449.912 109.376Z" fill="#3F3F3F" fill-opacity="0.65"/>
<path d="M478.371 381.131C484.906 381.131 490.204 375.834 490.204 369.299C490.204 362.764 484.906 357.466 478.371 357.466C471.837 357.466 466.539 362.764 466.539 369.299C466.539 375.834 471.837 381.131 478.371 381.131Z" fill="#3F3F3F" fill-opacity="0.65"/>
<path d="M264.263 234.253C268.746 234.253 272.379 230.619 272.379 226.136C272.379 221.654 268.746 218.02 264.263 218.02C259.78 218.02 256.146 221.654 256.146 226.136C256.146 230.619 259.78 234.253 264.263 234.253Z" fill="#3F3F3F" fill-opacity="0.65"/>
<path d="M449.912 109.376C456.447 109.376 461.745 104.079 461.745 97.544C461.745 91.0091 456.447 85.7115 449.912 85.7115C443.378 85.7115 438.08 91.0091 438.08 97.544C438.08 104.079 443.378 109.376 449.912 109.376Z" fill="#3F3F3F" fill-opacity="0.65"/>
<path d="M478.371 381.131C484.906 381.131 490.204 375.834 490.204 369.299C490.204 362.764 484.906 357.466 478.371 357.466C471.837 357.466 466.539 362.764 466.539 369.299C466.539 375.834 471.837 381.131 478.371 381.131Z" fill="#3F3F3F" fill-opacity="0.65"/>
<path d="M644.659 30.9983C644.659 37.5501 639.378 42.8307 632.827 42.8307C626.275 42.8307 620.994 37.5501 620.994 30.9983C620.994 24.4465 626.275 19.1659 632.827 19.1659C639.329 19.1659 644.659 24.4465 644.659 30.9983Z" fill="#3F3F3F" fill-opacity="0.65"/>
<path d="M914.707 283.586C914.707 295.467 905.074 305.1 893.193 305.1C881.312 305.1 871.68 295.467 871.68 283.586C871.68 271.705 881.312 262.073 893.193 262.073C905.026 262.024 914.707 271.705 914.707 283.586Z" fill="#3F3F3F" fill-opacity="0.65"/>
<path d="M786.114 11.8323C786.114 18.3841 780.833 23.6647 774.282 23.6647C767.73 23.6647 762.449 18.3841 762.449 11.8323C762.449 5.28045 767.73 -0.00012207 774.282 -0.00012207C780.833 -0.00012207 786.114 5.32934 786.114 11.8323Z" fill="#3F3F3F" fill-opacity="0.65"/>
<path d="M449.914 114.51C459.284 114.51 466.88 106.914 466.88 97.5438C466.88 88.1736 459.284 80.5775 449.914 80.5775C440.543 80.5775 432.947 88.1736 432.947 97.5438C432.947 106.914 440.543 114.51 449.914 114.51Z" fill="#3F3F3F" fill-opacity="0.65"/>
</svg>
