<svg width="118" height="107" viewBox="0 0 118 107" fill="none" xmlns="http://www.w3.org/2000/svg">
<path d="M43.4148 34.9268C45.766 32.6537 45.766 28.9598 43.4148 26.6867C41.0636 24.4136 37.2429 24.4136 34.8917 26.6867C34.8534 26.7238 34.8278 26.7608 34.7895 26.7979L13.207 5.91957L15.5327 3.67114C15.6988 3.51054 15.9544 3.47348 16.1588 3.58466L43.9132 18.7431L54.5703 29.0463C55.2092 29.664 55.5797 30.5041 55.5925 31.3812L55.6692 35.5445L49.7528 41.2645L43.2998 35.0257C43.3382 34.9886 43.3765 34.9639 43.4148 34.9268Z" fill="#98989C"/>
<path d="M34.56 26.5724L29.9609 31.0188L39.3217 40.0688L43.9208 35.6224L34.56 26.5724Z" fill="#898989"/>
<path d="M39.1616 22.1259L34.5625 26.5723L43.9233 35.6223L48.5224 31.1759L39.1616 22.1259Z" fill="#B1B1B2"/>
<path d="M43.4528 34.8896C41.1016 37.1628 37.2809 37.1628 34.9297 34.8896C32.5785 32.6165 32.5785 28.9226 34.9297 26.6495C34.968 26.6124 35.0064 26.5877 35.0447 26.5507L13.4494 5.67236L11.1238 7.93315C10.9577 8.09375 10.9321 8.34083 11.0471 8.5385L26.7261 35.3714L37.3831 45.6747C38.022 46.2924 38.891 46.6507 39.7982 46.663L44.1045 46.7372L50.0208 41.0172L43.5678 34.7785C43.5167 34.8155 43.4911 34.8526 43.4528 34.8896Z" fill="#D8DADC"/>
<path d="M34.6874 26.9336L13.3349 6.2777C13.1944 6.14181 12.9771 6.14181 12.8366 6.2777L12.351 6.74715C12.236 6.85834 12.2104 7.0313 12.2999 7.16719L28.8349 32.7894C28.9755 32.9995 29.1416 33.1971 29.3205 33.3824L40.4632 44.1552C40.6165 44.3034 40.7826 44.4393 40.9615 44.5628L44.0922 46.7371L46.3412 48.8744C47.8362 50.3198 48.4879 53.1612 49.3185 56.7563C50.7752 63.0692 52.7814 71.7293 61.1001 81.3284C69.5848 91.1128 77.0729 94.5719 83.692 97.6234C87.9983 99.6124 91.7168 101.33 95.1158 104.603L100.24 99.6494C95.9591 95.5108 91.5123 93.4601 86.8099 91.2981C80.5741 88.4196 74.1339 85.4547 66.6586 76.8316C59.4644 68.542 57.7649 61.1543 56.3977 55.2367C55.3498 50.7151 54.4554 46.8113 51.4652 43.9204L49.6252 42.1414C49.4079 41.9314 49.4079 41.5979 49.6252 41.3878L49.9957 41.0296L43.5427 34.7908C43.5044 34.8279 43.4788 34.8649 43.4405 34.902C41.0893 37.1751 37.2686 37.1751 34.9174 34.902C33.5373 33.5678 33.0262 31.7146 33.2179 30.0221C33.384 28.8114 34.0613 27.539 34.6874 26.9336Z" fill="#6D6D6E"/>
<path d="M91.4481 51.9879C81.5193 43.9454 72.5618 42.0058 66.0321 40.5975C62.3136 39.7945 59.3746 39.1644 57.8796 37.719L55.6689 35.5447L53.42 32.5179C53.2922 32.345 53.1516 32.1844 52.9983 32.0361L41.8556 21.2634C41.6767 21.0905 41.4723 20.9299 41.2423 20.794L14.7402 4.80786C14.5996 4.72138 14.4207 4.74609 14.3057 4.85728L13.539 5.59852C13.3985 5.73441 13.3985 5.94443 13.539 6.08033C15.9285 8.40288 34.8659 26.761 34.9043 26.7363C37.2555 24.4631 41.0762 24.4261 43.4274 26.6992C45.7786 28.9723 45.7786 32.6662 43.4274 34.9393C43.389 34.9764 43.3507 35.0011 43.3124 35.0382L49.7654 41.277L50.1487 40.9063C50.3532 40.7087 50.6982 40.7087 50.9026 40.9063L52.7555 42.6977C55.7456 45.5885 59.7835 46.4533 64.4604 47.4663C70.5939 48.7882 78.2226 50.4313 86.7968 57.3866C95.716 64.6014 98.7828 70.8401 101.76 76.8689C104.009 81.4152 106.13 85.7144 110.411 89.853L115.535 84.899C112.136 81.6129 110.36 78.0178 108.315 73.8545C105.146 67.4428 101.568 60.191 91.4481 51.9879Z" fill="#E4E4E4"/>
<path d="M116.479 89.9022C118.178 88.2591 118.625 85.1706 116.926 83.5275C113.616 80.3278 111.866 76.7822 109.847 72.6683C106.665 66.2072 103.049 58.8936 92.8004 50.5917C82.7311 42.438 73.2369 40.9185 66.6305 39.4854C63.027 38.7071 60.1775 38.0894 58.8358 36.7922L52.2422 43.1669C55.3729 46.1937 59.513 47.0955 64.2921 48.1209C70.349 49.4304 77.8881 51.0488 86.3218 57.8929C95.1132 65.0212 98.1545 71.1735 101.093 77.1405C103.266 81.5509 105.515 86.0972 109.885 90.3222C111.584 91.9777 114.779 91.5453 116.479 89.9022Z" fill="#8F1818"/>
<path d="M112.544 87.7529C109.234 84.5532 107.484 81.0076 105.465 76.8937C102.283 70.4325 98.6667 63.1189 88.4185 54.817C78.3492 46.6634 68.855 45.1438 62.2486 43.7108C58.6452 42.9325 55.7956 42.3148 54.4539 41.0176L52.2305 43.1672C55.3611 46.1939 59.5013 47.0958 64.2804 48.1211C70.3373 49.4307 77.8764 51.049 86.3101 57.8932C95.1015 65.0215 98.1427 71.1738 101.082 77.1408C103.254 81.5511 105.503 86.0974 109.873 90.3225C110.857 91.2738 112.327 91.5332 113.732 91.2614C114.767 91.0761 114.243 89.396 112.544 87.7529Z" fill="#470505"/>
<path d="M100.317 105.53C98.617 107.173 95.4225 107.606 93.723 105.963C90.4134 102.763 86.746 101.07 82.4909 99.1185C75.8078 96.0423 68.2431 92.5461 59.6561 82.6382C51.2225 72.9032 49.6508 63.7242 48.1685 57.3371C47.3634 53.8533 46.7245 51.0984 45.3828 49.8012L51.9764 43.4265C55.1071 46.4533 56.0399 50.456 57.1005 55.0764C58.455 60.9322 60.1289 68.2211 67.2081 76.3747C74.5811 84.8743 80.9447 87.8145 87.1166 90.656C91.6784 92.7561 96.3808 94.9305 100.751 99.1555C102.463 100.799 102.016 103.887 100.317 105.53Z" fill="#8F1818"/>
<path d="M49.0234 35.7668C50.3906 37.0887 50.3906 39.2259 49.0234 40.5478C47.6561 41.8697 45.4455 41.8697 44.0782 40.5478C42.7109 39.2259 42.7109 37.0887 44.0782 35.7668C45.4455 34.4449 47.6561 34.4573 49.0234 35.7668Z" fill="#898989"/>
<path d="M48.2705 36.4957C49.2288 37.4222 49.2288 38.9047 48.2705 39.8313C47.3121 40.7578 45.7787 40.7578 44.8203 39.8313C43.862 38.9047 43.862 37.4222 44.8203 36.4957C45.7787 35.5691 47.3249 35.5691 48.2705 36.4957Z" fill="#504F53"/>
<path d="M51.7723 41.7338C51.7723 41.7338 52.0407 40.4489 53.8296 38.7194C55.4525 37.1504 56.8964 36.7798 56.8964 36.7798L55.6441 35.5691L50.1367 40.8937C50.1367 40.8937 50.5328 40.5478 50.8906 40.8937C51.2612 41.2396 51.7723 41.7338 51.7723 41.7338Z" fill="#39373A"/>
<path d="M96.2015 103.554C92.8919 100.354 89.2246 98.6614 84.9694 96.7094C78.2864 93.6333 70.7216 90.1371 62.1346 80.2292C53.701 70.4942 52.1293 61.3151 50.647 54.9281C49.842 51.4443 49.203 48.6893 47.8613 47.3922L51.9631 43.4265C55.0938 46.4533 56.0266 50.456 57.0872 55.0764C58.4417 60.9322 60.1157 68.2211 67.1948 76.3747C74.5679 84.8743 80.9315 87.8145 87.1034 90.656C91.6652 92.7561 96.3676 94.9305 100.738 99.1555C101.722 100.107 101.99 101.528 101.709 102.886C101.517 103.887 99.0127 106.271 96.2015 103.554Z" fill="#470505"/>
<path d="M95.613 26.7608L36.3347 84.0835C38.5837 90.9894 37.2803 96.6352 29.4855 100.49C21.6397 104.369 14.8289 103.405 12.3116 102.837C11.6599 102.689 11.1232 102.269 10.8165 101.7L10.1776 100.477L18.9818 96.1287C23.9014 93.695 25.8565 87.8639 23.3392 83.1076L22.5214 81.5633C20.4002 77.5606 15.34 75.9793 11.1999 78.0177L0.964465 83.0705L0.248882 81.7116C-0.0577957 81.1309 -0.0833523 80.4514 0.184991 79.8461C1.20725 77.5606 4.42737 71.8036 12.2732 67.9368C18.5346 64.8483 23.2881 65.6884 27.2238 69.1228C28.131 69.9135 29.5111 69.9011 30.38 69.0734L86.4382 14.8763C86.9877 14.345 87.2049 13.5791 87.0516 12.8379C86.106 8.40276 87.4605 4.75832 92.6868 2.17633C100.188 -1.52988 106.423 0.61972 106.423 0.61972L107.254 2.18868L100.609 5.47485C96.8909 7.3156 95.4214 11.7013 97.3253 15.2963L97.3892 15.4322C99.2932 19.0272 103.829 20.4479 107.548 18.6072L114.193 15.321L115.087 17.0012C115.087 17.0012 113.209 23.0052 105.682 26.7361C101.568 28.7375 98.3348 28.5275 95.613 26.7608Z" fill="#D8DADC"/>
<path d="M94.4111 27.9345L37.2795 83.1694C36.7045 83.7253 36.4873 84.5283 36.6917 85.2943C38.404 91.6566 36.8067 96.87 29.472 100.49C21.6262 104.369 14.8153 103.405 12.298 102.837C11.6463 102.689 11.1097 102.269 10.803 101.7L10.1641 100.477L20.3994 95.4246C25.3191 92.9908 25.8558 87.8639 23.3384 83.0952L33.4205 78.2278L91.3316 22.2393C90.7438 21.3498 90.1687 20.3738 89.6193 19.3361L97.3757 15.4199C99.2796 19.0149 102.743 20.9668 106.461 19.1261L114.179 15.321L115.074 17.0012C115.074 17.0012 113.195 23.0053 105.669 26.7362C102.257 28.4163 99.433 28.5522 97.0179 27.5145C96.1106 27.1315 95.0884 27.2797 94.4111 27.9345Z" fill="#B1B1B2"/>
<path d="M105.044 26.0691C101.389 27.8727 98.5651 28.0581 96.1755 26.9338C94.8338 26.3038 93.211 26.5509 92.1632 27.5763L36.6928 81.2051C36.0411 81.8351 35.8111 82.7617 36.0794 83.6018C38.2262 90.4459 36.3094 95.6346 28.5402 99.279C20.1066 103.232 10.7912 101.663 10.7912 101.663L10.1651 100.477L18.9693 96.1288C23.8889 93.695 25.844 87.8639 23.3267 83.1076L23.2373 82.9347C20.7199 78.1784 14.6886 76.2882 9.76897 78.7219L0.964753 83.0705L0.376953 81.934C0.376953 81.934 4.45322 72.9897 12.823 69.2835C19.6721 66.2567 24.3617 66.7509 28.2463 70.3335C29.2175 71.2354 30.7509 71.2107 31.7092 70.2965L86.528 17.2977C87.3969 16.4576 87.7419 15.2346 87.448 14.0733C86.2724 9.40348 87.908 5.90729 93.6199 3.22646C100.392 0.0391228 106.948 1.63279 106.948 1.63279L107.229 2.17637L100.584 5.46254C96.8656 7.30329 95.3961 11.689 97.3 15.284L97.3639 15.4199C99.2679 19.0149 103.804 20.4356 107.523 18.5949L114.167 15.3087L114.41 15.7658C114.41 15.7658 112.57 22.3505 105.044 26.0691Z" fill="#E4E4E4"/>
<path d="M90.3873 21.5721L90.2468 21.4362C89.1095 20.3367 87.2567 20.3367 86.1066 21.4362L33.4858 72.3101C32.3485 73.4096 32.3485 75.2009 33.4858 76.3128L33.6263 76.4487C34.7636 77.5482 36.6164 77.5482 37.7665 76.4487L90.3873 25.5624C91.5246 24.4629 91.5246 22.6716 90.3873 21.5721Z" fill="#B1B1B2"/>
</svg>
