<svg width="50" height="50" viewBox="0 0 50 50" fill="none" xmlns="http://www.w3.org/2000/svg">
<path d="M30.2366 38.5148H19.7586C15.1969 38.5148 11.4844 34.8023 11.4844 30.2406V19.7591C11.4844 15.1974 15.1969 11.4849 19.7586 11.4849H30.2366C34.7983 11.4849 38.5108 15.1974 38.5108 19.7591V30.2371C38.5143 34.8023 34.8018 38.5148 30.2366 38.5148ZM19.7586 13.5096C16.3128 13.5096 13.5056 16.3133 13.5056 19.7626V30.2406C13.5056 33.6864 16.3093 36.4936 19.7586 36.4936H30.2366C33.6824 36.4936 36.4896 33.6899 36.4896 30.2406V19.7591C36.4896 16.3133 33.6859 13.5061 30.2366 13.5061H19.7586V13.5096Z" fill="#E4E4E4"/>
<path d="M24.9977 31.8372C21.229 31.8372 18.1621 28.7703 18.1621 25.0016C18.1621 21.2329 21.229 18.166 24.9977 18.166C28.7664 18.166 31.8332 21.2329 31.8332 25.0016C31.8368 28.7703 28.7699 31.8372 24.9977 31.8372ZM24.9977 20.2328C22.3694 20.2328 20.2324 22.3698 20.2324 24.9981C20.2324 27.6263 22.3694 29.7633 24.9977 29.7633C27.6259 29.7633 29.7629 27.6263 29.7629 24.9981C29.7629 22.3733 27.6259 20.2328 24.9977 20.2328Z" fill="#E4E4E4"/>
<path d="M34.3589 17.4187C34.3589 18.4012 33.5624 19.1978 32.5799 19.1978C31.5973 19.1978 30.8008 18.4012 30.8008 17.4187C30.8008 16.4362 31.5973 15.6396 32.5799 15.6396C33.5624 15.6396 34.3589 16.4362 34.3589 17.4187Z" fill="#E4E4E4"/>
<path d="M35.0411 49.9998H14.9589C6.70924 49.9998 0 43.287 0 35.0408V14.9587C0 6.709 6.70924 -0.000244141 14.9589 -0.000244141H35.0411C43.2872 -0.000244141 50 6.709 50 14.9587V35.0408C50 43.287 43.2872 49.9998 35.0411 49.9998ZM14.9589 2.07709C7.85669 2.07709 2.07734 7.85645 2.07734 14.9587V35.0408C2.07734 42.1431 7.85669 47.9224 14.9589 47.9224H35.0411C42.1433 47.9224 47.9227 42.1431 47.9227 35.0408V14.9587C47.9227 7.85645 42.1433 2.07709 35.0411 2.07709H14.9589Z" fill="#E4E4E4"/>
</svg>
