<svg width="118" height="108" viewBox="0 0 118 108" fill="none" xmlns="http://www.w3.org/2000/svg">
<path d="M93.5447 0.874268L88.4194 6.42084C88.2508 6.6033 88.1159 6.82224 88.0373 7.06551L87.1381 9.705C86.9358 10.2888 86.6211 10.8119 86.2164 11.2498L44.7422 56.1332L47.4285 59.0403L88.8353 14.2298C89.2849 13.7433 89.8244 13.3906 90.4201 13.1838L92.8478 12.3323C93.0951 12.2472 93.3199 12.0891 93.511 11.8944L98.6025 6.38435L93.5447 0.874268Z" fill="#D8DADC"/>
<path d="M96.0734 3.61108L46.1582 57.6415L47.4395 59.0282L88.8463 14.2177C89.2959 13.7312 89.8354 13.3784 90.4311 13.1716L92.8589 12.3202C93.1062 12.235 93.331 12.0769 93.522 11.8823L98.6136 6.37221L96.0734 3.61108Z" fill="#98989C"/>
<path d="M93.5462 0.874268L88.3872 6.45733C88.2411 6.61546 88.1512 6.81008 88.1062 7.01686L87.5105 10.3132C87.4094 10.8605 87.1621 11.3592 86.8024 11.7485L45.2832 56.6928L46.9242 58.4686L88.4209 13.5608C88.8031 13.1473 89.2976 12.8675 89.8259 12.7824L92.9168 12.235C93.1303 12.1985 93.3214 12.0891 93.4675 11.9309L98.6153 6.36002L93.5462 0.874268Z" fill="#E4E4E4"/>
<path d="M97.6915 7.35744C97.6915 7.35744 94.6568 9.76582 92.4651 7.39393C90.2846 5.0342 92.6224 1.87168 92.6224 1.87168L93.5441 0.874268L98.6132 6.36002L97.6915 7.35744Z" fill="#98989C"/>
<path d="M38.3247 55.5371C33.3455 59.3565 27.4447 65.7545 20.9033 72.8215C-2.52015 98.1703 -2.53139 98.1825 3.07719 104.264C8.68577 110.334 8.69701 110.322 32.1316 84.9729C38.6731 77.8937 44.5739 71.5078 48.1032 66.1194L38.3247 55.5371Z" fill="#8F1818"/>
<path d="M39.5391 56.8508C34.8185 60.9378 28.9064 67.3358 22.365 74.4028C-1.05845 99.7638 -1.06969 99.776 2.61691 103.753C6.30351 107.743 6.31475 107.731 29.7381 82.3699C36.2796 75.2908 42.1804 68.9049 45.9569 63.784L39.5391 56.8508Z" fill="#470505"/>
<path d="M46.9789 64.9029C43.1575 69.9751 37.2567 76.3732 30.7152 83.4402C7.28054 108.789 7.28054 108.801 3.89741 105.14C0.514282 101.479 0.525521 101.467 23.9602 76.1177C30.5016 69.0386 36.4024 62.6527 41.0894 58.5171L46.9789 64.9029Z" fill="#470505"/>
<path d="M41.2494 58.3101C36.6636 62.543 30.7516 68.941 24.2101 76.008C0.786719 101.369 0.775481 101.381 3.39432 104.215C6.01315 107.049 6.02439 107.049 29.459 81.6884C36.0005 74.6092 41.9013 68.2233 45.8127 63.2485L41.2494 58.3101Z" fill="#8F1818"/>
<path d="M48.3395 66.3751L38.089 55.2819C37.1448 54.2602 37.1448 52.6059 38.089 51.5842L39.4714 50.0881C40.4156 49.0663 41.9442 49.0663 42.8883 50.0881L53.1388 61.1812C54.083 62.203 54.083 63.8572 53.1388 64.8789L51.7564 66.3751C50.8122 67.3968 49.2836 67.3968 48.3395 66.3751Z" fill="#470505"/>
<path d="M47.114 65.0492L39.3137 56.6077C38.5944 55.8292 38.7742 54.3696 39.7183 53.3479L41.1008 51.8518C42.0449 50.83 43.3937 50.6354 44.113 51.4139L51.9133 59.8554C52.6327 60.6338 52.4528 62.0935 51.5087 63.1152L50.1262 64.6113C49.1821 65.6209 47.8333 65.8277 47.114 65.0492Z" fill="#8C0B0B"/>
<path d="M44.6191 62.3488L41.9216 59.4296C41.6743 59.162 42.2363 58.1159 43.1804 57.0942L44.5629 55.6102C45.507 54.5885 46.4736 53.9803 46.7209 54.2479L49.4184 57.1671C49.6657 57.4347 49.1037 58.4808 48.1596 59.5025L46.7771 60.9987C45.833 62.0082 44.8664 62.6164 44.6191 62.3488Z" fill="#470505"/>
<path d="M73.1796 56.4738L70.4934 59.3809L22.5563 7.49123L20.5781 4.21924L22.2079 2.44336L25.2426 4.58414L73.1796 56.4738Z" fill="#D8DADC"/>
<path d="M73.1794 56.4738L71.8419 57.9213L21.3984 3.3313L22.2077 2.44336L25.2424 4.58414L73.1794 56.4738Z" fill="#98989C"/>
<path d="M72.6506 57.0334L71.0208 58.8093L23.0726 6.91963L20.9258 3.84225L21.8699 2.80835L24.7135 5.15591L72.6506 57.0334Z" fill="#98989C"/>
<path d="M25.0844 7.32102L20.9258 3.84225L21.8699 2.80835L25.0844 7.32102Z" fill="#D8DADC"/>
<path d="M69.8984 66.3992C73.4277 71.7876 79.3397 78.1735 85.87 85.2527C109.293 110.601 109.305 110.614 114.924 104.544C120.533 98.4744 120.522 98.4623 97.0984 73.1013C90.5569 66.0221 84.6561 59.6362 79.6769 55.8169L69.8984 66.3992Z" fill="#8F1818"/>
<path d="M71.373 64.9759C75.1496 70.0846 81.0616 76.4827 87.5918 83.5618C111.015 108.911 111.026 108.923 114.713 104.945C118.4 100.956 118.388 100.956 94.9538 75.5947C88.4123 68.5155 82.5115 62.1297 77.7796 58.0427L71.373 64.9759Z" fill="#470505"/>
<path d="M78.5419 57.0332C83.2288 61.1688 89.1409 67.5547 95.6711 74.6338C119.095 99.9827 119.106 99.9948 115.734 103.656C112.351 107.317 112.34 107.305 88.9161 81.9441C82.3746 74.865 76.4738 68.4791 72.6523 63.4069L78.5419 57.0332Z" fill="#470505"/>
<path d="M72.5625 63.5165C76.4739 68.4792 82.3859 74.8772 88.9162 81.9564C112.351 107.305 112.351 107.317 114.981 104.471C117.6 101.637 117.6 101.625 94.1651 76.2639C87.6236 69.1847 81.7228 62.7988 77.1258 58.5659L72.5625 63.5165Z" fill="#8F1818"/>
<path d="M79.9005 55.5617L69.65 66.6549C68.7059 67.6766 67.1773 67.6766 66.2332 66.6549L64.8507 65.1587C63.9065 64.137 63.9065 62.4828 64.8507 61.461L75.1012 50.3679C76.0454 49.3461 77.5739 49.3461 78.5181 50.3679L79.9005 51.864C80.8447 52.8857 80.8447 54.54 79.9005 55.5617Z" fill="#470505"/>
<path d="M78.677 56.8873L70.8767 65.3288C70.1574 66.1072 68.8086 65.9126 67.8645 64.8909L66.482 63.3948C65.5379 62.373 65.358 60.9134 66.0774 60.1349L73.8777 51.6934C74.597 50.915 75.9458 51.1096 76.8899 52.1313L78.2724 53.6274C79.2165 54.6492 79.3963 56.1088 78.677 56.8873Z" fill="#8C0B0B"/>
<path d="M76.1918 59.5877L73.4943 62.507C73.2471 62.7746 72.2805 62.1664 71.3363 61.1447L69.9539 59.6485C69.0097 58.6268 68.4477 57.5807 68.695 57.3131L71.3925 54.3939C71.6398 54.1263 72.6064 54.7345 73.5505 55.7562L74.933 57.2523C75.8771 58.2741 76.4391 59.3201 76.1918 59.5877Z" fill="#470505"/>
</svg>
