<svg width="118" height="107" viewBox="0 0 118 107" fill="none" xmlns="http://www.w3.org/2000/svg">
<path d="M93.7974 77.8597C86.4936 70.8382 71.4572 58.8924 66.6533 54.2743L28.1247 17.2351L19.9141 25.1283L58.4427 62.1675C63.2833 66.821 75.6728 81.2408 82.9765 88.2622C103.479 107.972 103.479 107.972 108.883 102.765C114.299 97.5692 114.299 97.5691 93.7974 77.8597Z" fill="#8F1818"/>
<path d="M24.0194 21.1819L19.9141 25.1285L58.4427 62.1677C63.2833 66.8211 75.6728 81.241 82.9765 88.2624C103.479 107.972 103.479 107.972 108.883 102.765C96.3219 90.6893 24.0194 21.1819 24.0194 21.1819Z" fill="#8F1818"/>
<path d="M26.6936 18.6035L21.3125 23.7766L82.1253 82.2385L87.5065 77.0654L26.6936 18.6035Z" fill="#470505"/>
<path d="M93.798 77.8598C86.4943 70.8384 71.4578 58.8925 66.654 54.2744L58.4434 62.1676C63.2839 66.8211 75.6734 81.2409 82.9772 88.2623C103.479 107.972 103.479 107.972 108.884 102.765C114.3 97.5693 114.3 97.5693 93.798 77.8598Z" fill="#6D6D6E"/>
<path d="M90.9168 78.5666C83.9071 71.8279 69.8878 60.0117 65.28 55.582L59.8145 60.8363C64.4467 65.2895 76.7136 78.7433 83.7233 85.482C103.38 104.379 103.38 104.379 106.97 100.915C110.573 97.4632 110.573 97.4632 90.9168 78.5666Z" fill="#E4E4E4"/>
<path d="M8.50473 36.285L0 28.109L0.330876 26.66L22.1932 5.64281L39.0066 -0.000244141L43.2222 4.04061L10.0121 35.9669L8.50473 36.285Z" fill="#D8DADC"/>
<path d="M8.50473 36.2849L0 28.1089L1.96075 27.3549L20.5878 9.44797L41.2614 4.04053H43.2222L10.0121 35.9668L8.50473 36.2849Z" fill="#98989C"/>
<path d="M9.32476 34.4354L2.11902 27.5082C2.03324 27.4257 2.03324 27.2843 2.11902 27.2019L23.3318 6.79734C23.3563 6.77378 23.3809 6.762 23.4176 6.75022L38.4908 1.55483C38.5766 1.53127 38.6624 1.54305 38.7237 1.60196L41.1011 3.88745C41.1869 3.96992 41.1869 4.11129 41.1011 4.19376L9.64338 34.4354C9.5576 34.5178 9.41055 34.5178 9.32476 34.4354Z" fill="#6D6D6E"/>
<path d="M34.0292 104.909L31.6641 101.94C31.8234 101.822 47.9505 89.9236 58.9184 76.9057C69.9476 63.8053 84.5674 40.3731 84.7145 40.1375L88.0477 42.0577C87.9007 42.2934 73.1338 65.9494 61.9331 79.2501C50.6833 92.6332 34.7032 104.414 34.0292 104.909Z" fill="#504F53"/>
<path d="M30.6973 105.498C29.2023 103.601 29.6557 102.07 31.0037 101.08C31.163 100.962 47.1921 89.1343 58.0742 76.2224C66.4687 66.2558 76.9587 50.2691 81.2968 43.495C81.4194 43.2948 81.6767 43.2123 81.8973 43.283C82.5223 43.495 83.2943 43.8602 84.3727 44.4964C85.2183 44.9912 85.831 45.4624 86.3947 45.9572C86.5786 46.1222 86.6153 46.3814 86.4928 46.5934C82.0811 53.4617 72.2161 70.4498 63.6133 80.6638C52.2655 94.1412 36.1874 106.005 35.5012 106.499C34.2634 107.418 31.9228 107.065 30.6973 105.498Z" fill="#470505"/>
<path d="M29.7655 103.165C29.9003 102.341 30.268 101.622 31.0033 101.092C31.1626 100.974 47.1917 89.146 58.0738 76.2341C66.4682 66.2675 76.9582 50.2808 81.2964 43.5068C81.4189 43.3065 81.6763 43.224 81.8969 43.2947C82.5218 43.5068 83.2939 43.872 84.3723 44.5081C83.6983 45.6509 69.3971 67.7637 60.7943 77.9777C51.9832 88.4392 41.2604 96.8272 36.5791 100.303C35.2311 101.304 33.8709 102.423 33.2091 103.165C31.3464 105.203 29.594 104.202 29.7655 103.165Z" fill="#8F1818"/>
<path d="M14.9004 86.5189L17.9886 88.7926C18.1111 88.6395 30.4883 73.1358 44.0297 62.5919C57.6569 51.989 82.0314 37.9344 82.2765 37.793L80.279 34.5886C80.0339 34.73 55.4265 48.926 41.591 59.6937C27.682 70.5086 15.4151 85.8709 14.9004 86.5189Z" fill="#504F53"/>
<path d="M14.2875 89.735C16.2605 91.1722 17.8536 90.7364 18.883 89.4404C19.0055 89.2873 31.3092 73.8779 44.7403 63.4164C55.1077 55.3465 71.7373 45.262 78.7837 41.0916C78.9921 40.9738 79.0779 40.7264 79.0043 40.5143C78.7837 39.9135 78.4038 39.1713 77.7421 38.1346C77.2274 37.3217 76.7372 36.7327 76.2225 36.1907C76.0509 36.014 75.7813 35.9787 75.5608 36.0965C68.4163 40.3376 50.7451 49.8212 40.1203 58.0914C26.0887 69.0006 13.7605 84.4689 13.2336 85.1169C12.3022 86.3067 12.6699 88.5451 14.2875 89.735Z" fill="#8F1818"/>
<path d="M16.7266 90.6305C17.5844 90.5009 18.332 90.1475 18.8834 89.4406C19.006 89.2875 31.3096 73.8781 44.7407 63.4166C55.1082 55.3467 71.7378 45.2622 78.7842 41.0918C78.9925 40.974 79.0783 40.7266 79.0048 40.5145C78.7842 39.9137 78.4043 39.1715 77.7425 38.1348C76.5538 38.7827 53.5518 52.531 42.9271 60.8012C32.0449 69.2717 23.3196 79.58 19.7045 84.0803C18.6628 85.3762 16.1874 87.3908 15.4889 87.7913C13.0502 89.1815 15.6359 90.7837 16.7266 90.6305Z" fill="#470505"/>
<path d="M100.756 22.3246C95.6702 17.4355 92.8638 12.193 94.4937 10.6262C95.9888 9.1889 100.658 11.3095 105.327 15.4092C106.062 15.421 108.292 15.0794 108.292 15.0794L108.44 14.938C108.44 14.938 108.292 14.29 108.219 13.9484C100.805 7.08012 92.4962 3.91105 89.4203 6.86806C86.2586 9.90754 89.8369 18.272 97.3981 25.5526L100.756 22.3246Z" fill="#C3C5C8"/>
<path d="M100.755 22.3249L101.491 23.0317C101.209 22.7608 100.204 21.7947 99.9466 21.5238C95.3756 16.8703 92.9492 12.099 94.4933 10.6146C95.9883 9.17736 100.657 11.2979 105.326 15.3977C106.062 15.4095 108.292 15.0678 108.292 15.0678L108.39 14.9736C108.39 14.9736 108.047 14.4199 107.937 14.2078C103.01 9.48367 93.1943 4.12335 89.8733 7.31598C87.741 9.36586 88.2312 13.3714 91.3561 18.3076C92.4468 20.0394 92.2017 21.618 91.3193 22.478L88.0473 25.6235C87.4468 26.2008 86.9934 26.9076 86.7361 27.697L84.0033 40.385C83.9543 40.5971 84.0278 40.8209 84.1871 40.9858L86.7116 43.4127C87.0057 43.6954 87.4836 43.6601 87.7287 43.342L101.025 26.6367C102.41 24.9049 102.447 23.9506 100.755 22.3249Z" fill="#B1B1B2"/>
<path d="M101.395 22.9373L100.758 22.3247L100.66 22.2305C100.746 22.3129 100.905 22.4543 101.077 22.631C101.248 22.8077 101.408 22.9491 101.493 23.0316L101.395 22.9373Z" fill="#504F53"/>
<path d="M84.3711 38.7002L85.0941 35.3073L94.2484 35.1777L92.7778 37.0273L84.3711 38.7002Z" fill="#39373A"/>
<path d="M100.768 22.3249C105.854 27.2139 111.307 29.9118 112.937 28.3449C114.432 26.9076 112.226 22.4191 107.961 17.9306C107.949 17.2237 108.305 15.0796 108.305 15.0796L108.452 14.9382C108.452 14.9382 109.138 15.0796 109.481 15.1503C116.625 22.2777 119.922 30.2652 116.846 33.2222C113.684 36.2617 104.984 32.8217 97.4102 25.5528L100.768 22.3249Z" fill="#A8A8A8"/>
<path d="M100.768 22.3246L100.032 21.6178C100.314 21.8887 101.319 22.8548 101.601 23.1022C106.441 27.4964 111.405 29.8291 112.949 28.3447C114.444 26.9074 112.238 22.4189 107.973 17.9303C107.961 17.2235 108.316 15.0794 108.316 15.0794L108.414 14.9851C108.414 14.9851 108.99 15.315 109.211 15.421C114.137 20.1569 119.713 29.5817 116.392 32.7861C114.26 34.8359 110.093 34.3647 104.959 31.3606C103.157 30.3003 101.515 30.5477 100.62 31.3959L97.3485 34.5414C96.748 35.1187 96.0127 35.5546 95.1917 35.802L81.9934 38.4291C81.7728 38.4762 81.54 38.4056 81.3684 38.2524L78.844 35.8255C78.5498 35.5428 78.5866 35.0833 78.9175 34.8477L96.2946 22.0654C98.0715 20.746 99.0764 20.6989 100.768 22.3246Z" fill="#E4E4E4"/>
<path d="M96.271 22.0536C98.0724 20.7459 99.0773 20.6988 100.768 22.3245L101.234 22.7722C99.543 21.1464 98.5381 21.17 96.5528 22.3245L90.1191 26.5774L96.271 22.0536Z" fill="#C3C5C8"/>
<path d="M96.3202 23.7855C95.4011 24.6691 95.4011 26.1181 96.3202 27.0017C97.2393 27.8853 98.7466 27.8853 99.6657 27.0017C100.585 26.1181 100.585 24.6691 99.6657 23.7855C98.7466 22.8902 97.2515 22.8902 96.3202 23.7855Z" fill="#A8A8A8"/>
<path d="M96.8348 24.2686C96.1853 24.893 96.1853 25.8943 96.8348 26.5187C97.4843 27.1431 98.5259 27.1431 99.1754 26.5187C99.8249 25.8943 99.8249 24.893 99.1754 24.2686C98.5259 23.6442 97.472 23.6442 96.8348 24.2686Z" fill="#504F53"/>
</svg>
