<svg width="122" height="107" viewBox="0 0 122 107" fill="none" xmlns="http://www.w3.org/2000/svg">
<path d="M35.6903 42.2504C42.0393 41.7315 43.4678 41.4316 48.6447 46.4019C53.8337 51.3837 101.585 100.302 101.585 100.302C105.871 104.662 113.27 104.742 117.958 100.302L118.129 100.141C122.818 95.7127 122.745 88.7128 118.129 84.6766L57.46 34.2011C52.8081 30.1879 54.3343 19.9936 52.2465 14.2276C52.1244 13.8932 51.7337 13.7318 51.404 13.8817L25.1412 25.8058C21.7103 27.328 17.6201 25.9442 15.9962 22.6921L8.89023 8.78455L8.02335 9.1651C7.65706 9.32655 7.42508 9.66098 7.38845 10.03C6.80239 17.2836 6.22854 25.3791 10.8926 33.8436C15.8741 42.8847 27.0093 42.9538 35.6903 42.2504ZM107.837 96.6468C106.066 94.9747 106.066 92.2647 107.837 90.5925C109.607 88.9204 112.476 88.9204 114.247 90.5925C116.017 92.2647 116.017 94.9747 114.247 96.6468C112.476 98.319 109.607 98.319 107.837 96.6468Z" fill="#D8DADC"/>
<path d="M10.8926 33.8436C6.22854 25.3791 6.80239 17.2837 7.38845 10.0301C7.42508 9.66103 7.65706 9.32661 8.02335 9.16516L8.89023 8.77307L14.3968 24.2029L50.2319 41.0281C50.2319 41.0281 77.2883 66.8943 94.223 87.7788C106.994 103.52 111.878 104.316 118.142 100.141L117.971 100.303C113.282 104.731 105.871 104.662 101.598 100.303C101.598 100.303 53.8459 51.3838 48.6569 46.402C43.4678 41.4201 42.0393 41.7315 35.7025 42.2505C27.0093 42.9539 15.8741 42.8847 10.8926 33.8436Z" fill="#B1B1B2"/>
<path d="M35.6896 42.2504C42.0386 41.7315 45.3596 39.6326 50.5487 44.6145C55.7378 49.5963 103.477 98.515 103.477 98.515C107.763 102.874 112.964 101.433 116.224 98.3535C119.484 95.2745 120.839 90.5118 116.224 86.4756L56.0064 35.5849C53.7965 33.7282 54.0407 26.0479 53.8819 24.7333C53.4302 20.9969 53.2837 17.076 52.2458 14.2276C52.1238 13.9048 51.733 13.7433 51.4034 13.8932L25.1406 25.8058C21.7097 27.328 17.6195 25.9442 15.9956 22.6921L8.8896 8.78455L8.02271 9.1651C7.65643 9.32655 7.41224 9.66098 7.38782 10.0415C6.87501 17.226 7.69306 24.0068 12.3449 32.4597C17.3264 41.5008 27.0086 42.9538 35.6896 42.2504ZM107.836 96.6468C106.066 94.9747 106.066 92.2647 107.836 90.5925C109.606 88.9204 112.476 88.9204 114.246 90.5925C116.017 92.2647 116.017 94.9747 114.246 96.6468C112.476 98.319 109.606 98.319 107.836 96.6468Z" fill="#E4E4E4"/>
<path d="M105.382 96.7161C105.382 96.7161 57.2516 48.1548 52.0625 43.173C50.8049 41.8468 50.1212 40.0594 52.7218 38.2719C54.6021 36.9688 56.7144 38.6294 56.7144 38.6294L114.331 88.2631C116.956 90.6272 117.591 93.4756 114.331 96.5546C114.319 96.5661 114.295 96.5777 114.283 96.6007C116.016 94.9286 116.004 92.2416 114.246 90.581C112.476 88.9089 109.606 88.9089 107.836 90.581C106.066 92.2532 106.066 94.9632 107.836 96.6353C109.496 98.2037 112.109 98.2959 113.892 96.9352C110.754 99.5529 107.348 98.7572 105.382 96.7161Z" fill="#9B9B9B"/>
<path d="M45.2382 14.9311C39.1456 9.23428 32.467 4.71374 26.0936 0.481502C25.2633 -0.0720341 24.2011 -0.152758 23.2854 0.262394L22.2109 0.908185L32.7967 22.6114L44.8353 17.0414C45.7022 16.6609 45.9098 15.5653 45.2382 14.9311Z" fill="#B1B1B2"/>
<path d="M45.238 14.9311C39.1454 9.23428 32.4668 4.71374 26.0934 0.481502C25.2631 -0.0720341 24.2009 -0.152758 23.2852 0.262394L33.9808 20.5933C34.2249 21.0546 34.8232 21.2506 35.3116 21.02L44.6641 16.6955C45.531 16.3149 45.9095 15.5653 45.238 14.9311Z" fill="#E4E4E4"/>
<path d="M41.757 19.5817L30.8125 24.5348L37.2911 37.3054L48.2357 32.3524L41.757 19.5817Z" fill="#98989C"/>
<path d="M37.2891 37.3032L48.2289 32.356L46.5928 30.8799L37.3623 35.0545L37.2891 37.3032Z" fill="#EDEEEF"/>
<path d="M101.617 5.83228L96.0617 11.0793C95.8786 11.2523 95.732 11.4599 95.6466 11.6905L94.6698 14.193C94.45 14.7465 94.1082 15.2424 93.6686 15.6575L48.6152 58.2106L51.5333 60.9667L96.5135 18.4829C97.0018 18.0216 97.5879 17.6872 98.235 17.4911L100.872 16.6839C101.141 16.6032 101.385 16.4532 101.593 16.2687L107.124 11.0447L101.617 5.83228Z" fill="#D8DADC"/>
<path d="M104.363 8.427L50.1406 59.6521L51.5325 60.9668L96.5126 18.4829C97.001 18.0216 97.5871 17.6872 98.2342 17.4911L100.871 16.6839C101.14 16.6032 101.384 16.4533 101.592 16.2688L107.123 11.0448L104.363 8.427Z" fill="#98989C"/>
<path d="M101.619 5.83228L96.0152 11.1255C95.8565 11.2754 95.7588 11.4599 95.7099 11.6559L95.0628 14.7811C94.9529 15.3 94.6843 15.7729 94.2936 16.1419L49.1914 58.7526L50.974 60.4363L96.0518 17.8601C96.4669 17.4681 97.0042 17.2028 97.578 17.1221L100.936 16.6032C101.168 16.5686 101.375 16.4648 101.534 16.3149L107.126 11.0332L101.619 5.83228Z" fill="#E4E4E4"/>
<path d="M106.123 11.9674C106.123 11.9674 102.827 14.2507 100.446 12.0019C98.0771 9.76474 100.617 6.76642 100.617 6.76642L101.618 5.8208L107.124 11.0217L106.123 11.9674Z" fill="#98989C"/>
<path d="M41.632 57.657C36.2232 61.278 29.8131 67.3439 22.7072 74.0439C-2.73763 98.0766 -2.74984 98.0882 3.34274 103.843C9.43533 109.597 9.44754 109.586 34.9045 85.5529C42.0105 78.8413 48.4205 72.787 52.2544 67.6783L41.632 57.657Z" fill="#8F1818"/>
<path d="M42.9506 58.9026C37.8226 62.7773 31.4003 68.8432 24.2943 75.5433C-1.15044 99.5875 -1.16265 99.599 2.8421 103.37C6.84684 107.152 6.85905 107.141 32.3038 83.0967C39.4098 76.3851 45.8198 70.3308 49.9223 65.4758L42.9506 58.9026Z" fill="#470505"/>
<path d="M51.0344 66.5252C46.8832 71.334 40.4732 77.3999 33.3672 84.0999C7.91018 108.144 7.91018 108.156 4.23509 104.685C0.560005 101.213 0.572213 101.202 26.0292 77.1692C33.1352 70.4576 39.5452 64.4033 44.6366 60.4824L51.0344 66.5252Z" fill="#470505"/>
<path d="M44.5253 60.3901C39.5438 64.4033 33.1215 70.4691 26.0156 77.1692C0.570766 101.213 0.558559 101.213 3.40339 103.912C6.24823 106.599 6.26044 106.599 31.7174 82.5546C38.8234 75.843 45.2334 69.7887 49.4824 65.0721L44.5253 60.3901Z" fill="#8F1818"/>
<path d="M52.5098 67.9205L41.3747 57.4034C40.3491 56.4347 40.3491 54.8663 41.3747 53.8976L42.8765 52.4792C43.9021 51.5105 45.5626 51.5105 46.5882 52.4792L57.7233 62.9964C58.7489 63.9651 58.7489 65.5334 57.7233 66.5021L56.2215 67.9205C55.1959 68.8892 53.5354 68.8892 52.5098 67.9205Z" fill="#8F1818"/>
<path d="M51.1787 66.6751L42.7052 58.6719C41.9238 57.9339 42.1192 56.55 43.1448 55.5814L44.6466 54.1629C45.6722 53.1942 47.1373 53.0097 47.9187 53.7478L56.3922 61.751C57.1736 62.489 56.9782 63.8729 55.9526 64.8415L54.4509 66.26C53.4253 67.2171 51.9601 67.4016 51.1787 66.6751Z" fill="#470505"/>
<path d="M48.4702 64.1149L45.5399 61.3472C45.2713 61.0935 45.8817 60.1018 46.9074 59.1331L48.4091 57.7147C49.4347 56.746 50.4848 56.1694 50.7534 56.4231L53.6837 59.1908C53.9523 59.4445 53.3418 60.4362 52.3162 61.4049L50.8144 62.8233C49.7888 63.792 48.7388 64.3686 48.4702 64.1149Z" fill="#8F1818"/>
</svg>
