<svg width="118" height="107" viewBox="0 0 118 107" fill="none" xmlns="http://www.w3.org/2000/svg">
<path d="M19.1213 78.7996C26.8206 71.6935 42.6713 59.6035 47.7353 54.9296L88.3503 17.4434L97.0056 25.4318L56.3905 62.9181C51.2878 67.6277 38.2274 82.2216 30.5281 89.3278C8.91583 109.275 8.91583 109.275 3.21887 104.005C-2.49101 98.747 -2.49101 98.747 19.1213 78.7996Z" fill="#8F1818"/>
<path d="M92.0431 21.4617L96.3707 25.4559L55.7556 62.9422C50.6529 67.6518 37.5925 82.2457 29.8932 89.3518C8.28095 109.299 8.28095 109.299 2.58398 104.029C15.8252 91.808 92.0431 21.4617 92.0431 21.4617Z" fill="#8F1818"/>
<path d="M89.856 18.8381L25.75 78.0056L31.4225 83.2412L95.5286 24.0736L89.856 18.8381Z" fill="#470505"/>
<path d="M19.1213 78.8C26.8206 71.6938 42.6713 59.6038 47.7353 54.9299L56.3905 62.9184C51.2878 67.628 38.2274 82.2219 30.5281 89.3281C8.91583 109.275 8.91583 109.275 3.21887 104.005C-2.49101 98.7473 -2.49101 98.7473 19.1213 78.8Z" fill="#6D6D6E"/>
<path d="M22.1573 79.5152C29.5465 72.6951 44.325 60.7363 49.1823 56.2532L54.9439 61.5709C50.0607 66.0778 37.1295 79.694 29.7403 86.514C9.03229 105.651 9.03229 105.651 5.23431 102.145C1.44926 98.6398 1.44926 98.6398 22.1573 79.5152Z" fill="#E4E4E4"/>
<path d="M109.034 36.7232L117.999 28.4485L117.663 26.982L94.6041 5.71117L76.8802 0L72.4492 4.08963L107.458 36.4012L109.034 36.7232Z" fill="#D8DADC"/>
<path d="M109.034 36.7231L117.999 28.4485L115.945 27.6854L96.3093 9.5623L74.5032 4.0896H72.4492L107.458 36.4012L109.034 36.7231Z" fill="#98989C"/>
<path d="M108.166 34.8512L115.762 27.8404C115.853 27.7569 115.853 27.6138 115.762 27.5304L93.4009 6.87955C93.3751 6.85571 93.3492 6.84378 93.3105 6.83186L77.421 1.57377C77.3306 1.54992 77.2401 1.56185 77.1755 1.62146L74.6694 3.93455C74.579 4.01801 74.579 4.16108 74.6694 4.24455L107.831 34.8512C107.934 34.9346 108.076 34.9346 108.166 34.8512Z" fill="#6D6D6E"/>
<path d="M98.8784 78.7996C91.1792 71.6935 75.3284 59.6035 70.2645 54.9296L29.6494 17.4434L20.9941 25.4318L61.6092 62.9181C66.7119 67.6277 79.7723 82.2216 87.4716 89.3278C109.084 109.275 109.084 109.275 114.781 104.005C120.491 98.747 120.491 98.747 98.8784 78.7996Z" fill="#8F1818"/>
<path d="M25.3218 21.4377L20.9941 25.432L61.6092 62.9182C66.7119 67.6279 79.7723 82.2217 87.4716 89.3279C109.084 109.275 109.084 109.275 114.781 104.005C101.54 91.7841 25.3218 21.4377 25.3218 21.4377Z" fill="#8F1818"/>
<path d="M28.1413 18.8284L22.4688 24.064L86.5748 83.2315L92.2473 77.996L28.1413 18.8284Z" fill="#470505"/>
<path d="M98.8786 78.8C91.1793 71.6938 75.3286 59.6038 70.2646 54.9299L61.6094 62.9184C66.7121 67.628 79.7725 82.2219 87.4718 89.3281C109.084 109.275 109.084 109.275 114.781 104.005C120.491 98.7473 120.491 98.7473 98.8786 78.8Z" fill="#6D6D6E"/>
<path d="M95.8413 79.5152C88.452 72.6951 73.6735 60.7363 68.8162 56.2532L63.0547 61.5709C67.9378 66.0778 80.869 79.694 88.2582 86.514C108.979 105.639 108.979 105.639 112.764 102.133C116.562 98.6398 116.562 98.6398 95.8413 79.5152Z" fill="#E4E4E4"/>
<path d="M8.96724 36.7232L0.00195312 28.4485L0.350747 26.982L23.397 5.71117L41.1208 0L45.5647 4.08963L10.5562 36.4012L8.96724 36.7232Z" fill="#D8DADC"/>
<path d="M8.96724 36.7231L0.00195312 28.4485L2.06888 27.6854L21.7047 9.5623L43.4978 4.0896H45.5647L10.5562 36.4012L8.96724 36.7231Z" fill="#98989C"/>
<path d="M9.83174 34.8512L2.23579 27.8404C2.14536 27.7569 2.14536 27.6138 2.23579 27.5304L24.5973 6.87955C24.6232 6.85571 24.649 6.84378 24.6878 6.83186L40.5772 1.57377C40.6677 1.54992 40.7581 1.56185 40.8227 1.62146L43.3288 3.93455C43.4193 4.01801 43.4193 4.16108 43.3288 4.24455L10.1676 34.8512C10.0772 34.9346 9.92217 34.9346 9.83174 34.8512Z" fill="#6D6D6E"/>
</svg>
