<svg width="118" height="107" viewBox="0 0 118 107" fill="none" xmlns="http://www.w3.org/2000/svg">
<path d="M114.19 34.9569C118.75 26.2167 118.201 17.8624 117.613 10.3672C117.588 9.96882 117.351 9.63266 117.001 9.4708L116.152 9.07239L109.192 23.4402C107.606 26.7894 103.608 28.2337 100.247 26.6524L74.5343 14.3514C74.2094 14.1895 73.8221 14.3638 73.7097 14.7C71.6731 20.6513 73.1474 31.172 68.5996 35.3304L9.20348 87.4605C4.68067 91.6439 4.60571 98.8651 9.20348 103.434L9.3659 103.596C13.9637 108.178 21.2101 108.091 25.3956 103.596C25.3956 103.596 72.1354 53.0599 77.2204 47.9178C82.293 42.7758 83.6923 43.0995 89.9018 43.6224C98.4102 44.3695 109.317 44.2948 114.19 34.9569ZM13.0016 99.8238C11.265 98.0932 11.265 95.2919 13.0016 93.5612C14.7383 91.8306 17.5494 91.8306 19.2861 93.5612C21.0227 95.2919 21.0227 98.0932 19.2861 99.8238C17.5494 101.542 14.7383 101.542 13.0016 99.8238Z" fill="#D8DADC"/>
<path d="M114.19 34.9569C118.75 26.2167 118.2 17.8624 117.613 10.3672C117.588 9.96882 117.351 9.63266 117.001 9.4708L116.151 9.07239L110.766 25.009L75.6709 42.3774C75.6709 42.3774 49.1837 69.0961 32.6043 90.6603C20.1103 106.921 15.3252 107.742 9.20312 103.434L9.36555 103.596C13.9633 108.178 21.2098 108.091 25.3953 103.596C25.3953 103.596 72.1351 53.0599 77.2201 47.9178C82.2926 42.7758 83.692 43.0995 89.9014 43.6224C98.4098 44.3695 109.317 44.2948 114.19 34.9569Z" fill="#B1B1B2"/>
<path d="M112.753 33.5251C117.313 24.7973 118.113 17.7877 117.601 10.3672C117.576 9.98127 117.338 9.63266 116.976 9.4708L116.126 9.07239L109.167 23.4402C107.581 26.7894 103.582 28.2337 100.222 26.6524L74.5091 14.3514C74.1842 14.202 73.7969 14.3638 73.6845 14.7C72.6725 17.6383 72.5226 21.6972 72.0853 25.5444C71.9353 26.9015 72.1602 34.8324 69.9988 36.7498L11.0649 89.3157C6.5421 93.499 7.86645 98.4045 11.0649 101.592C14.2633 104.779 19.3609 106.261 23.5463 101.754C23.5463 101.754 70.2861 51.2172 75.3712 46.0752C80.4437 40.9331 83.7046 43.0995 89.9141 43.6349C98.41 44.3695 107.88 42.8754 112.753 33.5251ZM13.0015 99.8238C11.2648 98.0932 11.2648 95.2919 13.0015 93.5612C14.7381 91.8306 17.5492 91.8306 19.2859 93.5612C21.0226 95.2919 21.0226 98.0932 19.2859 99.8238C17.5492 101.542 14.7381 101.542 13.0015 99.8238Z" fill="#E4E4E4"/>
<path d="M21.6838 99.8985C21.6838 99.8985 68.7984 49.7355 73.8835 44.5935C75.1204 43.2239 75.7825 41.3688 73.2338 39.5261C71.3847 38.1815 69.3232 39.8872 69.3232 39.8872L12.9131 91.1582C10.3393 93.5985 9.71462 96.5493 12.9131 99.7242C12.9256 99.7366 12.9505 99.7491 12.963 99.774C11.2639 98.0433 11.2764 95.2669 13.0005 93.5612C14.7372 91.8306 17.5483 91.8306 19.285 93.5612C21.0216 95.2918 21.0216 98.0931 19.285 99.8238C17.6608 101.442 15.0995 101.542 13.3628 100.135C16.4239 102.837 19.7597 102.003 21.6838 99.8985Z" fill="#8F1818"/>
<path d="M80.5672 15.4095C86.5268 9.53289 93.0736 4.86396 99.3081 0.49385C100.12 -0.0788713 101.17 -0.153574 102.057 0.269742L103.106 0.942067L92.7362 23.3529L80.942 17.6008C80.1049 17.2024 79.905 16.0694 80.5672 15.4095Z" fill="#B1B1B2"/>
<path d="M80.5685 15.4095C86.5281 9.53289 93.0749 4.86396 99.3094 0.49385C100.121 -0.0788713 101.171 -0.153574 102.058 0.269742L91.5756 21.2612C91.3383 21.7343 90.751 21.9336 90.2763 21.697L81.1182 17.2273C80.2686 16.8413 79.9063 16.0694 80.5685 15.4095Z" fill="#E4E4E4"/>
<path d="M83.9747 20.2419L77.6367 33.4233L88.3517 38.5396L94.6897 25.3581L83.9747 20.2419Z" fill="#98989C"/>
<path d="M88.3526 38.5301L77.6328 33.413L79.232 31.894L88.2776 36.2019L88.3526 38.5301Z" fill="#EDEEEF"/>
<path d="M27.5694 3.03394C19.8606 -0.875509 13.2513 0.344637 11.2273 0.867556C10.8275 0.96716 10.4902 1.24107 10.3027 1.60213L9.56561 3.04639L17.7741 7.22974C22.3594 9.57043 24.1835 15.1731 21.8346 19.7425L21.7472 19.9043C19.3983 24.4736 13.7761 26.2914 9.1783 23.9507L0.969782 19.7674L0.157676 21.3486C-0.0297327 21.7221 -0.0547205 22.1579 0.107701 22.5438C0.882324 24.4736 3.8059 30.3876 11.5147 34.3095C17.1494 37.1731 21.4723 36.5257 25.0706 33.5002C26.17 32.5789 27.8067 32.6287 28.8313 33.6496L82.1803 86.8131C82.8675 87.4979 83.2298 88.4815 83.0799 89.4402C82.4052 93.7854 83.7171 98.4294 87.0405 101.916L89.6017 99.3632L89.4768 99.3258L86.4783 88.7056L89.5892 85.6054L88.6022 84.6716L94.3244 78.9693L33.9538 18.7962C36.0527 12.1601 34.8283 6.74418 27.5694 3.03394Z" fill="#D8DADC"/>
<path d="M91.9264 76.5788L35.5538 20.3899C34.6042 19.4437 34.2044 18.0865 34.4918 16.7917C35.7412 11.0645 34.0795 6.35821 27.5577 3.03394C19.8614 -0.875509 13.2521 0.344637 11.2281 0.867556C10.8283 0.96716 10.491 1.24107 10.3035 1.60213L9.56641 3.04639L19.0993 7.90207C23.6846 10.2428 24.1843 15.1731 21.8354 19.7425L31.2434 24.4363L87.9034 80.8991C87.7659 81.0112 87.6285 81.1108 87.5036 81.2353L90.7645 84.4849L94.1254 81.1357L104.783 84.1238L104.82 84.2483L107.381 81.696C103.983 78.4838 99.4852 77.1516 95.2373 77.6869C94.0129 77.8363 92.7885 77.4379 91.9264 76.5788Z" fill="#B1B1B2"/>
<path d="M90.4032 77.4877L35.0051 22.2824C34.0056 21.2863 33.5933 19.8172 33.9556 18.4476C35.5673 12.2722 33.6432 7.55346 26.6966 4.20428C18.8379 0.406891 10.1546 1.9134 10.1546 1.9134L9.56743 3.04639L17.7759 7.22975C22.3612 9.57043 24.1853 15.1731 21.8365 19.7425L21.749 19.9043C19.4002 24.4736 13.7779 26.2914 9.18012 23.9507L0.971608 19.7674L0.421875 20.8381C0.421875 20.8381 4.22003 29.4414 12.0287 32.9898C17.8259 35.6293 21.9614 35.4799 25.3723 32.8653C27.009 31.6202 29.2954 31.6949 30.7571 33.1392L82.8693 85.0701C83.8564 86.0536 84.1937 87.4855 83.8564 88.8301C82.532 94.0219 84.1562 99.8114 88.754 103.534C93.939 107.742 101.523 107.767 106.733 103.609C113.554 98.168 113.954 88.22 107.957 82.2438C104.209 78.5087 98.924 77.2761 94.1514 78.5211C92.827 78.9071 91.3902 78.4713 90.4032 77.4877ZM107.532 95.2047L100.598 102.115C100.373 102.339 100.049 102.426 99.7486 102.339L90.2782 99.8114C89.9784 99.7243 89.741 99.5002 89.6535 99.1889L87.1173 89.7514C87.0298 89.4526 87.1173 89.1289 87.3422 88.9048L94.2763 81.9948C94.5012 81.7707 94.826 81.6835 95.1259 81.7707L104.596 84.2981C104.896 84.3853 105.134 84.6218 105.221 84.9207L107.757 94.3581C107.845 94.6569 107.757 94.9806 107.532 95.2047Z" fill="#E4E4E4"/>
<path d="M86.6657 81.1855L86.5283 81.3224C85.4663 82.3807 83.7421 82.3807 82.6676 81.3224L31.2926 30.1137C30.2306 29.0554 30.2306 27.3372 31.2926 26.2665L31.43 26.1295C32.492 25.0712 34.2162 25.0712 35.2906 26.1295L86.6782 77.3383C87.7277 78.409 87.7277 80.1272 86.6657 81.1855Z" fill="#470505"/>
</svg>
