<svg width="118" height="107" viewBox="0 0 118 107" fill="none" xmlns="http://www.w3.org/2000/svg">
<path d="M89.0031 104.253C97.0979 108.136 104.063 106.928 106.191 106.398C106.612 106.299 106.967 106.028 107.164 105.67L107.939 104.24L99.3056 100.098C94.4829 97.7799 92.5643 92.2318 95.0348 87.7071L95.1268 87.5469C97.5973 83.0222 103.511 81.2221 108.347 83.54L116.98 87.6825L117.834 86.1167C118.031 85.7468 118.058 85.3153 117.887 84.9331C117.072 83.0222 113.997 77.1659 105.889 73.2823C99.9626 70.4467 95.4159 71.0878 91.6313 74.0837C90.4749 74.996 88.7534 74.9467 87.6759 73.9358L31.564 21.2914C30.8413 20.6133 30.4602 19.6393 30.6179 18.69C31.3275 14.3872 29.9345 9.78852 26.4522 6.33643L23.7583 8.86385L23.8897 8.90084L27.0435 19.4174L23.7714 22.4873L24.8096 23.4243L18.791 29.0709L82.2881 88.6441C80.0804 95.2154 81.3682 100.591 89.0031 104.253Z" fill="#D8DADC"/>
<path d="M21.3139 31.4382L80.6059 87.0662C81.6046 88.0032 82.0251 89.3471 81.7229 90.6293C80.4088 96.3006 82.1565 100.961 89.0161 104.253C97.1109 108.136 104.076 106.928 106.204 106.398C106.625 106.299 106.98 106.028 107.177 105.671L107.952 104.24L97.9257 99.4321C93.103 97.1143 92.5773 92.232 95.0478 87.7073L85.1658 83.0716L25.5453 27.1601C25.6899 27.0491 25.8344 26.9505 25.9658 26.8272L22.5361 23.6094L19.0011 26.9258L7.79191 23.9669L7.75249 23.8436L5.05859 26.371C8.63293 29.5519 13.3637 30.8711 17.8316 30.341C19.1194 30.1807 20.4072 30.5875 21.3139 31.4382Z" fill="#B1B1B2"/>
<path d="M22.9171 30.5381L81.1841 85.2045C82.2353 86.1908 82.669 87.6456 82.2879 89.0018C80.5927 95.1169 82.6164 99.7895 89.9228 103.106C98.2016 106.866 107.321 105.375 107.321 105.375L107.939 104.24L99.3054 100.098C94.4827 97.7799 92.5641 92.2319 95.0346 87.7072L95.1266 87.547C97.5971 83.0222 103.511 81.2222 108.346 83.5401L116.98 87.6826L117.558 86.6223C117.558 86.6223 113.563 78.103 105.35 74.5893C99.2529 71.9755 94.9032 72.1235 91.3157 74.7126C89.5943 75.9454 87.1895 75.8715 85.652 74.4413L30.8148 22.9805C29.7767 22.0065 29.4219 20.5887 29.7767 19.2572C31.1696 14.116 29.4613 8.3831 24.6254 4.69676C19.1851 0.54192 11.2085 0.504933 5.71558 4.62278C-1.44623 10.0105 -1.87988 19.8613 4.42777 25.7915C8.37006 29.4902 13.9287 30.7107 18.9485 29.4778C20.3677 29.1326 21.879 29.5641 22.9171 30.5381ZM4.90085 12.9941L12.1941 6.15157C12.4175 5.92965 12.7591 5.84335 13.0877 5.91732L23.0485 8.42008C23.3639 8.50639 23.6136 8.74064 23.7055 9.03653L26.3732 18.3818C26.4651 18.6777 26.3732 18.9983 26.1366 19.2202L18.8434 26.0627C18.6069 26.2847 18.2652 26.371 17.9498 26.2847L7.98897 23.7819C7.67359 23.6956 7.42391 23.4613 7.33192 23.1654L4.66431 13.8201C4.57232 13.5242 4.66431 13.2037 4.90085 12.9941Z" fill="#E4E4E4"/>
<path d="M26.8455 26.8764L26.9901 26.7408C28.1071 25.6928 29.9205 25.6928 31.0507 26.7408L85.0994 77.4496C86.2164 78.4975 86.2164 80.1989 85.0994 81.2592L84.9548 81.3948C83.8378 82.4427 82.0244 82.4427 80.8943 81.3948L26.8455 30.6737C25.7286 29.6258 25.7286 27.9244 26.8455 26.8764Z" fill="#B1B1B2"/>
<path d="M39.264 71.9632C36.8461 69.6947 32.9169 69.6947 30.499 71.9632C28.081 74.2317 28.081 77.918 30.499 80.1866C30.5384 80.2235 30.5778 80.2482 30.6172 80.2852L8.40904 101.121L6.01739 98.8772C5.84656 98.7169 5.80713 98.4703 5.9254 98.273L22.0493 71.4947L33.0089 61.2124C33.6659 60.5959 34.5595 60.2384 35.4925 60.2261L39.921 60.1521L46.0053 65.8604L39.3691 72.0865C39.3297 72.0372 39.3034 72.0002 39.264 71.9632Z" fill="#98989C"/>
<path d="M40.0132 71.4696L30.3867 80.5012L35.1163 84.9386L44.7428 75.907L40.0132 71.4696Z" fill="#898989"/>
<path d="M35.2827 67.0304L25.6562 76.062L30.3859 80.4994L40.0123 71.4678L35.2827 67.0304Z" fill="#B1B1B2"/>
<path d="M39.2385 71.9263C41.6564 74.1948 41.6564 77.8811 39.2385 80.1497C36.8206 82.4182 32.8914 82.4182 30.4735 80.1497C30.4341 80.1127 30.4078 80.0757 30.3684 80.0387L8.16016 100.875L10.5518 103.118C10.7226 103.279 10.9855 103.316 11.1957 103.205L39.7379 88.0771L50.6974 77.7948C51.3545 77.1784 51.7355 76.34 51.7487 75.4647L51.8275 71.3098L45.7433 65.6016L39.1071 71.8277C39.1465 71.8646 39.1991 71.8893 39.2385 71.9263Z" fill="#D8DADC"/>
<path d="M30.7623 80.3837L8.80373 100.985C8.65917 101.121 8.65917 101.331 8.80373 101.466L9.30308 101.935C9.42135 102.046 9.60532 102.07 9.74987 101.984L37.0042 86.0303C37.2276 85.8947 37.4379 85.7345 37.635 85.5619L49.0939 74.8111C49.2516 74.6631 49.3961 74.5028 49.5275 74.3302L51.8403 71.3097L54.1137 69.1398C55.6512 67.6973 58.6736 67.0685 62.4976 66.2671C69.2127 64.8616 78.4245 62.926 88.635 54.8999C99.0426 46.7135 102.722 39.4888 105.968 33.1024C108.084 28.9476 109.91 25.3598 113.393 22.0804L108.123 17.1365C103.721 21.2667 101.539 25.5571 99.2397 30.0941C96.1779 36.1106 93.0241 42.3244 83.8517 49.5368C75.0341 56.478 67.1758 58.1177 60.8813 59.4369C56.0717 60.4479 51.9192 61.3109 48.8442 64.1959L46.9519 65.9712C46.7285 66.1808 46.3737 66.1808 46.1503 65.9712L45.7692 65.6137L39.133 71.8398C39.1725 71.8768 39.2119 71.9014 39.2513 71.9384C41.6692 74.2069 41.6692 77.8933 39.2513 80.1618C37.8321 81.4933 35.8609 81.9865 34.0606 81.8015C32.7728 81.6413 31.4062 80.9878 30.7623 80.3837Z" fill="#98989C"/>
<path d="M57.4256 25.6189C48.8709 35.1984 46.8077 43.841 45.3097 50.1411C44.4555 53.7288 43.7853 56.5644 42.2478 58.0069L39.935 60.1398L36.7155 62.3097C36.5315 62.433 36.3607 62.5686 36.203 62.7165L24.7441 73.4673C24.5601 73.6399 24.3893 73.8372 24.2447 74.0591L7.22719 99.6292C7.1352 99.7649 7.16148 99.9375 7.27975 100.048L8.06821 100.788C8.21276 100.924 8.43616 100.924 8.58071 100.788C11.0512 98.4827 30.5787 80.2112 30.5524 80.1742C28.1344 77.9057 28.095 74.2194 30.513 71.9509C32.9309 69.6824 36.86 69.6824 39.278 71.9509C39.3174 71.9879 39.3437 72.0248 39.3831 72.0618L46.0193 65.8357L45.625 65.4659C45.4148 65.2686 45.4148 64.9357 45.625 64.7385L47.5305 62.9508C50.6055 60.0658 51.5253 56.1699 52.6029 51.6575C54.009 45.7396 55.7567 38.3793 63.1551 30.1066C70.8294 21.501 77.4656 18.5421 83.8783 15.6695C88.7142 13.4996 93.2873 11.453 97.6895 7.33512L92.42 2.39124C88.9245 5.67072 85.1004 7.38444 80.672 9.35706C73.8518 12.4023 66.1512 15.8544 57.4256 25.6189Z" fill="#E4E4E4"/>
<path d="M97.741 1.46662C95.9932 -0.173128 92.708 -0.604639 90.9603 1.0351C87.5568 4.22829 83.7853 5.91735 79.4094 7.86531C72.5366 10.9352 64.7572 14.4243 55.9265 24.3121C47.2535 34.0272 45.6371 43.1876 44.1128 49.5616C43.2849 53.0384 42.6278 55.7877 41.248 57.0823L48.0288 63.444C51.2483 60.4234 52.2076 56.4288 53.2983 51.8178C54.6912 45.9739 56.4127 38.6999 63.6928 30.5628C71.2751 22.0805 77.8193 19.1463 84.1664 16.3106C88.8577 14.2147 93.6936 12.0448 98.1878 7.82833C99.9487 6.18858 99.4887 3.10636 97.741 1.46662Z" fill="#8F1818"/>
<path d="M95.4661 5.26401C92.0626 8.45719 88.2912 10.1463 83.9152 12.0942C77.0425 15.1641 69.2631 18.6532 60.4323 28.541C51.7593 38.2561 50.143 47.4165 48.6186 53.7905C47.7908 57.2673 47.1337 60.0166 45.7539 61.3112L48.0404 63.4564C51.26 60.4358 52.2193 56.4413 53.31 51.8302C54.7029 45.9864 56.4244 38.7123 63.7044 30.5752C71.2868 22.093 77.831 19.1587 84.178 16.323C88.8694 14.2271 93.7052 12.0572 98.1994 7.84075C99.2113 6.89142 99.4872 5.4736 99.1981 4.11742C98.9879 3.11878 97.2139 3.62427 95.4661 5.26401Z" fill="#470505"/>
<path d="M114.376 17.0628C116.124 18.7026 116.584 21.7848 114.836 23.4245C111.432 26.6177 109.632 30.1561 107.556 34.2616C104.284 40.7096 100.565 48.0083 90.0258 56.2934C79.6707 64.4304 69.907 65.9469 63.1131 67.377C59.4074 68.1538 56.4769 68.7702 55.0971 70.0647L48.3164 63.703C51.5359 60.6824 55.7936 59.7824 60.7083 58.7591C66.9371 57.4523 74.6903 55.8372 83.3633 49.007C92.4043 41.8809 95.5318 35.7411 98.5543 29.7862C100.788 25.3848 103.101 20.8478 107.595 16.6313C109.33 14.9916 112.628 15.4231 114.376 17.0628Z" fill="#470505"/>
<path d="M40.1717 66.5509C41.5778 65.2317 43.8512 65.2317 45.2573 66.5509C46.6634 67.8701 46.6634 70.003 45.2573 71.3222C43.8512 72.6414 41.5778 72.6414 40.1717 71.3222C38.7657 70.003 38.7657 67.8701 40.1717 66.5509Z" fill="#898989"/>
<path d="M42.7072 71.2975C44.0934 71.2975 45.2171 70.2432 45.2171 68.9427C45.2171 67.6422 44.0934 66.5879 42.7072 66.5879C41.321 66.5879 40.1973 67.6422 40.1973 68.9427C40.1973 70.2432 41.321 71.2975 42.7072 71.2975Z" fill="#504F53"/>
<path d="M46.5026 63.9002C46.5026 63.9002 45.136 63.6413 43.2963 61.9152C41.6274 60.3495 41.2331 58.9563 41.2331 58.9563L39.9453 60.1645L45.6091 65.4783C45.6091 65.4783 45.2411 65.0961 45.6091 64.7509C45.9901 64.3933 46.5026 63.9002 46.5026 63.9002Z" fill="#504F53"/>
<path d="M112.273 21.0326C108.87 24.2258 107.07 27.7642 104.993 31.8697C101.721 38.3177 98.0023 45.6164 87.4633 53.9014C77.1082 62.0385 67.3445 63.555 60.5506 64.9851C56.8449 65.7618 53.9144 66.3783 52.5346 67.6728L48.3164 63.7152C51.5359 60.6947 55.7936 59.7947 60.7083 58.7714C66.9371 57.4645 74.6903 55.8494 83.3633 49.0192C92.4043 41.8931 95.5318 35.741 98.5543 29.7984C100.788 25.397 103.101 20.86 107.595 16.6435C108.607 15.6942 110.118 15.4353 111.564 15.7065C112.628 15.9038 115.164 18.3202 112.273 21.0326Z" fill="#8F1818"/>
</svg>
