<svg width="50" height="51" viewBox="0 0 50 51" fill="none" xmlns="http://www.w3.org/2000/svg">
<path d="M50 43.7039C50 47.2188 47.1513 50.0675 43.6364 50.0675H6.36364C2.84873 50.0675 0 47.2188 0 43.7039V6.43114C0 2.91624 2.84873 0.0675049 6.36364 0.0675049H43.6364C47.1513 0.0675049 50 2.91624 50 6.43114V43.7039Z" fill="#E4E4E4"/>
<path d="M25.3151 5.1308C16.2283 5.1308 8.85938 12.4997 8.85938 21.5865C8.85938 30.6733 25.3151 46.0503 25.3151 46.0503C25.3151 46.0503 41.7708 30.6733 41.7708 21.5865C41.7708 12.4997 34.4019 5.1308 25.3151 5.1308ZM25.3151 27.8634C21.7594 27.8634 18.874 24.978 18.874 21.4222C18.874 17.8665 21.7594 14.9811 25.3151 14.9811C28.8708 14.9811 31.7562 17.8665 31.7562 21.4222C31.7562 24.9824 28.8752 27.8634 25.3151 27.8634Z" fill="#6C0606"/>
<path d="M25.3146 28.9731C21.1507 28.9731 17.7637 25.5861 17.7637 21.4223C17.7637 17.2584 21.1507 13.8714 25.3146 13.8714C29.4784 13.8714 32.8654 17.2584 32.8654 21.4223C32.8654 25.5861 29.4784 28.9731 25.3146 28.9731ZM25.3146 16.0909C22.3759 16.0909 19.9832 18.4836 19.9832 21.4223C19.9832 24.3609 22.3759 26.7536 25.3146 26.7536C28.2532 26.7536 30.6459 24.3609 30.6459 21.4223C30.6459 18.4836 28.2577 16.0909 25.3146 16.0909Z" fill="#470505"/>
</svg>
