<svg width="50" height="51" viewBox="0 0 50 51" fill="none" xmlns="http://www.w3.org/2000/svg">
<path d="M49.999 43.7039C49.999 47.2188 47.1503 50.0675 43.6354 50.0675H6.36266C2.84775 50.0675 -0.000976562 47.2188 -0.000976562 43.7039V6.43114C-0.000976562 2.91624 2.84775 0.0675049 6.36266 0.0675049H43.6354C47.1503 0.0675049 49.999 2.91624 49.999 6.43114V43.7039Z" fill="#E4E4E4"/>
<path d="M24.9971 11.0675C16.7121 11.0675 9.99902 16.4117 9.99902 23.0046C9.99902 25.3291 10.8339 27.4921 12.2781 29.3286L10.7173 36.0675L17.4191 33.3051C19.6455 34.3463 22.2329 34.9418 25.0009 34.9418C33.286 34.9418 39.999 29.5975 39.999 23.0046C39.9953 16.4117 33.2822 11.0675 24.9971 11.0675Z" fill="#6C0606"/>
</svg>
