<svg width="791" height="779" viewBox="0 0 791 779" fill="none" xmlns="http://www.w3.org/2000/svg">
<path d="M257.218 184.708C263.923 182.022 267.187 174.403 264.503 167.684C261.816 160.979 254.197 157.714 247.478 160.399C240.773 163.086 237.509 170.704 240.194 177.424C242.88 184.129 250.513 187.395 257.218 184.708Z" fill="url(#paint0_radial_76_1463)"/>
<path d="M316.027 219.45C322.732 216.763 325.996 209.144 323.311 202.425C320.625 195.72 313.006 192.456 306.287 195.141C299.582 197.827 296.317 205.446 299.002 212.165C301.689 218.87 309.322 222.136 316.027 219.45Z" fill="url(#paint1_radial_76_1463)"/>
<path d="M287.918 202.678C294.623 199.991 297.888 192.373 295.203 185.654C292.516 178.949 284.898 175.684 278.178 178.369C271.474 181.056 268.209 188.674 270.894 195.394C273.581 202.098 281.214 205.365 287.918 202.678Z" fill="url(#paint2_radial_76_1463)"/>
<path d="M642.447 145.621C649.152 142.935 652.416 135.316 649.731 128.597C647.044 121.892 639.426 118.628 632.707 121.312C626.002 123.999 622.737 131.618 625.422 138.337C628.109 145.042 635.742 148.308 642.447 145.621Z" fill="url(#paint3_radial_76_1463)"/>
<path d="M701.255 180.363C707.96 177.676 711.225 170.057 708.54 163.338C705.853 156.633 698.234 153.369 691.515 156.054C684.81 158.74 681.546 166.359 684.231 173.078C686.917 179.783 694.551 183.049 701.255 180.363Z" fill="url(#paint4_radial_76_1463)"/>
<path d="M673.147 163.591C679.852 160.905 683.116 153.286 680.431 146.567C677.745 139.862 670.126 136.597 663.407 139.282C656.702 141.969 653.438 149.588 656.123 156.307C658.809 163.012 666.442 166.278 673.147 163.591Z" fill="url(#paint5_radial_76_1463)"/>
<path d="M433.011 630.879C434.82 630.879 436.546 630.462 437.855 629.712C439.386 628.822 440.221 627.599 440.221 626.209C440.221 624.847 439.358 623.569 437.827 622.679C436.491 621.901 434.765 621.484 432.928 621.484C431.118 621.484 429.392 621.901 428.084 622.652C426.553 623.541 425.718 624.764 425.718 626.154C425.718 626.821 425.912 627.46 426.302 628.044L415.613 634.465L415.807 634.798C414.499 634.076 412.801 633.659 411.019 633.659C409.21 633.659 407.484 634.076 406.176 634.826C404.645 635.716 403.81 636.939 403.81 638.328C403.81 639.69 404.673 640.969 406.204 641.858C407.54 642.637 409.266 643.054 411.103 643.054C412.912 643.054 414.638 642.637 415.947 641.886C417.478 640.997 418.313 639.774 418.313 638.384C418.313 637.606 418.007 636.855 417.478 636.188L428.195 629.767C429.531 630.462 431.229 630.879 433.011 630.879ZM429.309 624.764C430.255 624.236 431.563 623.902 432.955 623.902C434.347 623.902 435.683 624.208 436.63 624.764C437.382 625.181 437.799 625.709 437.799 626.182C437.799 626.654 437.381 627.154 436.658 627.571C434.765 628.655 431.229 628.655 429.336 627.544C428.585 627.099 428.167 626.599 428.167 626.126C428.167 625.681 428.585 625.181 429.309 624.764ZM414.778 639.774C412.885 640.858 409.349 640.858 407.456 639.746C406.705 639.329 406.287 638.801 406.287 638.328C406.287 637.856 406.705 637.356 407.428 636.939C408.375 636.41 409.683 636.077 411.075 636.077C412.467 636.077 413.803 636.383 414.75 636.939C415.501 637.356 415.919 637.884 415.919 638.356C415.919 638.829 415.501 639.357 414.778 639.774Z" fill="white"/>
<path d="M307.352 626.154L353.061 599.581L282.466 561.195L323.108 535.873L291.903 519.307C292.181 518.806 292.32 518.25 292.32 517.695C292.32 516.333 291.457 515.054 289.926 514.164C288.59 513.386 286.864 512.969 285.027 512.969C283.217 512.969 281.491 513.386 280.183 514.137C278.652 515.026 277.817 516.249 277.817 517.639C277.817 519.001 278.68 520.28 280.211 521.169C281.547 521.947 283.273 522.364 285.11 522.364C286.92 522.364 288.646 521.947 289.954 521.197C290.01 521.169 290.038 521.141 290.093 521.113L318.265 536.068L277.678 561.362L348.134 599.692L306.128 624.097L307.352 626.154ZM281.464 519.057C280.712 518.64 280.294 518.111 280.294 517.639C280.294 517.166 280.712 516.666 281.436 516.249C282.382 515.721 283.691 515.387 285.082 515.387C286.474 515.387 287.811 515.693 288.757 516.249C289.509 516.666 289.926 517.194 289.926 517.667C289.926 518.139 289.509 518.64 288.785 519.057C286.892 520.141 283.357 520.141 281.464 519.057Z" fill="white"/>
<path d="M173.817 485.034C175.125 485.785 176.851 486.202 178.661 486.202C179.746 486.202 180.804 486.035 181.778 485.757L222.811 508.939L185.676 529.508L272.166 580.291L273.391 578.206L190.547 529.563L227.766 508.939L184.395 484.451C185.397 483.617 185.954 482.588 185.954 481.504C185.954 480.115 185.119 478.891 183.588 478.002C182.279 477.252 180.581 476.835 178.744 476.835C176.907 476.835 175.181 477.252 173.845 478.03C172.341 478.891 171.479 480.17 171.479 481.56C171.479 482.922 172.314 484.173 173.817 485.034ZM175.07 480.115C176.016 479.559 177.38 479.253 178.744 479.253C180.108 479.253 181.444 479.559 182.391 480.115C183.115 480.531 183.532 481.032 183.532 481.504C183.532 481.977 183.115 482.505 182.363 482.922C180.47 484.006 176.935 484.034 175.042 482.95C174.318 482.533 173.9 482.032 173.9 481.56C173.9 481.06 174.318 480.559 175.07 480.115Z" fill="white"/>
<path d="M35.6318 528.563C36.9402 529.313 38.6661 529.73 40.4755 529.73C41.8395 529.73 43.1479 529.508 44.2892 529.063L125.296 576.177L111.711 583.932L192.913 631.38L194.138 629.295L116.555 583.96L130.112 576.233L46.5997 527.618C47.3514 526.867 47.7689 525.978 47.7689 525.033C47.7689 523.671 46.9338 522.42 45.4027 521.53C44.0944 520.78 42.3685 520.363 40.559 520.363C38.7218 520.363 36.9958 520.78 35.6596 521.558C34.1564 522.42 33.2656 523.726 33.2656 525.088C33.2656 526.45 34.1007 527.673 35.6318 528.563ZM36.8567 523.643C37.8031 523.087 39.1393 522.781 40.5312 522.781C41.8952 522.781 43.2314 523.087 44.1779 523.643C44.9017 524.06 45.3192 524.56 45.3192 525.033C45.3192 525.505 44.9017 526.033 44.1501 526.45C42.2571 527.534 38.7218 527.562 36.8288 526.478C36.105 526.061 35.6875 525.561 35.6875 525.088C35.6875 524.588 36.105 524.088 36.8567 523.643Z" fill="white"/>
<path d="M15.6996 654.589C14.3913 653.839 12.6653 653.422 10.8559 653.422C9.01863 653.422 7.29271 653.839 5.95652 654.617C4.42546 655.479 3.5625 656.785 3.5625 658.147C3.5625 659.537 4.39762 660.76 5.92868 661.649C7.23704 662.4 8.96296 662.817 10.7724 662.817C12.554 662.817 14.2521 662.4 15.5604 661.677L45.3186 679.939C44.7897 680.606 44.4835 681.356 44.4835 682.135C44.4835 683.497 45.3186 684.748 46.8497 685.637C48.158 686.388 49.884 686.804 51.6934 686.804C53.5307 686.804 55.2566 686.388 56.5928 685.609C58.096 684.748 58.9868 683.441 58.9868 682.079C58.9868 680.717 58.1517 679.466 56.6206 678.577C55.3122 677.826 53.5863 677.409 51.7769 677.409C49.9953 677.409 48.2972 677.826 46.9889 678.549L47.1837 678.216L17.4812 659.981C17.8709 659.398 18.0658 658.758 18.0658 658.091C18.0658 656.702 17.2307 655.451 15.6996 654.589ZM10.8002 660.371C9.43619 660.371 8.1 660.065 7.15353 659.509C6.42975 659.092 6.01219 658.592 6.01219 658.119C6.01219 657.647 6.42975 657.118 7.18136 656.702C8.12784 656.146 9.49187 655.84 10.8559 655.84C12.2199 655.84 13.5561 656.146 14.5026 656.702C15.2264 657.118 15.6439 657.619 15.6439 658.091C15.6439 658.564 15.2264 659.092 14.4748 659.509C13.5283 660.065 12.1921 660.371 10.8002 660.371ZM48.1024 680.689C49.0488 680.133 50.4129 679.828 51.7769 679.828C53.1409 679.828 54.4771 680.133 55.4236 680.689C56.1474 681.106 56.5649 681.607 56.5649 682.079C56.5649 682.552 56.1474 683.08 55.3958 683.497C53.5028 684.581 49.9675 684.609 48.0745 683.525C47.3507 683.108 46.9332 682.607 46.9332 682.135C46.9332 681.634 47.3507 681.106 48.1024 680.689Z" fill="white"/>
<path d="M545.586 663.845C545.586 664.512 545.808 665.152 546.17 665.735L516.44 683.969L516.635 684.303C515.326 683.58 513.628 683.163 511.847 683.163C510.037 683.163 508.311 683.58 507.003 684.331C505.472 685.22 504.637 686.443 504.637 687.833C504.637 689.195 505.5 690.474 507.031 691.363C508.367 692.141 510.093 692.558 511.93 692.558C513.74 692.558 515.465 692.141 516.774 691.391C518.305 690.501 519.14 689.278 519.14 687.889C519.14 687.11 518.834 686.36 518.305 685.693L548.063 667.431C549.371 668.153 551.07 668.57 552.851 668.57C554.661 668.57 556.386 668.153 557.695 667.403C559.226 666.514 560.061 665.291 560.061 663.901C560.061 662.539 559.198 661.26 557.667 660.371C556.331 659.592 554.605 659.175 552.768 659.175C550.958 659.175 549.232 659.592 547.924 660.343C546.421 661.205 545.586 662.455 545.586 663.845ZM549.177 665.263C548.425 664.818 548.007 664.318 548.007 663.845C548.007 663.373 548.425 662.872 549.149 662.455C550.095 661.927 551.404 661.594 552.795 661.594C554.187 661.594 555.523 661.899 556.47 662.455C557.222 662.9 557.639 663.4 557.639 663.873C557.639 664.345 557.222 664.846 556.498 665.263C555.551 665.791 554.243 666.124 552.851 666.124C551.487 666.124 550.123 665.819 549.177 665.263ZM516.718 687.861C516.718 688.333 516.301 688.834 515.577 689.251C513.684 690.335 510.149 690.335 508.256 689.223C507.504 688.806 507.086 688.278 507.086 687.805C507.086 687.333 507.504 686.832 508.228 686.415C509.174 685.887 510.483 685.554 511.874 685.554C513.266 685.554 514.603 685.859 515.549 686.415C516.301 686.86 516.718 687.388 516.718 687.861Z" fill="white"/>
<path d="M130.196 560.305C131.504 561.056 133.23 561.473 135.039 561.473C136.821 561.473 138.519 561.056 139.828 560.333L150.545 566.754C150.016 567.421 149.71 568.172 149.71 568.95C149.71 570.34 150.545 571.563 152.076 572.452C153.384 573.203 155.11 573.62 156.92 573.62C158.757 573.62 160.483 573.203 161.819 572.424C163.35 571.563 164.213 570.256 164.213 568.894C164.213 567.505 163.378 566.282 161.847 565.392C160.539 564.642 158.813 564.225 157.003 564.225C155.222 564.225 153.524 564.642 152.215 565.364L152.41 565.031L141.72 558.61C142.11 558.026 142.305 557.387 142.305 556.72C142.305 555.33 141.47 554.107 139.939 553.218C138.631 552.467 136.905 552.05 135.095 552.05C133.258 552.05 131.532 552.467 130.196 553.245C128.693 554.107 127.802 555.413 127.802 556.775C127.83 558.165 128.665 559.416 130.196 560.305ZM153.301 567.532C154.247 566.976 155.611 566.671 156.975 566.671C158.339 566.671 159.676 566.976 160.622 567.532C161.346 567.949 161.763 568.45 161.763 568.922C161.763 569.395 161.346 569.923 160.594 570.34C159.648 570.896 158.284 571.201 156.92 571.201C155.556 571.201 154.219 570.896 153.273 570.34C152.549 569.923 152.132 569.423 152.132 568.95C152.132 568.477 152.577 567.977 153.301 567.532ZM131.421 555.386C132.367 554.83 133.703 554.524 135.095 554.524C136.459 554.524 137.795 554.83 138.742 555.386C139.466 555.803 139.883 556.303 139.883 556.775C139.883 557.248 139.466 557.776 138.714 558.193C136.821 559.277 133.286 559.305 131.393 558.221C130.669 557.804 130.251 557.304 130.251 556.831C130.251 556.331 130.669 555.803 131.421 555.386Z" fill="white"/>
<path d="M237.899 616.425L239.123 614.341L173.371 576.01L197.562 561.056L142.472 528.952C143.029 528.285 143.307 527.506 143.307 526.728C143.307 525.338 142.472 524.115 140.941 523.226C139.632 522.475 137.907 522.058 136.097 522.058C134.26 522.058 132.534 522.475 131.198 523.254C129.695 524.115 128.804 525.422 128.804 526.784C128.804 528.146 129.639 529.397 131.17 530.286C132.478 531.036 134.204 531.453 136.014 531.453C137.6 531.453 139.104 531.12 140.328 530.536L192.83 561.139L168.639 576.094L237.899 616.425ZM132.395 528.173C131.671 527.757 131.253 527.256 131.253 526.784C131.253 526.311 131.671 525.783 132.423 525.366C133.369 524.81 134.733 524.504 136.097 524.504C137.461 524.504 138.797 524.81 139.744 525.366C140.468 525.783 140.885 526.283 140.885 526.756C140.885 527.228 140.468 527.757 139.716 528.173C137.823 529.23 134.288 529.258 132.395 528.173Z" fill="white"/>
<path d="M193.888 750.485L192.524 748.066L227.293 728.609L154.86 686.638C154.415 686.387 154.164 685.915 154.164 685.415C154.164 684.914 154.442 684.47 154.86 684.219L184.284 667.57L185.648 669.988L158.34 685.442L230.773 727.414C231.218 727.664 231.469 728.137 231.469 728.637C231.469 729.137 231.19 729.582 230.745 729.832L193.888 750.485Z" fill="white"/>
<path d="M247.725 721.521L219.832 705.622C219.386 705.372 219.136 704.899 219.136 704.399C219.136 703.899 219.414 703.426 219.86 703.204L232.915 695.949L234.279 698.367L223.395 704.427L249.144 719.103L247.725 721.521Z" fill="white"/>
<path d="M490.105 620.039C488.045 620.039 486.069 619.566 484.565 618.705C482.84 617.704 481.865 616.259 481.865 614.702C481.865 613.173 482.84 611.728 484.538 610.755C487.516 609.032 492.555 609.059 495.533 610.783C497.259 611.783 498.234 613.229 498.234 614.785C498.234 616.314 497.259 617.76 495.561 618.732C494.086 619.566 492.137 620.039 490.105 620.039ZM489.994 612.2C488.463 612.2 486.959 612.562 485.902 613.145C485.094 613.618 484.621 614.174 484.621 614.702C484.621 615.23 485.094 615.814 485.929 616.286C488.073 617.509 492.026 617.509 494.141 616.314C494.949 615.842 495.422 615.286 495.422 614.758C495.422 614.229 494.949 613.646 494.114 613.173C493.084 612.562 491.553 612.2 489.994 612.2Z" fill="white"/>
<path d="M389.083 657.091C387.218 657.091 385.465 656.674 384.101 655.868C382.514 654.95 381.623 653.616 381.623 652.199C381.623 650.781 382.514 649.447 384.073 648.557C386.745 647.001 391.283 647.029 393.983 648.585C395.57 649.502 396.46 650.837 396.46 652.254C396.46 653.672 395.57 655.006 394.011 655.895C392.674 656.674 390.921 657.091 389.083 657.091ZM389 650.142C387.664 650.142 386.355 650.447 385.465 650.976C384.797 651.365 384.407 651.809 384.407 652.226C384.407 652.643 384.824 653.116 385.492 653.505C387.33 654.561 390.809 654.561 392.619 653.533C393.287 653.144 393.677 652.699 393.677 652.282C393.677 651.865 393.259 651.392 392.591 651.003C391.672 650.447 390.364 650.142 389 650.142Z" fill="white"/>
<path d="M376.751 664.04C374.886 664.04 373.133 663.623 371.769 662.817C370.182 661.899 369.291 660.565 369.291 659.148C369.291 657.73 370.182 656.396 371.741 655.506C374.413 653.95 378.951 653.978 381.651 655.534C383.238 656.451 384.128 657.786 384.128 659.203C384.128 660.621 383.238 661.955 381.679 662.845C380.342 663.623 378.589 664.04 376.751 664.04ZM376.668 657.091C375.332 657.091 374.023 657.397 373.133 657.925C372.464 658.314 372.075 658.759 372.075 659.175C372.075 659.565 372.492 660.065 373.16 660.454C374.998 661.51 378.477 661.51 380.287 660.482C380.955 660.093 381.345 659.648 381.345 659.231C381.345 658.842 380.927 658.342 380.259 657.952C379.34 657.397 378.032 657.091 376.668 657.091Z" fill="white"/>
<path d="M364.419 670.989C362.554 670.989 360.801 670.572 359.437 669.766C357.85 668.848 356.959 667.514 356.959 666.097C356.959 664.679 357.85 663.345 359.409 662.455C362.081 660.899 366.619 660.926 369.319 662.483C370.906 663.4 371.796 664.735 371.796 666.152C371.796 667.57 370.906 668.904 369.347 669.793C368.01 670.572 366.257 670.989 364.419 670.989ZM364.336 664.04C363 664.04 361.691 664.345 360.801 664.873C360.132 665.263 359.743 665.707 359.743 666.124C359.743 666.513 360.16 667.014 360.828 667.403C362.666 668.459 366.145 668.459 367.955 667.431C368.623 667.042 369.013 666.597 369.013 666.18C369.013 665.791 368.595 665.29 367.927 664.901C367.008 664.345 365.7 664.04 364.336 664.04Z" fill="white"/>
<path d="M352.087 677.938C350.222 677.938 348.469 677.521 347.104 676.715C345.546 675.797 344.627 674.463 344.627 673.045C344.627 671.628 345.518 670.294 347.077 669.404C349.749 667.848 354.287 667.875 356.987 669.432C358.546 670.349 359.464 671.683 359.464 673.101C359.464 674.519 358.573 675.853 357.015 676.742C355.678 677.521 353.925 677.938 352.087 677.938ZM352.032 670.989C350.695 670.989 349.387 671.294 348.496 671.822C347.828 672.212 347.439 672.656 347.439 673.073C347.439 673.462 347.856 673.963 348.524 674.352C350.361 675.408 353.841 675.408 355.651 674.38C356.319 673.991 356.708 673.546 356.708 673.129C356.708 672.712 356.291 672.239 355.623 671.85C354.676 671.294 353.368 670.989 352.032 670.989Z" fill="white"/>
<path d="M339.755 684.886C337.89 684.886 336.136 684.469 334.772 683.663C333.214 682.746 332.295 681.412 332.295 679.994C332.295 678.577 333.186 677.243 334.745 676.353C337.417 674.797 341.954 674.824 344.655 676.381C346.214 677.298 347.132 678.632 347.132 680.05C347.132 681.468 346.241 682.802 344.683 683.691C343.374 684.469 341.62 684.886 339.755 684.886ZM339.7 677.937C338.363 677.937 337.055 678.243 336.164 678.771C335.496 679.16 335.106 679.605 335.106 680.022C335.106 680.411 335.524 680.912 336.192 681.301C338.029 682.357 341.509 682.357 343.319 681.329C343.987 680.939 344.376 680.495 344.376 680.078C344.376 679.689 343.959 679.188 343.291 678.799C342.372 678.243 341.036 677.937 339.7 677.937Z" fill="white"/>
<path d="M327.452 691.836C325.587 691.836 323.833 691.419 322.469 690.612C320.882 689.695 319.991 688.361 319.991 686.943C319.991 685.526 320.882 684.192 322.441 683.302C325.113 681.746 329.651 681.773 332.351 683.33C333.91 684.247 334.829 685.581 334.829 686.999C334.829 688.417 333.938 689.751 332.379 690.64C331.043 691.419 329.289 691.836 327.452 691.836ZM327.368 684.887C326.032 684.887 324.724 685.192 323.833 685.72C323.165 686.11 322.775 686.554 322.775 686.971C322.775 687.36 323.193 687.861 323.861 688.25C325.698 689.306 329.178 689.306 330.987 688.278C331.655 687.888 332.045 687.444 332.045 687.027C332.045 686.638 331.627 686.137 330.959 685.748C330.041 685.192 328.732 684.887 327.368 684.887Z" fill="white"/>
<path d="M315.12 698.784C313.254 698.784 311.501 698.368 310.137 697.561C308.578 696.644 307.659 695.31 307.659 693.892C307.659 692.475 308.55 691.141 310.109 690.251C312.781 688.695 317.319 688.722 320.019 690.279C321.606 691.196 322.497 692.53 322.497 693.948C322.497 695.366 321.606 696.7 320.047 697.589C318.711 698.368 316.957 698.784 315.12 698.784ZM315.036 691.836C313.7 691.836 312.392 692.141 311.501 692.669C310.833 693.059 310.443 693.503 310.443 693.92C310.443 694.337 310.861 694.81 311.529 695.199C313.366 696.255 316.846 696.255 318.655 695.227C319.323 694.837 319.713 694.393 319.713 693.976C319.713 693.587 319.295 693.086 318.627 692.697C317.708 692.141 316.4 691.836 315.036 691.836Z" fill="white"/>
<path d="M302.788 705.733C300.922 705.733 299.169 705.317 297.805 704.51C296.218 703.593 295.327 702.259 295.327 700.841C295.327 699.424 296.218 698.09 297.777 697.2C300.449 695.644 304.987 695.671 307.687 697.228C309.274 698.145 310.164 699.479 310.164 700.897C310.164 702.315 309.274 703.649 307.715 704.538C306.379 705.317 304.625 705.733 302.788 705.733ZM302.704 698.784C301.368 698.784 300.06 699.09 299.169 699.618C298.501 700.008 298.111 700.452 298.111 700.869C298.111 701.258 298.528 701.759 299.197 702.148C301.034 703.204 304.514 703.204 306.323 702.176C306.991 701.786 307.381 701.342 307.381 700.925C307.381 700.536 306.963 700.035 306.295 699.646C305.376 699.09 304.068 698.784 302.704 698.784Z" fill="white"/>
<path d="M163.823 657.091C161.986 657.091 160.232 656.674 158.896 655.895C157.337 655.006 156.446 653.672 156.446 652.254C156.446 650.837 157.337 649.475 158.924 648.585C161.624 647.029 166.162 647.029 168.834 648.557C170.393 649.447 171.284 650.781 171.284 652.199C171.284 653.616 170.393 654.978 168.806 655.868C167.47 656.674 165.688 657.091 163.823 657.091ZM163.907 650.142C162.543 650.142 161.234 650.447 160.316 650.976C159.648 651.365 159.23 651.837 159.23 652.254C159.23 652.643 159.62 653.116 160.288 653.505C162.125 654.561 165.577 654.561 167.414 653.477C168.082 653.088 168.5 652.616 168.5 652.199C168.5 651.809 168.11 651.337 167.442 650.948C166.551 650.447 165.243 650.142 163.907 650.142Z" fill="white"/>
<path d="M176.155 664.04C174.318 664.04 172.564 663.623 171.228 662.845C169.669 661.955 168.778 660.621 168.778 659.203C168.778 657.786 169.669 656.424 171.256 655.534C173.956 653.978 178.494 653.978 181.166 655.506C182.725 656.396 183.616 657.73 183.616 659.148C183.616 660.565 182.725 661.927 181.138 662.817C179.802 663.623 178.02 664.04 176.155 664.04ZM176.239 657.091C174.875 657.091 173.566 657.397 172.648 657.925C171.98 658.314 171.562 658.786 171.562 659.203C171.562 659.592 171.952 660.065 172.62 660.454C174.457 661.51 177.909 661.51 179.746 660.426C180.414 660.037 180.832 659.565 180.832 659.148C180.832 658.759 180.442 658.286 179.774 657.897C178.883 657.397 177.575 657.091 176.239 657.091Z" fill="white"/>
<path d="M188.487 670.989C186.65 670.989 184.896 670.572 183.56 669.793C182.001 668.904 181.11 667.57 181.11 666.152C181.11 664.735 182.001 663.373 183.588 662.483C186.288 660.926 190.826 660.926 193.498 662.455C195.057 663.345 195.948 664.679 195.948 666.097C195.948 667.514 195.057 668.876 193.47 669.766C192.106 670.572 190.352 670.989 188.487 670.989ZM188.571 664.04C187.207 664.04 185.898 664.345 184.98 664.874C184.312 665.263 183.894 665.735 183.894 666.152C183.894 666.541 184.284 667.014 184.952 667.403C186.761 668.459 190.241 668.459 192.078 667.375C192.746 666.986 193.164 666.513 193.164 666.097C193.164 665.707 192.774 665.235 192.106 664.846C191.188 664.345 189.907 664.04 188.571 664.04Z" fill="white"/>
<path d="M200.819 677.938C198.982 677.938 197.228 677.521 195.892 676.742C194.333 675.853 193.442 674.519 193.442 673.101C193.442 671.683 194.333 670.322 195.92 669.432C198.62 667.875 203.158 667.875 205.83 669.404C207.389 670.294 208.28 671.628 208.28 673.045C208.28 674.463 207.389 675.825 205.802 676.715C204.438 677.521 202.684 677.938 200.819 677.938ZM200.903 670.989C199.539 670.989 198.23 671.294 197.312 671.822C196.644 672.212 196.226 672.684 196.226 673.101C196.226 673.49 196.616 673.963 197.284 674.352C199.121 675.408 202.573 675.408 204.41 674.324C205.078 673.935 205.496 673.462 205.496 673.045C205.496 672.656 205.106 672.184 204.438 671.795C203.52 671.294 202.239 670.989 200.903 670.989Z" fill="white"/>
<path d="M213.151 684.887C211.314 684.887 209.56 684.47 208.224 683.691C206.665 682.802 205.774 681.468 205.774 680.05C205.774 678.632 206.665 677.27 208.252 676.381C210.952 674.824 215.49 674.824 218.162 676.353C219.721 677.243 220.612 678.577 220.612 679.994C220.612 681.412 219.721 682.774 218.134 683.664C216.77 684.47 215.016 684.887 213.151 684.887ZM213.235 677.938C211.871 677.938 210.562 678.243 209.644 678.771C208.976 679.161 208.558 679.633 208.558 680.05C208.558 680.439 208.948 680.912 209.616 681.301C211.453 682.357 214.905 682.357 216.742 681.273C217.41 680.884 217.828 680.411 217.828 679.994C217.828 679.605 217.438 679.133 216.77 678.744C215.852 678.243 214.571 677.938 213.235 677.938Z" fill="white"/>
<path d="M225.483 691.836C223.646 691.836 221.892 691.419 220.556 690.64C218.997 689.751 218.106 688.417 218.106 686.999C218.106 685.582 218.997 684.22 220.584 683.33C223.284 681.774 227.822 681.774 230.494 683.302C232.053 684.192 232.944 685.526 232.944 686.944C232.944 688.361 232.053 689.723 230.466 690.613C229.102 691.419 227.348 691.836 225.483 691.836ZM225.539 684.887C224.175 684.887 222.867 685.192 221.948 685.721C221.28 686.11 220.862 686.582 220.862 686.999C220.862 687.388 221.252 687.861 221.92 688.25C223.757 689.306 227.209 689.306 229.047 688.222C229.715 687.833 230.132 687.36 230.132 686.944C230.132 686.554 229.742 686.082 229.074 685.693C228.184 685.192 226.903 684.887 225.539 684.887Z" fill="white"/>
<path d="M237.815 698.785C235.978 698.785 234.224 698.368 232.888 697.589C231.329 696.7 230.438 695.366 230.438 693.948C230.438 692.531 231.329 691.169 232.916 690.279C235.616 688.723 240.154 688.723 242.826 690.251C244.385 691.141 245.276 692.475 245.276 693.893C245.276 695.31 244.385 696.672 242.798 697.562C241.434 698.368 239.653 698.785 237.815 698.785ZM237.871 691.836C236.507 691.836 235.199 692.141 234.28 692.67C233.612 693.059 233.194 693.531 233.194 693.948C233.194 694.337 233.584 694.81 234.252 695.199C236.089 696.255 239.541 696.255 241.379 695.171C242.047 694.782 242.464 694.309 242.464 693.893C242.464 693.503 242.075 693.031 241.406 692.642C240.516 692.141 239.235 691.836 237.871 691.836Z" fill="white"/>
<path d="M250.119 705.733C248.282 705.733 246.528 705.317 245.192 704.538C243.633 703.649 242.742 702.315 242.742 700.897C242.742 699.479 243.633 698.117 245.22 697.228C247.92 695.671 252.457 695.671 255.13 697.2C256.689 698.09 257.58 699.424 257.58 700.841C257.58 702.259 256.689 703.621 255.102 704.51C253.766 705.317 251.984 705.733 250.119 705.733ZM250.203 698.784C248.839 698.784 247.53 699.09 246.612 699.618C245.943 700.008 245.526 700.48 245.526 700.897C245.526 701.286 245.916 701.759 246.584 702.148C248.421 703.204 251.873 703.204 253.71 702.12C254.378 701.731 254.796 701.258 254.796 700.841C254.796 700.452 254.406 699.98 253.738 699.591C252.847 699.09 251.539 698.784 250.203 698.784Z" fill="white"/>
<path d="M317.124 754.71L302.509 744.981C302.119 744.703 301.869 744.259 301.897 743.786C301.924 743.313 302.175 742.869 302.593 742.619L348.524 716.685L317.875 698.451L319.295 696.061L352.004 715.518C352.422 715.768 352.7 716.24 352.672 716.741C352.672 717.241 352.394 717.686 351.976 717.936L305.933 743.925L318.655 752.403L317.124 754.71Z" fill="white"/>
<path d="M321.996 761.27C319.936 761.27 317.959 760.797 316.456 759.935C314.73 758.935 313.756 757.489 313.756 755.933C313.756 754.404 314.73 752.959 316.428 751.986C319.407 750.262 324.445 750.29 327.424 752.014C329.15 753.014 330.124 754.46 330.124 756.016C330.124 757.573 329.178 758.99 327.452 759.963C325.976 760.797 324.056 761.27 321.996 761.27ZM321.912 753.431C320.381 753.431 318.878 753.792 317.82 754.376C317.013 754.849 316.54 755.405 316.54 755.933C316.54 756.461 317.013 757.045 317.848 757.517C319.991 758.74 323.972 758.74 326.06 757.545C326.867 757.072 327.341 756.516 327.341 755.988C327.341 755.46 326.867 754.876 326.032 754.404C324.974 753.765 323.471 753.431 321.912 753.431Z" fill="white"/>
<path d="M365.839 741.729L351.224 732C350.835 731.723 350.584 731.278 350.612 730.805C350.64 730.333 350.89 729.888 351.308 729.638L373.049 717.046L330.263 690.918L331.71 688.556L376.473 715.879C376.89 716.129 377.141 716.602 377.141 717.074C377.141 717.574 376.863 718.019 376.445 718.269L354.62 730.916L367.37 739.394L365.839 741.729Z" fill="white"/>
<path d="M370.711 748.289C368.651 748.289 366.674 747.816 365.171 746.955C363.445 745.954 362.471 744.509 362.471 742.952C362.471 741.423 363.445 739.978 365.143 739.005C368.122 737.282 373.16 737.309 376.139 739.033C377.865 740.033 378.839 741.479 378.839 743.035C378.839 744.564 377.865 746.01 376.167 746.982C374.691 747.816 372.771 748.289 370.711 748.289ZM370.627 740.45C369.068 740.45 367.593 740.812 366.535 741.395C365.728 741.868 365.254 742.424 365.254 742.952C365.254 743.48 365.728 744.064 366.563 744.536C368.706 745.759 372.687 745.759 374.775 744.564C375.582 744.092 376.055 743.536 376.055 743.008C376.055 742.479 375.582 741.896 374.747 741.423C373.689 740.812 372.186 740.45 370.627 740.45Z" fill="white"/>
<path d="M187.736 757.6C185.676 757.6 183.7 757.128 182.196 756.266C180.47 755.266 179.496 753.82 179.496 752.264C179.496 750.735 180.47 749.29 182.168 748.317C185.147 746.593 190.186 746.621 193.164 748.344C194.89 749.345 195.864 750.79 195.864 752.347C195.864 753.876 194.89 755.321 193.192 756.294C191.717 757.128 189.768 757.6 187.736 757.6ZM187.652 749.762C186.121 749.762 184.618 750.123 183.56 750.707C182.753 751.18 182.28 751.736 182.28 752.264C182.28 752.792 182.753 753.376 183.588 753.848C185.704 755.071 189.685 755.071 191.8 753.876C192.608 753.403 193.081 752.847 193.081 752.319C193.081 751.791 192.608 751.207 191.772 750.735C190.715 750.123 189.211 749.762 187.652 749.762Z" fill="white"/>
<path d="M19.2633 741.673C17.2033 741.673 15.2269 741.201 13.7237 740.339C11.9977 739.339 11.0234 737.893 11.0234 736.337C11.0234 734.808 11.9977 733.363 13.6958 732.39C16.6744 730.666 21.713 730.694 24.6916 732.417C26.4175 733.418 27.3918 734.863 27.3918 736.42C27.3918 737.949 26.4175 739.394 24.7194 740.367C23.2441 741.229 21.2954 741.673 19.2633 741.673ZM19.1798 733.863C17.6487 733.863 16.1455 734.224 15.0877 734.808C14.2804 735.28 13.8072 735.836 13.8072 736.364C13.8072 736.893 14.2804 737.476 15.1155 737.949C17.259 739.172 21.2119 739.172 23.3276 737.977C24.1349 737.504 24.6081 736.948 24.6081 736.42C24.6081 735.892 24.1349 735.308 23.2997 734.836C22.2419 734.196 20.7387 733.863 19.1798 733.863Z" fill="white"/>
<path d="M69.8434 647.056C67.7834 647.056 65.807 646.584 64.3037 645.722C62.5778 644.721 61.6035 643.276 61.6035 641.719C61.6035 640.191 62.5778 638.745 64.2759 637.772C67.2545 636.049 72.2931 636.077 75.2717 637.8C76.9976 638.801 77.9719 640.246 77.9719 641.803C77.9719 643.359 77.0254 644.777 75.2995 645.75C73.8241 646.584 71.8755 647.056 69.8434 647.056ZM69.7599 639.218C68.2288 639.218 66.7256 639.579 65.6678 640.163C64.8605 640.635 64.3873 641.191 64.3873 641.719C64.3873 642.248 64.8605 642.831 65.6956 643.304C67.8391 644.527 71.792 644.527 73.9077 643.332C74.7149 642.859 75.1882 642.303 75.1882 641.775C75.1882 641.247 74.7149 640.663 73.8798 640.191C72.822 639.579 71.3188 639.218 69.7599 639.218Z" fill="white"/>
<path d="M8.23987 617.732C6.1799 617.732 4.20345 617.259 2.70023 616.398C0.974309 615.397 0 613.924 0 612.395C0 610.838 0.946472 609.421 2.67239 608.448C5.65099 606.725 10.6896 606.752 13.6682 608.476C15.3941 609.476 16.3684 610.922 16.3684 612.478C16.3684 614.007 15.3941 615.453 13.696 616.425C12.2206 617.259 10.272 617.732 8.23987 617.732ZM8.15636 609.893C6.6253 609.893 5.12208 610.255 4.06426 610.838C3.25698 611.311 2.78374 611.867 2.78374 612.395C2.78374 612.923 3.25698 613.507 4.0921 613.979C6.20774 615.202 10.1885 615.202 12.3041 614.007C13.1114 613.535 13.5847 612.979 13.5847 612.451C13.5847 611.922 13.1114 611.339 12.2763 610.866C11.2185 610.227 9.71526 609.893 8.15636 609.893Z" fill="white"/>
<path d="M261.589 748.122C259.529 748.122 257.552 747.65 256.049 746.788C254.323 745.787 253.349 744.342 253.349 742.785C253.349 741.257 254.323 739.811 256.021 738.838C259 737.115 264.038 737.143 267.017 738.866C268.743 739.867 269.717 741.312 269.717 742.869C269.717 744.425 268.771 745.843 267.045 746.816C265.597 747.65 263.648 748.122 261.589 748.122ZM261.505 740.284C259.974 740.284 258.471 740.645 257.413 741.229C256.606 741.701 256.132 742.257 256.132 742.785C256.132 743.313 256.606 743.897 257.441 744.37C259.556 745.593 263.565 745.593 265.653 744.397C266.46 743.925 266.933 743.369 266.933 742.841C266.933 742.313 266.46 741.729 265.625 741.256C264.567 740.645 263.064 740.284 261.505 740.284Z" fill="white"/>
<path d="M556.943 738.143L478.637 693.114L430.367 720.437L354.899 677.048L356.291 674.658L430.394 717.241L478.637 689.918L556.943 734.947L761.075 615.647L720.488 592.743L721.88 590.325L766.67 615.619L556.943 738.143Z" fill="white"/>
<path d="M455.42 749.651L454.724 749.234L343.291 684.47L344.683 682.079L455.448 746.427L591.74 668.709L669.323 711.904L785.433 643.026L708.908 600.165L710.272 597.747L791 642.97L669.378 715.101L591.74 671.878L455.42 749.651Z" fill="white"/>
<path d="M266.376 742.285L264.985 739.895L289.398 725.774L254.184 704.371L255.631 702.009L294.854 725.83L266.376 742.285Z" fill="white"/>
<path d="M24.2195 734.057L22.7441 731.695L103.5 681.551L144.254 704.872L196.923 675.102L198.287 677.521L144.227 708.068L103.556 684.803L24.2195 734.057Z" fill="white"/>
<path d="M502.855 665.791C500.795 665.791 498.819 665.318 497.315 664.457C495.59 663.456 494.615 662.011 494.615 660.454C494.615 658.925 495.59 657.48 497.288 656.507C500.266 654.784 505.305 654.811 508.283 656.535C510.009 657.535 510.984 658.981 510.984 660.537C510.984 662.066 510.009 663.512 508.311 664.484C506.836 665.318 504.887 665.791 502.855 665.791ZM502.772 657.952C501.241 657.952 499.737 658.314 498.68 658.897C497.872 659.37 497.399 659.926 497.399 660.454C497.399 660.982 497.872 661.566 498.707 662.038C500.823 663.261 504.804 663.261 506.919 662.066C507.727 661.594 508.2 661.038 508.2 660.51C508.2 659.981 507.727 659.398 506.892 658.925C505.834 658.314 504.331 657.952 502.772 657.952Z" fill="white"/>
<path d="M430.005 708.874C427.945 708.874 425.968 708.402 424.465 707.54C422.739 706.54 421.765 705.094 421.765 703.538C421.765 702.009 422.739 700.563 424.437 699.591C427.416 697.867 432.454 697.895 435.433 699.618C437.159 700.619 438.133 702.064 438.133 703.621C438.133 705.178 437.187 706.595 435.461 707.568C434.013 708.402 432.065 708.874 430.005 708.874ZM429.921 701.036C428.39 701.036 426.887 701.397 425.829 701.981C425.022 702.454 424.548 703.009 424.548 703.538C424.548 704.066 425.022 704.649 425.857 705.122C427.972 706.345 431.981 706.345 434.069 705.15C434.876 704.677 435.349 704.121 435.349 703.593C435.349 703.065 434.876 702.481 434.041 702.009C432.983 701.397 431.48 701.036 429.921 701.036Z" fill="white"/>
<path d="M421.486 685.804L381.345 663.178L382.709 660.76L421.458 682.579L482.923 646.695L499.626 656.507L498.234 658.897L482.923 649.919L421.486 685.804Z" fill="white"/>
<path d="M138.575 682.329L74.1875 645.083L75.6072 642.693L138.575 679.105L171.173 660.51L172.565 662.928L138.575 682.329Z" fill="white"/>
<path d="M436.295 569.845L326.715 632.998L328.106 635.405L437.686 572.252L436.295 569.845Z" fill="white"/>
<path d="M417.275 559.64L307.695 622.794L309.087 625.201L418.667 562.048L417.275 559.64Z" fill="white"/>
<path d="M378.088 539.034L268.508 602.187L269.899 604.594L379.479 541.441L378.088 539.034Z" fill="white"/>
<path d="M397.569 549.682L287.989 612.835L289.381 615.242L398.961 552.089L397.569 549.682Z" fill="white"/>
<path d="M158.619 652.06L70.9307 601.749L29.8983 625.348L12.834 615.953L14.198 613.507L29.8705 622.179L70.9307 598.525L160.01 649.669L158.619 652.06Z" fill="white"/>
<path d="M407.54 665.346L392.201 656.229L393.621 653.839L407.54 662.094L485.818 616.314L487.238 618.705L407.54 665.346Z" fill="white"/>
<path d="M369.256 668.187L367.894 670.611L424.969 702.585L426.331 700.161L369.256 668.187Z" fill="white"/>
<path d="M126.187 733.891C124.127 733.891 122.206 733.418 120.703 732.556C118.977 731.556 118.03 730.166 118.03 728.609C118.03 727.053 119.005 725.607 120.73 724.607C123.709 722.883 128.748 722.883 131.726 724.579C133.424 725.552 134.399 726.997 134.399 728.526C134.399 730.083 133.424 731.528 131.698 732.529C130.223 733.418 128.247 733.891 126.187 733.891ZM126.27 726.052C124.711 726.052 123.208 726.414 122.122 727.025C121.287 727.498 120.814 728.081 120.814 728.609C120.814 729.138 121.287 729.693 122.095 730.166C124.21 731.389 128.191 731.389 130.307 730.138C131.142 729.666 131.615 729.082 131.615 728.554C131.615 728.026 131.142 727.47 130.334 726.997C129.304 726.386 127.829 726.052 126.27 726.052Z" fill="white"/>
<path d="M208.454 681.153L129.857 725.101L131.218 727.526L209.814 683.578L208.454 681.153Z" fill="white"/>
<path d="M203.687 705.177C201.627 705.177 199.706 704.705 198.203 703.843C196.505 702.87 195.53 701.425 195.53 699.896C195.53 698.34 196.505 696.894 198.231 695.894C201.209 694.17 206.248 694.17 209.226 695.866C210.924 696.839 211.899 698.284 211.899 699.813C211.899 701.369 210.924 702.815 209.198 703.815C207.723 704.677 205.747 705.177 203.687 705.177ZM203.77 697.339C202.211 697.339 200.708 697.7 199.622 698.312C198.787 698.784 198.314 699.368 198.314 699.896C198.314 700.424 198.787 700.98 199.595 701.453C201.71 702.676 205.691 702.676 207.807 701.425C208.642 700.953 209.115 700.369 209.115 699.841C209.115 699.313 208.642 698.757 207.834 698.284C206.804 697.673 205.301 697.339 203.77 697.339Z" fill="white"/>
<path d="M252.096 728.248C250.036 728.248 248.115 727.776 246.612 726.914C244.886 725.913 243.939 724.523 243.939 722.967C243.939 721.41 244.914 719.965 246.64 718.964C249.618 717.241 254.657 717.241 257.635 718.936C259.334 719.909 260.308 721.355 260.308 722.883C260.308 724.44 259.334 725.885 257.608 726.886C256.132 727.775 254.156 728.248 252.096 728.248ZM252.179 720.41C250.62 720.41 249.117 720.771 248.032 721.382C247.196 721.855 246.723 722.439 246.723 722.967C246.723 723.495 247.196 724.051 248.004 724.523C250.119 725.746 254.1 725.746 256.216 724.496C257.051 724.023 257.524 723.439 257.524 722.911C257.524 722.383 257.051 721.827 256.244 721.355C255.214 720.771 253.738 720.41 252.179 720.41Z" fill="white"/>
<path d="M221.737 688.383L207.358 696.422L208.718 698.847L223.097 690.809L221.737 688.383Z" fill="white"/>
<path d="M324.222 719.075C322.162 719.075 320.186 718.603 318.683 717.741C316.957 716.741 315.982 715.295 315.982 713.739C315.982 712.21 316.957 710.764 318.655 709.792C321.633 708.068 326.672 708.096 329.651 709.819C331.377 710.82 332.351 712.265 332.351 713.822C332.351 715.379 331.404 716.796 329.678 717.769C328.231 718.603 326.282 719.075 324.222 719.075ZM324.139 711.237C322.608 711.237 321.105 711.598 320.047 712.182C319.239 712.655 318.766 713.211 318.766 713.739C318.766 714.267 319.239 714.85 320.075 715.323C322.218 716.546 326.199 716.546 328.287 715.351C329.094 714.878 329.567 714.322 329.567 713.794C329.567 713.266 329.094 712.682 328.259 712.21C327.201 711.571 325.698 711.237 324.139 711.237Z" fill="white"/>
<path d="M308.06 702.485L306.577 704.837L319.109 712.715L320.592 710.363L308.06 702.485Z" fill="white"/>
<g opacity="0.2">
<path opacity="0.0909" d="M397.036 504.226L413.818 494.088C414.497 493.669 445.984 475.072 446.585 475.45L457.411 469.72C462.3 466.676 469.458 465.669 475.667 465.669C481.06 465.669 486.822 467.495 490.702 469.909L566.422 516.568L582.563 526.517L674.425 583.125C677.393 584.972 680.129 587.827 681.564 590.639C682.689 592.864 683.368 595.278 683.446 597.797C683.621 604.366 679.896 610.6 673.164 614.798L656.382 624.936C655.703 625.356 624.216 643.952 623.615 643.574L612.789 649.305C607.9 652.348 600.742 653.355 594.533 653.355C589.14 653.355 583.378 651.529 579.498 649.116L503.778 602.456L487.637 592.507L395.775 535.899C392.807 534.052 390.071 531.197 388.636 528.385C387.511 526.16 386.832 523.746 386.754 521.207C386.579 514.637 390.304 508.424 397.036 504.226Z" fill="black"/>
<path opacity="0.1818" d="M398.705 505.653L415.04 495.893C416.398 495.033 445.887 478.262 447.07 478.997L457.566 474.316C461.95 471.567 469.594 471.399 475.181 471.399C480.032 471.399 486.201 473.645 489.674 475.807L563.163 521.144L578.838 530.82L668.003 585.812C670.68 587.47 673.707 590.471 675.045 592.969C676.19 595.11 676.966 597.377 677.102 599.791C677.451 606.087 673.92 612.174 667.305 616.309L650.969 626.069C649.611 626.93 620.123 643.7 618.939 642.966L608.444 647.646C604.059 650.396 596.415 650.564 590.828 650.564C585.978 650.564 579.808 648.318 576.336 646.156L502.847 600.819L487.171 591.143L398.006 536.151C395.329 534.493 392.302 531.491 390.964 528.994C389.819 526.853 389.043 524.586 388.907 522.172C388.558 515.854 392.108 509.788 398.705 505.653Z" fill="black"/>
<path opacity="0.2727" d="M400.373 507.102L416.243 497.698C418.299 496.418 445.751 481.453 447.536 482.565L457.721 478.934C461.621 476.499 469.711 477.15 474.677 477.15C478.984 477.15 485.542 479.816 488.626 481.747L559.884 525.761L575.075 535.143L661.543 588.54C663.91 590.031 667.266 593.137 668.488 595.32C669.652 597.377 670.506 599.497 670.719 601.806C671.243 607.851 667.887 613.77 661.407 617.82L645.538 627.224C643.481 628.504 616.029 643.469 614.245 642.357L604.059 645.988C600.16 648.423 592.07 647.772 587.103 647.772C582.796 647.772 576.239 645.107 573.154 643.176L501.896 599.161L486.706 589.779L400.238 536.382C397.871 534.892 394.514 531.785 393.292 529.602C392.128 527.545 391.274 525.425 391.061 523.117C390.537 517.093 393.894 511.153 400.373 507.102Z" fill="black"/>
<path opacity="0.3636" d="M402.061 508.55L417.484 499.524C420.22 497.824 445.673 484.664 448.04 486.133L457.895 483.552C461.31 481.411 469.865 482.901 474.192 482.901C477.975 482.901 484.901 485.986 487.597 487.665L556.644 530.337L571.369 539.446L655.14 591.227C657.216 592.528 660.863 595.761 661.989 597.65C663.153 599.623 664.123 601.596 664.394 603.778C665.093 609.551 661.93 615.344 655.567 619.311L640.144 628.336C637.408 630.036 611.955 643.196 609.588 641.727L599.732 644.309C596.318 646.45 587.762 644.96 583.436 644.96C579.653 644.96 572.727 641.874 570.03 640.195L500.984 597.524L486.259 588.414L402.487 536.634C400.412 535.332 396.764 532.1 395.639 530.211C394.475 528.238 393.505 526.265 393.233 524.082C392.535 518.31 395.678 512.517 402.061 508.55Z" fill="black"/>
<path opacity="0.4545" d="M403.729 509.977L418.706 501.309C422.121 499.168 445.576 487.813 448.525 489.66L458.051 488.127C460.98 486.301 469.982 488.631 473.707 488.631C476.947 488.631 484.261 492.136 486.569 493.585L553.385 534.934L567.625 543.749L648.68 593.914C650.465 595.026 654.442 598.384 655.431 599.98C656.615 601.89 657.682 603.695 658.012 605.773C658.904 611.272 655.916 616.918 649.669 620.822L634.692 629.491C631.278 631.632 607.823 642.987 604.874 641.14L595.348 642.672C592.419 644.498 583.417 642.168 579.692 642.168C576.452 642.168 569.138 638.663 566.829 637.215L500.014 595.866L485.774 587.05L404.719 536.886C402.934 535.773 398.957 532.415 397.967 530.82C396.784 528.91 395.717 527.105 395.387 525.027C394.514 519.527 397.482 513.881 403.729 509.977Z" fill="black"/>
<path opacity="0.5455" d="M405.418 511.426L419.929 503.114C424.023 500.553 445.461 491.003 449.011 493.228L458.226 492.724C460.671 491.192 470.119 494.361 473.223 494.361C475.919 494.361 483.621 498.286 485.561 499.483L550.146 539.509L563.92 548.052L642.279 596.621C643.753 597.545 648.079 601.008 648.933 602.309C650.136 604.136 651.281 605.794 651.688 607.746C652.755 612.993 649.961 618.492 643.831 622.312L629.319 630.624C625.226 633.185 603.788 642.735 600.238 640.51L591.023 641.014C588.578 642.546 579.13 639.377 576.026 639.377C573.329 639.377 565.627 635.452 563.687 634.255L499.103 594.229L485.329 585.686L406.97 537.117C405.495 536.193 401.169 532.73 400.316 531.428C399.113 529.602 397.968 527.944 397.561 525.992C396.474 520.745 399.268 515.246 405.418 511.426Z" fill="black"/>
<path opacity="0.6364" d="M407.086 512.853L421.151 504.919C425.943 501.938 445.363 494.193 449.495 496.775L458.381 497.321C460.34 496.103 470.254 500.091 472.737 500.091C474.891 500.091 482.981 504.436 484.533 505.402L546.905 544.106L560.195 552.355L635.857 599.308C637.04 600.043 641.716 603.611 642.414 604.639C643.656 606.402 644.878 607.893 645.344 609.74C646.585 614.714 643.986 620.066 637.971 623.824L623.906 631.758C619.114 634.738 599.694 642.483 595.562 639.901L586.676 639.356C584.717 640.573 574.803 636.585 572.32 636.585C570.167 636.585 562.077 632.24 560.525 631.275L498.152 592.57L484.863 584.322L409.201 537.368C408.017 536.634 403.342 533.066 402.643 532.037C401.402 530.274 400.179 528.784 399.714 526.937C398.453 521.962 401.072 516.61 407.086 512.853Z" fill="black"/>
<path opacity="0.7273" d="M408.754 514.301L422.373 506.724C427.844 503.303 445.246 497.384 449.98 500.343L458.555 501.938C460.01 501.015 470.389 505.863 472.252 505.863C473.862 505.863 482.34 510.628 483.504 511.341L543.646 548.723L556.469 556.699L629.435 602.036C630.327 602.582 635.488 606.15 635.915 606.99C637.467 608.396 638.495 610.012 639.019 611.754C640.454 616.456 638.029 621.661 632.131 625.356L618.512 632.933C613.041 636.354 595.639 642.273 590.905 639.314L582.33 637.718C580.875 638.642 570.496 633.793 568.634 633.793C567.023 633.793 558.545 629.029 557.381 628.315L497.24 590.933L484.416 582.957L411.451 537.62C410.558 537.074 405.398 533.506 404.971 532.667C403.419 531.26 402.391 529.644 401.867 527.902C400.431 523.2 402.856 517.995 408.754 514.301Z" fill="black"/>
<path opacity="0.8182" d="M410.442 515.749L423.615 508.529C429.765 504.688 445.169 500.553 450.485 503.89L458.73 506.535C459.7 505.926 470.545 511.593 471.787 511.593C472.873 511.593 481.72 516.778 482.496 517.261L540.406 553.32L552.745 561.002L623.014 604.744C623.615 605.122 629.125 608.774 629.396 609.341C630.987 610.642 632.074 612.132 632.675 613.749C634.305 618.198 632.054 623.257 626.273 626.867L613.1 634.087C606.95 637.928 591.546 642.063 586.23 638.726L577.985 636.081C577.015 636.69 566.17 631.023 564.929 631.023C563.842 631.023 554.995 625.838 554.219 625.356L496.309 589.296L483.97 581.614L413.702 537.872C413.1 537.494 407.59 533.842 407.319 533.275C405.728 531.974 404.641 530.484 404.04 528.868C402.41 524.418 404.661 519.359 410.442 515.749Z" fill="black"/>
<path opacity="0.9091" d="M412.111 517.176L424.818 510.334C431.647 506.073 445.033 503.743 450.95 507.437L458.866 511.132C459.351 510.817 470.642 517.323 471.263 517.323C471.806 517.323 481.041 522.928 481.429 523.158L537.128 557.875L549.001 565.284L616.573 607.41C616.864 607.599 622.723 611.356 622.858 611.629C624.507 612.804 625.652 614.189 626.312 615.7C628.116 619.877 626.059 624.789 620.395 628.336L607.687 635.179C600.858 639.439 587.472 641.769 581.555 638.075L573.639 634.381C573.154 634.696 561.863 628.189 561.242 628.189C560.699 628.189 551.465 622.585 551.077 622.354L495.378 587.638L483.505 580.228L415.933 538.103C415.642 537.914 409.783 534.157 409.647 533.863C407.998 532.688 406.853 531.302 406.193 529.791C404.37 525.635 406.446 520.724 412.111 517.176Z" fill="black"/>
<path d="M576.86 637.487L494.408 585.98L411.956 534.472C405.437 530.4 406.252 523.305 413.779 518.604L426.04 512.118C433.568 507.416 444.936 506.913 451.436 510.985L533.888 562.493L616.34 614C622.859 618.072 622.044 625.167 614.516 629.868L602.255 636.354C594.747 641.056 583.378 641.559 576.86 637.487Z" fill="black"/>
</g>
<path opacity="0.8" d="M665.742 44.3129V96.6075L637.495 54.1847L665.742 44.3129Z" fill="#1B0202"/>
<path opacity="0.6" d="M704.155 66.3115V118.606L675.951 76.1407L704.155 66.3115Z" fill="#160101"/>
<path opacity="0.4" d="M742.611 92.9477V145.242L714.364 102.777L742.611 92.9477Z" fill="#0B0000"/>
<path opacity="0.25" d="M781.067 114.946V167.241L752.82 124.776L781.067 114.946Z" fill="black"/>
<path opacity="0.8" d="M700.014 440V471.5L683 445.946L700.014 440Z" fill="#250202"/>
<path opacity="0.6" d="M723.153 453.251V484.751L706.164 459.172L723.153 453.251Z" fill="#230202"/>
<path opacity="0.4" d="M746.316 469.295V500.795L729.302 475.216L746.316 469.295Z" fill="#140202"/>
<path opacity="0.25" d="M769.481 482.546V514.046L752.467 488.467L769.481 482.546Z" fill="#0A0101"/>
<path opacity="0.8" d="M271.962 359.232V320.874L292.562 352.022L271.962 359.232Z" fill="#2E0303"/>
<path opacity="0.6" d="M242.839 342.894V304.536L264.149 335.685L242.839 342.894Z" fill="#260303"/>
<path opacity="0.4" d="M214.425 326.557V288.199L235.735 319.347L214.425 326.557Z" fill="#280202"/>
<path opacity="0.25" d="M186.012 310.929V271.861L207.322 303.586L186.012 310.929Z" fill="#220000"/>
<path opacity="0.8" d="M671.808 420.804L669.511 431.911C667.29 428.081 664.074 424.941 659.786 422.49C655.536 420.038 652.09 419.809 649.448 421.762C647.955 422.873 646.921 424.749 646.27 427.354L667.788 439.801L666.524 446.044L645.466 433.864C645.466 434.554 645.466 435.396 645.466 436.507C645.466 437.541 645.504 438.652 645.542 439.839L665.491 451.367L664.227 457.61L646.385 447.307C647.036 450.908 648.031 453.971 649.41 456.614C652.013 461.67 655.421 465.385 659.594 467.797C664.61 470.708 668.592 471.244 671.579 469.406V483.155C668.171 483.155 664.227 481.815 659.709 479.211C652.09 474.806 645.81 468.18 640.91 459.372C637.578 453.359 635.358 447.001 634.286 440.299L628.466 436.928L629.729 430.686L633.558 432.907C633.52 432.179 633.52 431.413 633.52 430.609C633.52 429.23 633.558 428.043 633.596 427.009L628.466 424.022L629.729 417.779L634.401 420.46C635.473 415.136 637.655 411.421 640.91 409.276C645.849 406.059 652.319 406.787 660.36 411.421C664.763 413.987 668.592 417.089 671.808 420.804Z" fill="#2E0303"/>
<path opacity="0.8" d="M204.726 166.601V149.312C200.023 145.075 196.582 140.763 194.403 136.373C192.185 131.984 191.114 127.557 191.114 123.092C191.114 118.588 192.376 115.497 194.823 113.894C197.309 112.252 200.635 112.405 204.726 114.313V110.23L209.965 113.245V117.329C213.788 120.038 216.809 123.282 219.065 127.061C221.321 130.839 222.774 134.961 223.386 139.427L214.286 135.534C213.712 131.946 212.297 128.931 209.965 126.45V142.556C215.739 147.671 219.639 152.251 221.742 156.296C223.845 160.342 224.877 164.578 224.877 169.044C224.877 174.005 223.577 177.44 220.939 179.349C218.3 181.257 214.668 181.219 209.965 179.31V187.02L204.726 184.005V176.486C200.559 173.509 197.194 169.807 194.594 165.342C191.994 160.876 190.35 155.724 189.623 149.922L199.029 154.197C199.412 156.602 200.138 158.93 201.209 161.143C202.279 163.281 203.465 165.113 204.726 166.601ZM204.726 123.282C203.312 123.015 202.165 123.282 201.323 124.122C200.52 125 200.1 126.221 200.1 127.786C200.1 129.236 200.482 130.801 201.247 132.519C202.012 134.198 203.197 135.877 204.726 137.557V123.282ZM209.965 170.189C211.762 170.838 213.215 170.723 214.362 169.845C215.471 168.967 216.044 167.517 216.044 165.456C216.044 163.624 215.586 161.754 214.63 159.884C213.674 158.014 212.144 156.067 209.965 154.121V170.189Z" fill="#2E0303"/>
<path d="M376.907 724.647C377.877 723.179 379.873 722.015 382.395 721.461L398.445 717.832C401.966 717.056 405.93 717.527 408.563 719.051L445.709 756.562C449.645 753.376 455.799 750.717 458.155 745.979C460.844 740.605 458.931 731.933 456.658 726.725C452.944 718.22 445.237 712.429 437.448 707.941C425.251 700.904 408.979 697.691 392.957 698.189L393.068 698.134L360.108 692.039L181.589 589.034L172.275 570.556C173.716 561.219 168.366 551.606 156.169 544.292C139.537 534.291 109.738 533.736 88.5593 538.197L136.155 560.471C138.761 561.995 139.593 564.239 138.29 566.234L132.468 575.182C131.526 576.65 129.53 577.814 127.007 578.396L110.93 581.997C107.437 582.801 103.473 582.302 100.839 580.778L73.3685 564.932L53.299 558.532C48.337 569.724 56.8749 583.161 71.9825 591.888C84.1795 598.925 100.451 602.166 116.501 601.667L149.211 607.707L327.731 710.712L337.128 729.357C335.742 738.693 341.092 748.251 353.261 755.565C366.207 763.322 383.975 766.674 401.19 765.705L403.574 772.936L410.476 776.925L415.66 763.821L373.275 739.358C370.67 737.862 369.81 735.618 371.113 733.595L376.907 724.647Z" fill="#CCCCCC"/>
<path d="M322.491 712.9V723.816L331.694 742.045L331.888 731.573L322.491 712.9Z" fill="#737373"/>
<path d="M88.5039 538.197V549.085L130.001 573.049L138.705 566.123L133.106 558.116L88.5039 538.197Z" fill="#4B4C4E"/>
<path d="M49.668 581.166V581.277C49.6957 589.865 55.4061 598.454 66.716 604.992C78.7744 611.946 94.7967 615.215 110.681 614.827L111.013 614.716V603.801L52.44 570.832L49.7234 569.309V580.307L49.668 581.166Z" fill="#4B4C4E"/>
<path d="M331.667 745.287C331.667 753.709 337.1 762.075 348.022 768.641C364.072 778.255 387.496 781.164 408.12 777.368C408.397 777.313 408.702 777.257 409.007 777.202C409.339 777.147 409.617 777.091 409.949 777.008C410.282 776.953 410.421 776.897 410.421 776.897V765.982L386.997 763.378L365.292 760.967L337.932 739.081L333.968 735.923L331.722 734.122V735.95L331.695 742.045L331.667 744.788V745.259V745.287Z" fill="#4B4C4E"/>
<path d="M444.433 735.479L445.708 745.647V756.562C448.092 752.767 449.284 748.805 449.284 744.843V734.15L446.65 734.87L444.433 735.479Z" fill="#737373"/>
<path d="M371.695 737.723L368.895 742.073L365.735 743.846L363.296 738.555L363.24 726.392L371.695 726.836V737.723Z" fill="#737373"/>
<path d="M371.058 721.295L371.695 726.808V737.723C372.665 736.255 374.634 735.091 377.184 734.51V723.594L371.058 721.295Z" fill="#969696"/>
<path d="M393.233 720.02V730.936C396.726 730.16 400.69 730.603 403.351 732.155V721.239L399.332 715.089L393.233 720.02Z" fill="#5B5C5E"/>
<path d="M354.868 694.2L387.827 700.295L331.888 731.573L322.49 712.9L143.971 609.896L111.012 603.801L166.924 572.523L176.349 591.195L354.868 694.2Z" fill="#E4E4E4"/>
<path d="M241.215 656.66C289.92 684.753 333.136 705.365 337.765 702.705C342.394 700.045 306.663 675.084 257.986 646.992C209.281 618.899 166.065 598.287 161.436 600.947C156.806 603.607 192.538 628.568 241.215 656.66Z" fill="#B9B9B9"/>
<path d="M337.793 702.705C337.793 702.705 337.765 702.705 337.738 702.733C333.635 695.917 300.842 673.643 257.986 648.931C209.42 620.894 166.315 600.31 161.491 602.859C160.937 601.917 160.882 601.28 161.436 600.947C166.065 598.287 209.281 618.899 257.986 646.992C306.691 675.084 342.422 700.045 337.793 702.705Z" fill="#4B4C4E"/>
<path d="M66.743 594.076C89.6123 607.264 126.813 607.208 149.821 593.938C172.662 580.751 173.161 559.834 150.902 546.48C134.27 536.507 109.654 533.764 88.5034 538.225L130.888 562.687C133.494 564.184 134.353 566.455 133.022 568.45L127.201 577.398C126.259 578.867 124.263 580.03 121.712 580.584L105.662 584.186C102.17 584.962 98.2056 584.491 95.5444 582.967L53.2431 558.532C45.6478 570.556 50.1385 584.491 66.743 594.076Z" fill="#EBEBEB"/>
<path d="M432.208 710.13C409.339 696.942 372.138 696.998 349.13 710.268C326.289 723.455 325.79 744.372 348.049 757.726C364.682 767.699 389.297 770.442 410.448 765.982L368.064 741.519C365.458 740.023 364.598 737.751 365.929 735.756L371.75 726.808C372.693 725.339 374.689 724.176 377.211 723.622L393.261 720.02C396.754 719.244 400.718 719.715 403.379 721.239L445.708 745.674C453.276 733.651 448.813 719.715 432.208 710.13Z" fill="#EBEBEB"/>
<path d="M445.681 756.562V745.647L403.352 721.239V732.155L445.681 756.562Z" fill="#4B4C4E"/>
<path d="M393.234 730.936V720.02L377.184 723.622V734.537L393.234 730.936Z" fill="#737373"/>
<path d="M143.972 620.783V609.896L322.491 712.9V723.816L143.972 620.783Z" fill="#4B4C4E"/>
<path d="M111.012 603.801V614.688L143.971 620.783V609.896L111.012 603.801Z" fill="#737373"/>
<path d="M569.267 628.612L404.149 533.278C385.53 522.524 370.423 493.664 370.423 468.847V29.1003C370.423 16.4809 360.047 13.6815 366.335 9.14921C366.579 8.97147 381.065 2.39515 381.354 2.28406C388.13 -0.31536 395.373 -1.47065 404.149 3.61711L569.267 98.9515C587.886 109.705 602.993 138.565 602.993 163.382V603.129C602.993 616.326 598.728 625.724 591.951 630.034C591.551 630.278 574.066 638.587 573.622 638.743C567.601 640.743 577.399 633.322 569.267 628.612Z" fill="url(#paint6_linear_76_1463)"/>
<path d="M567.734 99.4403L402.616 4.10586C393.818 -0.981899 558.603 102.484 558.603 102.484C577.221 113.237 592.329 142.098 592.329 166.914C592.329 166.914 601.46 616.815 601.46 603.617V163.893C601.46 139.054 586.375 110.193 567.734 99.4403Z" fill="url(#paint7_radial_76_1463)"/>
<path opacity="0.6" d="M556.448 634.477L391.329 539.143C372.711 528.39 357.604 499.53 357.604 474.713V34.9658C357.604 10.1268 372.711 -1.29285 391.329 9.46033L556.448 104.795C575.067 115.548 590.174 144.408 590.174 169.225V608.972C590.174 633.811 575.067 645.231 556.448 634.477Z" fill="url(#paint8_radial_76_1463)"/>
<path d="M553.493 636.077L388.374 540.743C369.756 529.989 354.648 501.129 354.648 476.312V36.5431C354.648 11.7042 369.756 0.284487 388.374 11.0377L553.493 106.394C572.111 117.147 587.219 146.008 587.219 170.824V610.572C587.219 635.411 572.134 646.83 553.493 636.077Z" fill="url(#paint9_linear_76_1463)"/>
<path d="M359.247 479.223V38.9426C359.247 17.1696 372.489 7.17187 388.818 16.592L553.071 111.415C569.401 120.836 582.642 146.141 582.642 167.914V608.194C582.642 629.967 569.401 639.965 553.071 630.545L388.818 535.721C372.489 526.279 359.247 500.996 359.247 479.223Z" fill="url(#paint10_linear_76_1463)"/>
<path d="M365.824 481.911V43.8527C365.824 25.6345 376.911 17.2585 390.574 25.1457L551.316 117.947C564.98 125.834 576.066 147.008 576.066 165.226V603.284C576.066 621.503 564.98 629.878 551.316 621.991L390.574 529.19C376.911 521.302 365.824 500.129 365.824 481.911Z" fill="url(#paint11_linear_76_1463)"/>
<path d="M392.548 29.9881C379.662 22.5453 369.22 28.4996 369.22 43.2963V486.287C369.22 501.062 379.662 519.08 392.548 526.523L549.558 617.169C562.444 624.612 572.886 618.658 572.886 603.861V160.87C572.886 146.096 562.444 128.078 549.558 120.635L392.548 29.9881Z" fill="url(#paint12_linear_76_1463)"/>
<path d="M591.662 272.58V242.898C591.662 239.098 593.973 234.699 596.817 233.055C599.66 231.411 601.971 233.166 601.971 236.943V266.626C601.971 270.425 599.66 274.824 596.817 276.468C593.973 278.112 591.662 276.379 591.662 272.58Z" fill="url(#paint13_linear_76_1463)"/>
<path d="M594.773 275.979C593.307 275.979 592.773 274.157 592.773 272.58V242.897C592.773 239.52 594.884 235.455 597.372 234.01C597.906 233.699 598.417 233.544 598.861 233.544C600.327 233.544 600.861 235.366 600.861 236.943V266.625C600.861 270.002 598.75 274.068 596.262 275.512C595.728 275.823 595.217 275.979 594.773 275.979Z" fill="url(#paint14_linear_76_1463)"/>
<path d="M594.306 273.335V243.653C594.306 240.276 596.417 236.21 598.905 234.766C599.372 234.499 599.816 234.366 600.216 234.322C599.905 233.855 599.461 233.522 598.861 233.522C598.417 233.522 597.906 233.677 597.372 233.988C594.884 235.432 592.773 239.498 592.773 242.875V272.558C592.773 274.135 593.307 275.957 594.773 275.957C594.817 275.957 594.884 275.935 594.951 275.935C594.484 275.268 594.306 274.268 594.306 273.335Z" fill="url(#paint15_radial_76_1463)"/>
<path opacity="0.1" d="M500.059 698.219C472.943 709.522 459.529 700.522 439.12 688.788C418.747 677.053 416.403 665.426 432.088 658.119C461.656 644.296 478.496 658.263 498.905 669.998C519.314 681.732 516.033 691.559 500.059 698.219Z" fill="black"/>
<path d="M420.405 517.949C418.314 518.885 417.448 519.749 418.061 521.873C418.674 523.997 419.936 531.844 420.369 535.264C420.802 538.683 425.165 545.738 425.165 545.738C425.165 545.738 426.03 548.726 427.545 550.094C429.059 551.462 429.852 550.778 430.141 550.346C430.429 549.914 430.105 548.51 429.636 547.754C429.203 546.998 428.302 543.003 428.302 543.003C428.302 543.003 430.718 548.15 431.583 550.058C432.449 551.966 434.179 553.73 435.477 553.586C436.776 553.442 437.1 552.11 436.848 551.606C436.631 551.102 435.117 548.906 434.792 547.574C434.468 546.242 433.999 544.011 433.999 544.011C433.999 544.011 435.333 548.474 437.1 551.03C437.929 552.218 440.093 556.717 442.184 555.133C443.771 553.946 440.814 550.094 440.273 548.906C438.398 544.983 437.028 538.071 436.956 535.048C436.884 532.06 437.713 530.656 440.886 532.672C444.095 534.652 446.944 535.803 447.269 534.256C447.593 532.708 444.456 530.044 442.437 528.388C440.994 527.2 437.316 524.933 434.864 523.961C430.357 522.233 429.42 517.625 426.535 516.761C423.65 515.897 421.09 517.625 420.405 517.949Z" fill="url(#paint16_radial_76_1463)"/>
<path d="M415.068 422.523C415.068 426.087 417.953 429.002 421.559 429.002C425.165 429.002 428.049 426.123 428.049 422.523C428.049 418.959 425.165 416.044 421.559 416.044C417.953 416.044 415.068 418.959 415.068 422.523Z" fill="#4B0505"/>
<path d="M416.078 517.661C416.619 520.577 419.431 522.521 422.352 521.981C425.273 521.441 427.22 518.633 426.679 515.717C426.138 512.802 423.326 510.858 420.405 511.398C417.448 511.902 415.537 514.746 416.078 517.661Z" fill="#4B0505"/>
<path d="M406.054 465.287C403.89 466.763 403.89 471.334 406.955 484.797C409.912 497.827 413.698 516.185 415.573 517.553C417.448 518.921 425.417 516.041 426.283 513.918C427.112 511.794 424.949 502.147 423.434 492.104C421.703 480.693 421.884 473.53 419.576 470.362C417.196 467.158 409.588 462.875 406.054 465.287Z" fill="url(#paint17_linear_76_1463)"/>
<path d="M411.246 466.007C410.093 467.23 410.381 471.442 413.085 484.113C415.682 496.351 419.071 513.594 420.261 514.998C421.451 516.401 425.886 514.242 426.211 512.334C426.571 510.426 424.66 501.355 423.11 491.96C421.343 481.269 420.982 474.646 419.432 471.586C417.809 468.49 413.122 464.027 411.246 466.007Z" fill="url(#paint18_radial_76_1463)"/>
<path d="M405.297 463.847C405.621 467.411 408.795 470.038 412.364 469.678C415.934 469.318 418.567 466.187 418.206 462.623C417.881 459.059 414.708 456.432 411.138 456.792C407.569 457.152 404.972 460.319 405.297 463.847Z" fill="#4B0505"/>
<path d="M412.4 420.471C410.056 420.255 409.155 425.943 408.578 432.494C408.037 438.865 406.27 456.612 406.306 458.303C406.378 460.571 415.249 464.603 417.953 464.675C420.549 464.783 422.461 449.7 423.254 444.265C424.227 437.678 424.516 432.566 423.182 430.514C421.811 428.462 414.996 420.687 412.4 420.471Z" fill="url(#paint19_linear_76_1463)"/>
<path d="M419.251 423.999C418.242 423.711 417.34 428.93 416.511 435.014C415.681 440.917 413.301 457.331 413.193 458.915C413.013 461.039 416.475 465.179 417.629 465.431C418.746 465.647 420.946 451.716 421.775 446.713C422.785 440.629 423.398 435.914 423.001 433.934C422.605 431.918 420.333 424.359 419.251 423.999Z" fill="url(#paint20_radial_76_1463)"/>
<path d="M462.63 680.545C459.674 683.172 458.375 692.711 462.125 696.131C465.912 699.551 469.806 696.383 478.208 696.131C486.609 695.879 502.692 692.495 503.196 686.772C503.701 681.048 496.598 680.581 491.009 680.077C485.419 679.573 480.155 676.909 476.874 676.657C473.592 676.405 466.164 677.377 462.63 680.545Z" fill="url(#paint21_radial_76_1463)"/>
<path d="M461.692 678.421C461.692 681.984 464.577 684.9 468.183 684.9C471.753 684.9 474.674 682.02 474.674 678.421C474.674 674.857 471.789 671.941 468.183 671.941C464.613 671.941 461.692 674.821 461.692 678.421Z" fill="#4B0505"/>
<path d="M436.307 664.778C433.855 667.154 431.186 681.084 436.054 683.28C440.922 685.476 446.187 681.804 447.882 679.249C449.576 676.693 452.389 674.245 455.562 672.553C458.735 670.862 462.882 664.022 459.456 660.999C456.031 657.939 449.937 661.61 447.629 661.61C445.321 661.646 439.588 661.646 436.307 664.778Z" fill="url(#paint22_linear_76_1463)"/>
<path d="M436.307 664.778C433.855 667.118 434.612 675.217 439.48 677.413C444.348 679.609 452.389 674.281 455.562 672.553C458.735 670.862 462.882 664.022 459.456 660.999C456.031 657.939 449.937 661.61 447.629 661.61C445.321 661.646 439.588 661.646 436.307 664.778Z" fill="url(#paint23_radial_76_1463)"/>
<path d="M436.127 662.222C436.127 665.786 439.012 668.702 442.618 668.702C446.187 668.702 449.108 665.822 449.108 662.222C449.108 658.659 446.223 655.743 442.618 655.743C439.048 655.743 436.127 658.659 436.127 662.222Z" fill="#4B0505"/>
<path d="M441.535 587.89C434.576 594.837 433.458 658.335 436.776 660.89C440.057 663.446 447.918 662.978 449 659.523C450.081 656.067 451.163 643.648 453.904 624.93C456.824 605.132 459.889 597.681 458.447 592.066C456.824 585.73 447.161 582.239 441.535 587.89Z" fill="url(#paint24_linear_76_1463)"/>
<path d="M443.952 591.454C438.291 596.925 437.137 653.187 439.625 655.383C442.113 657.579 448.099 657.183 448.928 654.195C449.758 651.208 450.118 639.689 451.849 623.634C453.796 605.6 456.068 597.069 455.707 595.017C454.842 589.51 450.479 585.19 443.952 591.454Z" fill="url(#paint25_radial_76_1463)"/>
<path d="M443.411 586.27C443.411 590.806 447.089 594.513 451.669 594.513C456.212 594.513 459.926 590.842 459.926 586.27C459.926 581.735 456.248 578.027 451.669 578.027C447.125 578.027 443.411 581.735 443.411 586.27Z" fill="#4B0505"/>
<path d="M442.798 582.599C444.348 591.886 459.889 590.95 462.089 584.614C464.325 578.135 462.702 529 462.81 515.07C462.918 502.219 462.305 480.801 447.954 482.277C433.567 483.753 427.977 494.552 429.059 505.998C430.141 517.445 438.795 543.111 440.634 557.473C442.473 571.836 442.221 579.071 442.798 582.599Z" fill="url(#paint26_linear_76_1463)"/>
<path d="M569.147 417.952C569.003 415.684 569.291 415.18 570.12 412.552C570.986 409.924 569.507 406.685 570.301 402.365C571.094 398.046 572.789 394.842 573.294 392.61C573.798 390.378 574.7 389.442 576.287 390.918C577.873 392.43 575.782 399.269 576.791 400.457C577.765 401.645 583.174 397.614 587.465 392.862C591.792 388.075 593.883 383.647 595.578 383.935C597.273 384.223 597.165 386.347 595.398 389.01C593.631 391.638 590.71 395.958 590.71 395.958C590.71 395.958 594.027 392.826 595.47 390.702C596.552 389.118 596.588 388.219 597.597 388.111C599.003 387.967 599.076 391.17 597.381 394.302C595.686 397.434 593.559 399.917 593.559 399.917C593.559 399.917 595.542 398.226 596.443 396.93C597.345 395.598 597.273 395.418 598.102 395.562C598.895 395.706 598.571 399.269 597.237 400.961C595.902 402.653 594.929 403.697 594.929 403.697C594.929 403.697 596.768 401.177 597.489 401.465C598.174 401.789 595.542 406.109 594.749 407.261C593.991 408.412 589.556 413.272 585.842 415.936C582.092 418.599 578.45 424.323 576.431 424.719C574.411 425.151 569.327 420.579 569.147 417.952Z" fill="url(#paint27_radial_76_1463)"/>
<path d="M565.433 422.055C564.892 424.971 566.839 427.778 569.76 428.318C572.681 428.858 575.493 426.915 576.034 423.999C576.575 421.083 574.628 418.275 571.707 417.736C568.786 417.196 565.974 419.139 565.433 422.055Z" fill="#4B0505"/>
<path d="M567.128 419.031C569.22 418.887 573.402 424.107 573.294 427.023C573.114 431.846 540.877 460.247 530.24 458.951C522.127 457.979 519.098 448.476 527.644 442.681C532.584 439.333 562.224 419.355 567.128 419.031Z" fill="url(#paint28_linear_76_1463)"/>
<path d="M559.592 424.539C561.071 424.395 563.631 428.894 563.703 430.658C563.847 433.646 547.296 448.368 539.796 447.9C534.063 447.54 532.079 440.377 537.705 436.562C540.986 434.366 556.203 424.863 559.592 424.539Z" fill="url(#paint29_radial_76_1463)"/>
<path d="M432.593 453.912C433.566 459.383 441.175 500.347 448.819 510.138C453.435 516.041 469.481 516.509 474.854 512.874C481.849 508.158 482.21 474.106 482.21 474.106L432.593 453.912Z" fill="url(#paint30_linear_76_1463)"/>
<path d="M441.175 402.689C433.494 402.113 417.232 402.869 416.114 411.616C414.996 420.363 421.956 427.959 423.614 432.314C425.273 436.706 426.319 451.176 427.977 456.288C429.636 461.399 432.016 469.606 447.341 474.358C462.702 479.109 479.181 479.505 482.859 475.654C486.501 471.838 496.2 444.625 494.181 432.746C492.162 420.867 477.558 411.04 466.38 407.549C455.238 404.165 450.875 403.409 441.175 402.689Z" fill="url(#paint31_linear_76_1463)"/>
<path d="M441.175 402.689C433.494 402.113 417.232 402.869 416.114 411.616C414.996 420.363 428.554 428.283 432.953 429.866C456.247 438.217 496.2 444.625 494.181 432.782C492.162 420.903 477.558 411.076 466.38 407.585C455.238 404.165 450.875 403.409 441.175 402.689Z" fill="url(#paint32_radial_76_1463)"/>
<path d="M494.47 436.67C493.785 433.754 492.415 444.049 484.734 446.281C476.513 448.656 471.392 448.548 470.671 453.768C470.166 457.476 469.229 470.074 473.484 477.525C477.991 477.813 481.345 477.309 482.895 475.69C486.177 472.234 494.362 449.736 494.47 436.67Z" fill="url(#paint33_linear_76_1463)"/>
<path d="M481.417 447.396C485.996 447.109 492.018 441.025 492.018 440.449C492.018 439.873 492.739 441.529 496.597 443.005C500.42 444.481 503.557 452.508 499.158 455.064C494.758 457.619 487.655 461.075 482.715 458.519C477.739 456 475.719 447.756 481.417 447.396Z" fill="url(#paint34_radial_76_1463)"/>
<path d="M462.702 677.557C465.37 679.609 474.096 677.953 474.817 675.757C475.539 673.561 479.397 655.059 483.003 640.157C487.186 622.915 490.828 613.016 490.287 608.912C489.674 604.304 481.092 601.605 476.729 602.469C472.329 603.333 470.815 606.104 469.733 612.008C468.651 617.911 464.757 640.013 463.747 652.144C462.81 663.086 460.502 675.865 462.702 677.557Z" fill="url(#paint35_linear_76_1463)"/>
<path d="M464.613 676.729C466.452 678.925 473.051 677.773 473.772 675.613C474.493 673.453 478.748 655.239 482.534 640.589C486.934 623.634 490.395 613.987 490.287 609.848C490.179 605.24 484.013 602.037 480.695 602.649C477.378 603.26 476.008 605.96 474.782 611.756C473.556 617.587 468.976 639.401 467.282 651.423C465.767 662.294 463.099 674.893 464.613 676.729Z" fill="url(#paint36_radial_76_1463)"/>
<path d="M475.72 602.649C475.72 607.184 479.398 610.892 483.977 610.892C488.521 610.892 492.235 607.22 492.235 602.649C492.235 598.113 488.557 594.406 483.977 594.406C479.398 594.442 475.72 598.113 475.72 602.649Z" fill="#4B0505"/>
<path d="M518.125 450.492C517.476 454.02 519.819 457.367 523.353 458.015C526.887 458.663 530.24 456.324 530.889 452.796C531.538 449.268 529.195 445.921 525.661 445.273C522.127 444.625 518.738 446.965 518.125 450.492Z" fill="#4B0505"/>
<path d="M523.425 444.589C527.031 445.597 526.526 451.32 525.264 454.812C524.146 457.871 522.055 459.779 515.564 460.247C509.939 460.679 486.284 460.751 482.101 459.131C477.919 457.547 482.751 448.548 487.655 444.985C492.27 441.637 493.28 440.845 498.797 441.889C504.566 443.005 517.8 443.005 523.425 444.589Z" fill="url(#paint37_linear_76_1463)"/>
<path d="M521.07 446.399C524.384 447.286 524.053 451.853 522.959 454.579C521.998 457.01 520.109 458.456 514.21 458.719C509.074 458.949 487.434 458.489 483.556 457.142C479.712 455.795 484.716 448.338 489.124 446.137C493.531 443.903 493.365 442.819 498.436 443.771C503.804 444.757 515.933 445.02 521.07 446.399Z" fill="url(#paint38_radial_76_1463)"/>
<path d="M450.442 359.962C444.421 363.777 442.221 372.38 445.322 380.047C448.423 387.715 452.462 389.55 450.442 396.822C448.423 404.129 446.368 404.381 447.125 406.505C447.882 408.629 450.226 409.78 455.707 410.716C461.188 411.616 466.2 411.328 467.426 409.996C468.652 408.665 467.534 403.481 469.445 399.953C470.527 397.974 472.042 395.202 472.042 395.202C472.042 395.202 465.984 350.099 450.442 359.962Z" fill="url(#paint39_radial_76_1463)"/>
<path d="M467.282 396.678C469.085 397.938 475.864 398.442 478.244 397.038C480.479 395.67 485.924 374.216 481.885 364.929C477.847 355.642 459.745 349.379 449.108 358.45C440.598 365.649 443.122 373.928 444.06 374.036C446.404 374.36 459.349 377.816 460.971 381.127C462.63 384.403 463.063 393.726 467.282 396.678Z" fill="url(#paint40_radial_76_1463)"/>
<path d="M474.998 600.057C478.135 605.384 483.761 606.644 489.242 605.528C493.893 604.592 495.948 600.417 495.948 595.305C495.948 590.194 495.732 548.474 494.614 534.292C493.821 524.177 493.713 502.147 482.787 497.611C465.046 490.232 451.777 506.287 454.769 518.849C457.51 530.296 467.498 545.235 470.058 562.081C472.655 578.999 472.51 595.809 474.998 600.057Z" fill="url(#paint41_linear_76_1463)"/>
<path d="M483.797 595.989C485.636 600.849 488.773 601.965 491.838 600.885C494.434 599.985 495.516 596.133 495.444 591.454C495.371 586.774 494.218 549.554 493.424 536.595C492.847 527.344 493.496 503.983 486.825 502.075C476.224 499.015 470.743 511.002 471.464 521.765C472.041 530.44 478.929 545.846 480.551 561.253C482.21 576.695 482.318 592.138 483.797 595.989Z" fill="url(#paint42_radial_76_1463)"/>
<path d="M472.438 396.678C469.445 394.77 465.334 387.139 463.423 375.692C462.125 367.881 450.875 365.901 443.879 365.433C442.076 370.148 443.41 373.964 444.059 374.036C446.403 374.36 459.348 377.816 460.971 381.127C462.63 384.403 463.026 393.726 467.245 396.642C468.435 397.47 471.752 397.974 474.565 397.794C473.844 397.47 473.087 397.074 472.438 396.678Z" fill="url(#paint43_linear_76_1463)"/>
<defs>
<radialGradient id="paint0_radial_76_1463" cx="0" cy="0" r="1" gradientUnits="userSpaceOnUse" gradientTransform="translate(252.349 172.555) rotate(68.1692) scale(13.0912)">
<stop offset="0.00312487" stop-color="#FFA7A7"/>
<stop offset="0.404167" stop-color="#FF0000"/>
<stop offset="1" stop-color="#550606"/>
</radialGradient>
<radialGradient id="paint1_radial_76_1463" cx="0" cy="0" r="1" gradientUnits="userSpaceOnUse" gradientTransform="translate(311.158 207.296) rotate(68.1692) scale(13.0912)">
<stop stop-color="#FFA7A7"/>
<stop offset="0.341667" stop-color="#FF0000"/>
<stop offset="1" stop-color="#530606"/>
</radialGradient>
<radialGradient id="paint2_radial_76_1463" cx="0" cy="0" r="1" gradientUnits="userSpaceOnUse" gradientTransform="translate(283.049 190.525) rotate(68.1692) scale(13.0912)">
<stop offset="0.00312487" stop-color="#FFA7A7"/>
<stop offset="0.357292" stop-color="#FF0000"/>
<stop offset="1" stop-color="#540606"/>
</radialGradient>
<radialGradient id="paint3_radial_76_1463" cx="0" cy="0" r="1" gradientUnits="userSpaceOnUse" gradientTransform="translate(637.578 133.468) rotate(68.1692) scale(13.0912)">
<stop offset="0.00312487" stop-color="#FFA7A7"/>
<stop offset="0.404167" stop-color="#FF0000"/>
<stop offset="1" stop-color="#470606"/>
</radialGradient>
<radialGradient id="paint4_radial_76_1463" cx="0" cy="0" r="1" gradientUnits="userSpaceOnUse" gradientTransform="translate(696.386 168.209) rotate(68.1692) scale(13.0912)">
<stop stop-color="#FFA7A7"/>
<stop offset="0.341667" stop-color="#FF0000"/>
<stop offset="1" stop-color="#440505"/>
</radialGradient>
<radialGradient id="paint5_radial_76_1463" cx="0" cy="0" r="1" gradientUnits="userSpaceOnUse" gradientTransform="translate(668.278 151.438) rotate(68.1692) scale(13.0912)">
<stop offset="0.00312487" stop-color="#FFA7A7"/>
<stop offset="0.357292" stop-color="#FF0000"/>
<stop offset="1" stop-color="#450505"/>
</radialGradient>
<linearGradient id="paint6_linear_76_1463" x1="315.897" y1="20.263" x2="588.5" y2="673.5" gradientUnits="userSpaceOnUse">
<stop offset="0.0556" stop-color="#9B1E1E"/>
<stop offset="1" stop-color="#630101"/>
</linearGradient>
<radialGradient id="paint7_radial_76_1463" cx="0" cy="0" r="1" gradientUnits="userSpaceOnUse" gradientTransform="translate(651.082 172.043) scale(404.762 404.762)">
<stop stop-color="#B73636"/>
<stop offset="1" stop-color="#930808"/>
</radialGradient>
<radialGradient id="paint8_radial_76_1463" cx="0" cy="0" r="1" gradientUnits="userSpaceOnUse" gradientTransform="translate(583.367 143.125) rotate(-13.4447) scale(226.336 226.336)">
<stop stop-color="#EBEBEB"/>
<stop offset="1" stop-color="#911616"/>
</radialGradient>
<linearGradient id="paint9_linear_76_1463" x1="671.5" y1="460.5" x2="-56.6247" y2="158.412" gradientUnits="userSpaceOnUse">
<stop offset="0.164583" stop-color="#A90E0E"/>
<stop offset="0.9343" stop-color="#EBEBEB"/>
</linearGradient>
<linearGradient id="paint10_linear_76_1463" x1="611.188" y1="619.908" x2="276.418" y2="-87.4657" gradientUnits="userSpaceOnUse">
<stop stop-color="#E37979"/>
<stop offset="0.591667" stop-color="#7E0A0A"/>
<stop offset="1" stop-color="#4F0909"/>
</linearGradient>
<linearGradient id="paint11_linear_76_1463" x1="365.823" y1="323.563" x2="576.059" y2="323.563" gradientUnits="userSpaceOnUse">
<stop/>
<stop offset="1"/>
</linearGradient>
<linearGradient id="paint12_linear_76_1463" x1="342.171" y1="77.8173" x2="594.5" y2="631" gradientUnits="userSpaceOnUse">
<stop stop-color="#2C0404"/>
<stop offset="0.346875" stop-color="#500505"/>
<stop offset="0.586458" stop-color="#640707"/>
<stop offset="0.784375" stop-color="#500505"/>
<stop offset="1" stop-color="#2C0404"/>
</linearGradient>
<linearGradient id="paint13_linear_76_1463" x1="606.218" y1="227.612" x2="625.025" y2="260.186" gradientUnits="userSpaceOnUse">
<stop stop-color="#800909"/>
<stop offset="1" stop-color="#470505"/>
</linearGradient>
<linearGradient id="paint14_linear_76_1463" x1="606.494" y1="255.174" x2="580.557" y2="254.059" gradientUnits="userSpaceOnUse">
<stop stop-color="#470505"/>
<stop offset="1" stop-color="#830A0A"/>
</linearGradient>
<radialGradient id="paint15_radial_76_1463" cx="0" cy="0" r="1" gradientUnits="userSpaceOnUse" gradientTransform="translate(593.452 244.108) scale(15.2332 15.2333)">
<stop stop-color="#711F1F"/>
<stop offset="0.1614" stop-color="#6C1E1E"/>
<stop offset="0.8208" stop-color="#200909"/>
<stop offset="1"/>
</radialGradient>
<radialGradient id="paint16_radial_76_1463" cx="0" cy="0" r="1" gradientUnits="userSpaceOnUse" gradientTransform="translate(438.597 538.353) rotate(122.946) scale(20.305 20.2708)">
<stop stop-color="#440808"/>
<stop offset="1" stop-color="#B91010"/>
</radialGradient>
<linearGradient id="paint17_linear_76_1463" x1="425.958" y1="488.927" x2="402.986" y2="493.02" gradientUnits="userSpaceOnUse">
<stop offset="0.0101" stop-color="#440808"/>
<stop offset="1" stop-color="#E4E4E4"/>
</linearGradient>
<radialGradient id="paint18_radial_76_1463" cx="0" cy="0" r="1" gradientUnits="userSpaceOnUse" gradientTransform="translate(418.695 490.171) rotate(-10.5203) scale(11.3404 18.7387)">
<stop offset="0.0656249" stop-color="#440808"/>
<stop offset="1" stop-color="#B91010"/>
</radialGradient>
<linearGradient id="paint19_linear_76_1463" x1="430.043" y1="445.468" x2="402.732" y2="440.147" gradientUnits="userSpaceOnUse">
<stop stop-color="#440808"/>
<stop offset="1" stop-color="#E4E4E4"/>
</linearGradient>
<radialGradient id="paint20_radial_76_1463" cx="0" cy="0" r="1" gradientUnits="userSpaceOnUse" gradientTransform="translate(418.304 444.718) rotate(-5.00131) scale(7.60627 15.9218)">
<stop offset="0.0864582" stop-color="#440808"/>
<stop offset="1" stop-color="#B91010"/>
</radialGradient>
<radialGradient id="paint21_radial_76_1463" cx="0" cy="0" r="1" gradientUnits="userSpaceOnUse" gradientTransform="translate(483.714 683.168) rotate(144.216) scale(48.6349 24.2754)">
<stop stop-color="#440808"/>
<stop offset="1" stop-color="#B91010"/>
</radialGradient>
<linearGradient id="paint22_linear_76_1463" x1="444.035" y1="656.048" x2="450.237" y2="686.672" gradientUnits="userSpaceOnUse">
<stop stop-color="#440808"/>
<stop offset="1" stop-color="#E4E4E4"/>
</linearGradient>
<radialGradient id="paint23_radial_76_1463" cx="0" cy="0" r="1" gradientUnits="userSpaceOnUse" gradientTransform="translate(451.092 661.949) rotate(52.247) scale(20.5491 20.5136)">
<stop offset="0.0916665" stop-color="#440808"/>
<stop offset="1" stop-color="#B91010"/>
</radialGradient>
<linearGradient id="paint24_linear_76_1463" x1="466.382" y1="624.018" x2="430.249" y2="621.901" gradientUnits="userSpaceOnUse">
<stop offset="0.0101" stop-color="#440808"/>
<stop offset="1" stop-color="#E4E4E4"/>
</linearGradient>
<radialGradient id="paint25_radial_76_1463" cx="0" cy="0" r="1" gradientUnits="userSpaceOnUse" gradientTransform="translate(450.074 625.842) scale(18.0239 32.3885)">
<stop offset="0.128125" stop-color="#440808"/>
<stop offset="1" stop-color="#B91010"/>
</radialGradient>
<linearGradient id="paint26_linear_76_1463" x1="473.025" y1="533.589" x2="431.032" y2="537.905" gradientUnits="userSpaceOnUse">
<stop offset="0.0101" stop-color="#440808"/>
<stop offset="1" stop-color="#E4E4E4"/>
</linearGradient>
<radialGradient id="paint27_radial_76_1463" cx="0" cy="0" r="1" gradientUnits="userSpaceOnUse" gradientTransform="translate(580.317 399.726) rotate(10.3058) scale(14.4423 14.4189)">
<stop stop-color="#3C0606"/>
<stop offset="0.789583" stop-color="#AE1818"/>
<stop offset="1" stop-color="#B91010"/>
</radialGradient>
<linearGradient id="paint28_linear_76_1463" x1="541.127" y1="430.144" x2="557.327" y2="451.868" gradientUnits="userSpaceOnUse">
<stop stop-color="#440808"/>
<stop offset="0.773958" stop-color="#E4E4E4"/>
</linearGradient>
<radialGradient id="paint29_radial_76_1463" cx="0" cy="0" r="1" gradientUnits="userSpaceOnUse" gradientTransform="translate(549.064 436.131) rotate(135.883) scale(20.2066 17.6394)">
<stop stop-color="#440808"/>
<stop offset="1" stop-color="#B91010"/>
</radialGradient>
<linearGradient id="paint30_linear_76_1463" x1="484.043" y1="482.215" x2="430.836" y2="485.769" gradientUnits="userSpaceOnUse">
<stop offset="0.117708" stop-color="#B91010"/>
<stop offset="1" stop-color="#440808"/>
</linearGradient>
<linearGradient id="paint31_linear_76_1463" x1="453.09" y1="435.896" x2="441.848" y2="481.667" gradientUnits="userSpaceOnUse">
<stop stop-color="#E4E4E4"/>
<stop offset="1" stop-color="#440808"/>
</linearGradient>
<radialGradient id="paint32_radial_76_1463" cx="0" cy="0" r="1" gradientUnits="userSpaceOnUse" gradientTransform="translate(475.531 410.825) scale(45.2778 45.1995)">
<stop offset="0.2375" stop-color="#B91010"/>
<stop offset="1" stop-color="#440808"/>
</radialGradient>
<linearGradient id="paint33_linear_76_1463" x1="478.121" y1="482.252" x2="484.441" y2="445.84" gradientUnits="userSpaceOnUse">
<stop offset="0.310417" stop-color="#440808"/>
<stop offset="1" stop-color="#E4E4E4"/>
</linearGradient>
<radialGradient id="paint34_radial_76_1463" cx="0" cy="0" r="1" gradientUnits="userSpaceOnUse" gradientTransform="translate(489.625 449.9) scale(10.6553 10.6369)">
<stop offset="0.0202" stop-color="#B91010"/>
<stop offset="1" stop-color="#440808"/>
</radialGradient>
<linearGradient id="paint35_linear_76_1463" x1="486.298" y1="643.188" x2="461.773" y2="638.176" gradientUnits="userSpaceOnUse">
<stop offset="0.0101" stop-color="#440808"/>
<stop offset="1" stop-color="#E4E4E4"/>
</linearGradient>
<radialGradient id="paint36_radial_76_1463" cx="0" cy="0" r="1" gradientUnits="userSpaceOnUse" gradientTransform="translate(479.328 637.334) rotate(4.30931) scale(14.3649 36.6668)">
<stop offset="0.0812499" stop-color="#440808"/>
<stop offset="1" stop-color="#B91010"/>
</radialGradient>
<linearGradient id="paint37_linear_76_1463" x1="505.461" y1="435.264" x2="502.071" y2="464.547" gradientUnits="userSpaceOnUse">
<stop offset="0.0101" stop-color="#440808"/>
<stop offset="1" stop-color="#E4E4E4"/>
</linearGradient>
<radialGradient id="paint38_radial_76_1463" cx="0" cy="0" r="1" gradientUnits="userSpaceOnUse" gradientTransform="translate(505.068 448.106) rotate(10.2355) scale(24.35 12.0759)">
<stop stop-color="#B91010"/>
<stop offset="1" stop-color="#440808"/>
</radialGradient>
<radialGradient id="paint39_radial_76_1463" cx="0" cy="0" r="1" gradientUnits="userSpaceOnUse" gradientTransform="translate(477.633 373.53) scale(42.0704 41.9976)">
<stop offset="0.4293" stop-color="#861212"/>
<stop offset="1" stop-color="#440808"/>
</radialGradient>
<radialGradient id="paint40_radial_76_1463" cx="0" cy="0" r="1" gradientUnits="userSpaceOnUse" gradientTransform="translate(475.532 363.181) scale(41.073 41.0019)">
<stop stop-color="#B41414"/>
<stop offset="0.7375" stop-color="#440808"/>
</radialGradient>
<linearGradient id="paint41_linear_76_1463" x1="501.006" y1="547.431" x2="459.306" y2="554.123" gradientUnits="userSpaceOnUse">
<stop stop-color="#440808"/>
<stop offset="1" stop-color="#E4E4E4"/>
</linearGradient>
<radialGradient id="paint42_radial_76_1463" cx="0" cy="0" r="1" gradientUnits="userSpaceOnUse" gradientTransform="translate(489.907 544.396) rotate(-0.80659) scale(23.0281 46.9076)">
<stop stop-color="#B91010"/>
<stop offset="1" stop-color="#440808"/>
</radialGradient>
<linearGradient id="paint43_linear_76_1463" x1="458.769" y1="365.433" x2="458.769" y2="397.83" gradientUnits="userSpaceOnUse">
<stop stop-color="#EBEBEB"/>
<stop offset="1" stop-color="#460909"/>
</linearGradient>
</defs>
</svg>
